<svg xmlns="http://www.w3.org/2000/svg" viewBox="0 0 48 60" x="0px" y="0px"><title>Chess-board-piece-game-sport-bishop-elephant</title><path d="M40,37H37V33a1,1,0,0,0-1-1h-.76l.38-.42a13.14,13.14,0,0,0,.21-17.31L27.37,4.39a3.47,3.47,0,0,0,.13-.89,3.5,3.5,0,0,0-7,0,3.48,3.48,0,0,0,.13.89l-8.46,9.87a13.13,13.13,0,0,0,.2,17.31l.38.42H12a1,1,0,0,0-1,1v4H8a1,1,0,0,0-1,1v5a1,1,0,0,0,1,1H40a1,1,0,0,0,1-1V38A1,1,0,0,0,40,37ZM24,2a1.5,1.5,0,0,1,1.35,2.15h0a1.5,1.5,0,0,1-2.68,0h0a1.48,1.48,0,0,1-.15-.65A1.5,1.5,0,0,1,24,2ZM13.86,30.24a11.13,11.13,0,0,1-.17-14.67l8-9.4h0a3.49,3.49,0,0,0,4.5,0h0l3.38,3.95-6.43,8.27a1,1,0,1,0,1.58,1.23L31,11.67l3.34,3.9a11.13,11.13,0,0,1-.17,14.67L32.55,32H15.45ZM13,34H35v3H13Zm26,8H9V39H39Z"/><text x="0" y="63" fill="#000000" font-size="5px" font-weight="bold" font-family="'Helvetica Neue', Helvetica, Arial-Unicode, Arial, Sans-serif">Created by Jordan Alfarishy</text><text x="0" y="68" fill="#000000" font-size="5px" font-weight="bold" font-family="'Helvetica Neue', Helvetica, Arial-Unicode, Arial, Sans-serif">from the Noun Project</text></svg>