<svg xmlns="http://www.w3.org/2000/svg" viewBox="0 0 48 60" x="0px" y="0px"><title>Chess-board-piece-game-rook-sport</title><path d="M40,37H37V33a1,1,0,0,0-1-1H34.67A50.84,50.84,0,0,1,31,16h5a1,1,0,0,0,1-1V3a1,1,0,0,0-1-1H31a1,1,0,0,0-1,1V7H28V3a1,1,0,0,0-1-1H21a1,1,0,0,0-1,1V7H18V3a1,1,0,0,0-1-1H12a1,1,0,0,0-1,1V15a1,1,0,0,0,1,1h5a50.94,50.94,0,0,1-3.64,16H12a1,1,0,0,0-1,1v4H8a1,1,0,0,0-1,1v5a1,1,0,0,0,1,1H40a1,1,0,0,0,1-1V38A1,1,0,0,0,40,37ZM13,4h3V8a1,1,0,0,0,1,1h4a1,1,0,0,0,1-1V4h4V8a1,1,0,0,0,1,1h4a1,1,0,0,0,1-1V4h3V14H13Zm6,12H29a51.46,51.46,0,0,0,3.49,16h-17A51.46,51.46,0,0,0,19,16ZM13,34H35v3H13Zm26,8H9V39H39Z"/><text x="0" y="63" fill="#000000" font-size="5px" font-weight="bold" font-family="'Helvetica Neue', Helvetica, Arial-Unicode, Arial, Sans-serif">Created by Jordan Alfarishy</text><text x="0" y="68" fill="#000000" font-size="5px" font-weight="bold" font-family="'Helvetica Neue', Helvetica, Arial-Unicode, Arial, Sans-serif">from the Noun Project</text></svg>