<svg xmlns="http://www.w3.org/2000/svg" viewBox="0 0 48 60" x="0px" y="0px"><title>Chess-board-piece-game-sport-queen-king_1</title><path d="M40,37H37V33a1,1,0,0,0-1-1h-.14C38.93,29.32,44,24,44,18a10.72,10.72,0,0,0-4.61-9C35.9,6.75,31.06,6.92,25,9.47V5h3a1,1,0,0,0,0-2H25V1a1,1,0,0,0-2,0V3H20a1,1,0,0,0,0,2h3V9.47C16.94,6.92,12.1,6.75,8.61,9A10.72,10.72,0,0,0,4,18c0,6,5.07,11.32,8.14,14H12a1,1,0,0,0-1,1v4H8a1,1,0,0,0-1,1v5a1,1,0,0,0,1,1H40a1,1,0,0,0,1-1V38A1,1,0,0,0,40,37ZM6,18a8.84,8.84,0,0,1,3.68-7.34c3.11-2,7.91-1.55,13.89,1.24a1,1,0,0,0,.85,0c6-2.79,10.79-3.22,13.89-1.24A8.84,8.84,0,0,1,42,18c0,6.74-7.88,12.92-9.33,14H15.33C13.88,30.93,6,24.75,6,18Zm7,16H35v3H13Zm26,8H9V39H39Z"/><text x="0" y="63" fill="#000000" font-size="5px" font-weight="bold" font-family="'Helvetica Neue', Helvetica, Arial-Unicode, Arial, Sans-serif">Created by Jordan Alfarishy</text><text x="0" y="68" fill="#000000" font-size="5px" font-weight="bold" font-family="'Helvetica Neue', Helvetica, Arial-Unicode, Arial, Sans-serif">from the Noun Project</text></svg>