<svg xmlns="http://www.w3.org/2000/svg" viewBox="0 0 48 60" x="0px" y="0px"><title>Chess-board-piece-game-sport-knight-horse</title><path d="M40,37H37V33a1,1,0,0,0-1-1H34.85L34,27l3-12.81a1,1,0,0,0-.21-.87l-11-13A1,1,0,0,0,24,1V5.3L10.66,10.06A1,1,0,0,0,10,11.14l1,7A1,1,0,0,0,12.1,19l7.21-.72-6,6A1,1,0,0,0,13,25v7H12a1,1,0,0,0-1,1v4H8a1,1,0,0,0-1,1v5a1,1,0,0,0,1,1H40a1,1,0,0,0,1-1V38A1,1,0,0,0,40,37ZM15,25.41l7.71-7.71A1,1,0,0,0,21.9,16l-9,.9-.75-5.24L25.34,6.94h0A1,1,0,0,0,26,6V3.73l8.91,10.53L32,26.77a1,1,0,0,0,0,.39L32.82,32H23V28.24l1.89-3.79a1,1,0,1,0-1.79-.89l-2,4A1,1,0,0,0,21,28v4H15ZM13,34H35v3H13Zm26,8H9V39H39Z"/><text x="0" y="63" fill="#000000" font-size="5px" font-weight="bold" font-family="'Helvetica Neue', Helvetica, Arial-Unicode, Arial, Sans-serif">Created by Jordan Alfarishy</text><text x="0" y="68" fill="#000000" font-size="5px" font-weight="bold" font-family="'Helvetica Neue', Helvetica, Arial-Unicode, Arial, Sans-serif">from the Noun Project</text></svg>