<svg xmlns="http://www.w3.org/2000/svg" viewBox="0 0 48 60" x="0px" y="0px"><title>Chess-board-piece-game-sport-queen-king</title><path d="M42,8a3.5,3.5,0,0,0-3.5,3.5A3.47,3.47,0,0,0,38.85,13v0a3.54,3.54,0,0,0,.35.53L33.38,20,34.64,9.93A3.5,3.5,0,0,0,37.14,8h0V8A3.47,3.47,0,0,0,37.5,6.5a3.5,3.5,0,0,0-7,0A3.47,3.47,0,0,0,30.85,8V8h0a3.49,3.49,0,0,0,.92,1.14l-4.33,8.65-2-11.2A3.48,3.48,0,0,0,27.14,5h0V5A3.47,3.47,0,0,0,27.5,3.5a3.5,3.5,0,0,0-7,0A3.47,3.47,0,0,0,20.85,5V5h0a3.5,3.5,0,0,0,1.65,1.6l-2,11.19L16.21,9.19a3.46,3.46,0,0,0,.92-1.14h0V8A3.47,3.47,0,0,0,17.5,6.5a3.5,3.5,0,0,0-7,0A3.47,3.47,0,0,0,10.85,8V8h0a3.5,3.5,0,0,0,2.5,1.88L14.62,20,8.78,13.58a3.52,3.52,0,0,0,.35-.52h0v0A3.47,3.47,0,0,0,9.5,11.5a3.5,3.5,0,0,0-7,0A3.47,3.47,0,0,0,2.85,13v0h0A3.51,3.51,0,0,0,6,15h.07l6.48,17H12a1,1,0,0,0-1,1v4H8a1,1,0,0,0-1,1v5a1,1,0,0,0,1,1H40a1,1,0,0,0,1-1V38a1,1,0,0,0-1-1H37V33a1,1,0,0,0-1-1h-.55l6.48-17H42a3.51,3.51,0,0,0,3.14-2h0v0a3.47,3.47,0,0,0,.35-1.53A3.5,3.5,0,0,0,42,8ZM34,5a1.5,1.5,0,1,1-.26,3,1.53,1.53,0,0,1-1.09-.83A1.5,1.5,0,0,1,34,5ZM24,2a1.5,1.5,0,0,1,1.35,2.15h0A1.5,1.5,0,0,1,24.17,5a.89.89,0,0,1-.38,0,1.48,1.48,0,0,1-1.12-.81h0A1.5,1.5,0,0,1,24,2ZM12.66,7.17h0a1.5,1.5,0,1,1,2.7,0h0a1.52,1.52,0,0,1-.84.74,1.08,1.08,0,0,1-.34.08L14,8A1.5,1.5,0,0,1,12.66,7.17Zm-8,5A1.5,1.5,0,1,1,7.5,11.5,1.53,1.53,0,0,1,6,13,1.51,1.51,0,0,1,4.65,12.15ZM39,42H9V39H39ZM13,37V34H35v3Zm1.69-5L8.82,16.59l6.45,7.08a1,1,0,0,0,1.73-.8l-1.27-10.2,4.39,8.77A1,1,0,0,0,21,22h.14a1,1,0,0,0,.84-.82L24,9.74l2,11.43a1,1,0,0,0,.84.82H27a1,1,0,0,0,.89-.55l4.39-8.77L31,22.88a1,1,0,0,0,1.73.8l6.45-7.08L33.31,32ZM43.34,12.17A1.5,1.5,0,0,1,42,13a1.14,1.14,0,0,1-.68-.15,1.49,1.49,0,0,1-.58-.65A1.67,1.67,0,0,1,40.66,11a1.49,1.49,0,0,1,.55-.76A1.44,1.44,0,0,1,42,10a1.48,1.48,0,0,1,1.48,1.5A1.55,1.55,0,0,1,43.34,12.17Z"/><text x="0" y="63" fill="#000000" font-size="5px" font-weight="bold" font-family="'Helvetica Neue', Helvetica, Arial-Unicode, Arial, Sans-serif">Created by Jordan Alfarishy</text><text x="0" y="68" fill="#000000" font-size="5px" font-weight="bold" font-family="'Helvetica Neue', Helvetica, Arial-Unicode, Arial, Sans-serif">from the Noun Project</text></svg>