<?xml version="1.0" encoding="UTF-8" standalone="no"?>
<svg
   xmlns:dc="http://purl.org/dc/elements/1.1/"
   xmlns:cc="http://creativecommons.org/ns#"
   xmlns:rdf="http://www.w3.org/1999/02/22-rdf-syntax-ns#"
   xmlns:svg="http://www.w3.org/2000/svg"
   xmlns="http://www.w3.org/2000/svg"
   xmlns:sodipodi="http://sodipodi.sourceforge.net/DTD/sodipodi-0.dtd"
   xmlns:inkscape="http://www.inkscape.org/namespaces/inkscape"
   viewBox="0 0 34 43.990002"
   x="0px"
   y="0px"
   version="1.1"
   id="svg10"
   sodipodi:docname="bishop_black.svg"
   width="34"
   height="43.990002"
   inkscape:version="0.92.5 (2060ec1f9f, 2020-04-08)">
  <metadata
     id="metadata16">
    <rdf:RDF>
      <cc:Work
         rdf:about="">
        <dc:format>image/svg+xml</dc:format>
        <dc:type
           rdf:resource="http://purl.org/dc/dcmitype/StillImage" />
        <dc:title>Chess-board-piece-game-sport-bishop-elephant</dc:title>
      </cc:Work>
    </rdf:RDF>
  </metadata>
  <defs
     id="defs14" />
  <sodipodi:namedview
     pagecolor="#ffffff"
     bordercolor="#666666"
     borderopacity="1"
     objecttolerance="10"
     gridtolerance="10"
     guidetolerance="10"
     inkscape:pageopacity="0"
     inkscape:pageshadow="2"
     inkscape:window-width="947"
     inkscape:window-height="1051"
     id="namedview12"
     showgrid="false"
     inkscape:zoom="5.5625733"
     inkscape:cx="5.8007639"
     inkscape:cy="8.4709852"
     inkscape:window-x="973"
     inkscape:window-y="0"
     inkscape:window-maximized="0"
     inkscape:current-layer="svg10"
     fit-margin-top="0"
     fit-margin-left="0"
     fit-margin-right="0"
     fit-margin-bottom="0" />
  <title
     id="title2">Chess-board-piece-game-sport-bishop-elephant</title>
  <path
     d="m 33,37 h -3 v -4 a 1,1 0 0 0 -1,-1 h -0.76 l 0.38,-0.42 A 13.14,13.14 0 0 0 28.83,14.27 L 20.37,4.39 a 3.47,3.47 0 0 0 0.13,-0.89 3.5,3.5 0 0 0 -7,0 3.48,3.48 0 0 0 0.13,0.89 l -8.46,9.87 a 13.13,13.13 0 0 0 0.2,17.31 l 0.38,0.42 H 5 a 1,1 0 0 0 -1,1 v 4 H 1 a 1,1 0 0 0 -1,1 v 5 a 1,1 0 0 0 1,1 h 32 a 1,1 0 0 0 1,-1 V 38 A 1,1 0 0 0 33,37 Z M 17,2 a 1.5,1.5 0 0 1 1.35,2.15 v 0 a 1.5,1.5 0 0 1 -2.68,0 v 0 A 1.48,1.48 0 0 1 15.52,3.5 1.5,1.5 0 0 1 17,2 Z M 6.86,30.24 A 11.13,11.13 0 0 1 6.69,15.57 l 8,-9.4 v 0 a 3.49,3.49 0 0 0 4.5,0 v 0 l 3.38,3.95 -6.43,8.27 a 1.0011618,1.0011618 0 1 0 1.58,1.23 l 6.28,-7.95 3.34,3.9 A 11.13,11.13 0 0 1 27.17,30.24 L 25.55,32 H 8.45 Z M 6,34 h 22 v 3 H 6 Z m 26,8 H 2 v -3 h 30 z"
     id="path4"
     inkscape:connector-curvature="0" />
  <path
     style="fill:#4d4d4d;fill-opacity:1;fill-rule:nonzero;stroke:none;stroke-width:0.06355932;stroke-opacity:1"
     d="m 5.877936,33.857622 c -0.141001,0.563089 -0.01816,1.179582 -0.05921,1.762902 0.0361,0.499112 -0.07391,1.027076 0.05785,1.5073 0.552417,0.141384 1.158512,0.01759 1.731122,0.05921 6.779661,0 13.559322,0 20.338983,0 0.376303,-0.137899 0.129141,-0.656688 0.199988,-0.9627 -0.03195,-0.777591 0.06439,-1.580512 -0.04832,-2.342155 -0.375506,-0.191313 -0.873806,-0.02869 -1.29574,-0.08241 -6.927966,0 -13.855932,0 -20.783898,0 -0.04692,0.01928 -0.09385,0.03857 -0.140774,0.05785 z"
     id="path18"
     inkscape:connector-curvature="0" />
  <path
     style="fill:#4d4d4d;fill-opacity:1;fill-rule:nonzero;stroke:none;stroke-width:0.06355932;stroke-opacity:1"
     d="m 1.8736987,38.878809 c -0.1413843,0.552418 -0.017587,1.158512 -0.059214,1.731122 0.033853,0.488963 -0.070657,1.005247 0.057849,1.47552 0.5524179,0.141384 1.1585123,0.01759 1.7311223,0.05921 9.449153,0 18.898305,0 28.347457,0 0.376303,-0.137899 0.129141,-0.656688 0.199989,-0.9627 -0.03101,-0.756589 0.0628,-1.537823 -0.04832,-2.278595 -0.375506,-0.191314 -0.873805,-0.02869 -1.295739,-0.08241 -9.597458,0 -19.194916,0 -28.7923738,0 -0.046925,0.01928 -0.093849,0.03857 -0.140774,0.05785 z"
     id="path20"
     inkscape:connector-curvature="0" />
  <path
     style="fill:#4d4d4d;fill-opacity:1;fill-rule:nonzero;stroke:none;stroke-width:0.06355932;stroke-opacity:1"
     d="m 16.957493,1.8473103 c -0.761689,-0.010045 -1.42491,0.5861757 -1.560431,1.3259319 -0.30475,1.1709668 1.047034,2.3568703 2.16772,1.857248 C 18.302989,4.7702688 18.791074,3.9725186 18.631884,3.1953389 18.507965,2.4186192 17.736951,1.8208347 16.957493,1.8473103 Z"
     id="path22"
     inkscape:connector-curvature="0" />
  <path
     style="fill:#4d4d4d;fill-opacity:1;fill-rule:nonzero;stroke:none;stroke-width:0.06355932;stroke-opacity:1"
     d="M 19.064012,6.0514118 C 18.196618,6.7945763 16.99115,6.9568096 15.924406,6.6507564 15.471889,6.5525752 15.12068,6.1417525 14.655826,6.0840605 14.240756,6.2668933 14.04458,6.7605185 13.713443,7.0580675 11.162975,10.069658 8.576492,13.05222 6.061166,16.092915 3.413867,19.587539 3.135898,24.659878 5.352454,28.437328 c 0.779148,1.37442 1.929569,2.480674 2.959357,3.662234 0.506328,0.156793 1.079145,0.02018 1.610707,0.06551 5.213603,-0.0028 10.427205,-0.0056 15.640807,-0.0084 0.453218,-0.269198 0.736902,-0.779644 1.12496,-1.141343 1.098471,-1.159211 2.075719,-2.45725 2.655206,-3.958051 1.299859,-3.124004 1.052974,-6.816679 -0.603565,-9.76157 -0.878342,-1.545571 -2.159583,-2.807634 -3.274671,-4.178404 -0.460749,-0.503342 -0.867525,-1.072099 -1.383656,-1.516858 -0.368404,-0.01469 -0.489291,0.466987 -0.740482,0.667789 -2.015928,2.467395 -3.935506,5.033626 -6.001524,7.447693 -0.553226,0.33812 -1.383591,-0.183769 -1.206757,-0.850106 0.07546,-0.470851 0.540885,-0.763157 0.766848,-1.162339 1.925908,-2.486418 3.846375,-4.988543 5.794286,-7.450694 C 22.799146,9.8662315 22.280717,9.632619 22.111238,9.3213719 21.161619,8.2388683 20.254236,7.1029255 19.279311,6.0524704 19.212348,5.9831135 19.139293,6.033639 19.064012,6.0514118 Z"
     id="path24"
     inkscape:connector-curvature="0" />
</svg>
