<?xml version="1.0" encoding="UTF-8" standalone="no"?>
<svg
   xmlns:dc="http://purl.org/dc/elements/1.1/"
   xmlns:cc="http://creativecommons.org/ns#"
   xmlns:rdf="http://www.w3.org/1999/02/22-rdf-syntax-ns#"
   xmlns:svg="http://www.w3.org/2000/svg"
   xmlns="http://www.w3.org/2000/svg"
   xmlns:sodipodi="http://sodipodi.sourceforge.net/DTD/sodipodi-0.dtd"
   xmlns:inkscape="http://www.inkscape.org/namespaces/inkscape"
   viewBox="0 0 34 44.070072"
   x="0px"
   y="0px"
   version="1.1"
   id="svg10"
   sodipodi:docname="knight_white.svg"
   width="34"
   height="44.070072"
   inkscape:version="0.92.5 (2060ec1f9f, 2020-04-08)">
  <metadata
     id="metadata16">
    <rdf:RDF>
      <cc:Work
         rdf:about="">
        <dc:format>image/svg+xml</dc:format>
        <dc:type
           rdf:resource="http://purl.org/dc/dcmitype/StillImage" />
        <dc:title>Chess-board-piece-game-sport-knight-horse</dc:title>
      </cc:Work>
    </rdf:RDF>
  </metadata>
  <defs
     id="defs14" />
  <sodipodi:namedview
     pagecolor="#ffffff"
     bordercolor="#666666"
     borderopacity="1"
     objecttolerance="10"
     gridtolerance="10"
     guidetolerance="10"
     inkscape:pageopacity="0"
     inkscape:pageshadow="2"
     inkscape:window-width="1894"
     inkscape:window-height="1051"
     id="namedview12"
     showgrid="false"
     fit-margin-top="0"
     fit-margin-left="0"
     fit-margin-right="0"
     fit-margin-bottom="0"
     inkscape:zoom="15.733333"
     inkscape:cx="21.757544"
     inkscape:cy="20.949386"
     inkscape:window-x="26"
     inkscape:window-y="0"
     inkscape:window-maximized="1"
     inkscape:current-layer="svg10" />
  <title
     id="title2">Chess-board-piece-game-sport-knight-horse</title>
  <path
     d="m 33,37.070074 h -3 v -4 a 1,1 0 0 0 -1,-1 h -1.15 l -0.85,-5 3,-12.81 a 1,1 0 0 0 -0.21,-0.87 L 18.79,0.39007376 A 1,1 0 0 0 17,1.0700738 v 4.3 L 3.66,10.130074 a 1,1 0 0 0 -0.66,1.08 l 1,7 a 1,1 0 0 0 1.1,0.86 l 7.21,-0.72 -6,6 a 1,1 0 0 0 -0.31,0.72 v 7 H 5 a 1,1 0 0 0 -1,1 v 4 H 1 a 1,1 0 0 0 -1,1 v 5 a 1,1 0 0 0 1,1 h 32 a 1,1 0 0 0 1,-1 v -5 a 1,1 0 0 0 -1,-1 z m -25,-11.59 7.71,-7.71 a 1,1 0 0 0 -0.81,-1.7 l -9,0.9 -0.75,-5.24 13.19,-4.7200002 v 0 a 1,1 0 0 0 0.66,-0.94 v -2.27 l 8.91,10.5300002 -2.91,12.51 a 1,1 0 0 0 0,0.39 l 0.82,4.84 H 16 v -3.76 l 1.89,-3.79 a 1,1 0 1 0 -1.79,-0.89 l -2,4 a 1,1 0 0 0 -0.1,0.44 v 4 H 8 Z m -2,8.59 h 22 v 3 H 6 Z m 26,8 H 2 v -3 h 30 z"
     id="path4"
     inkscape:connector-curvature="0" />
  <path
     style="fill:#ffffff;fill-opacity:1;fill-rule:nonzero;stroke:none;stroke-width:0.06355932;stroke-opacity:1"
     d="m 1.9006679,38.982784 c -0.1413843,0.552417 -0.017587,1.158512 -0.059214,1.731122 0.033853,0.488963 -0.070657,1.005247 0.057849,1.47552 0.5524179,0.141384 1.1585123,0.01759 1.7311225,0.05921 9.4491536,0 18.8983056,0 28.3474576,0 0.376303,-0.137899 0.129141,-0.656688 0.199989,-0.9627 -0.03101,-0.756589 0.0628,-1.537823 -0.04832,-2.278595 -0.375506,-0.191314 -0.873805,-0.02869 -1.295739,-0.08241 -9.597458,0 -19.194915,0 -28.7923736,0 -0.046925,0.01928 -0.093849,0.03857 -0.140774,0.05785 z"
     id="path18"
     inkscape:connector-curvature="0" />
  <path
     style="fill:#ffffff;fill-opacity:1;fill-rule:nonzero;stroke:none;stroke-width:0.06355932;stroke-opacity:1"
     d="m 5.9049052,33.961597 c -0.1413843,0.552418 -0.017587,1.158512 -0.059215,1.731123 0.033853,0.488963 -0.070657,1.005246 0.057849,1.475519 0.5524179,0.141385 1.1585123,0.01759 1.7311225,0.05922 6.7796613,0 13.5593213,0 20.3389823,0 0.376303,-0.137899 0.129141,-0.656688 0.199988,-0.9627 -0.03101,-0.756589 0.0628,-1.537824 -0.04832,-2.278596 -0.375506,-0.191313 -0.873805,-0.02869 -1.29574,-0.08241 -6.927966,0 -13.855931,0 -20.7838973,0 -0.046925,0.01928 -0.093849,0.03857 -0.140774,0.05785 z"
     id="path20"
     inkscape:connector-curvature="0" />
  <path
     style="fill:#ffffff;fill-opacity:1;fill-rule:nonzero;stroke:none;stroke-width:0.06355932;stroke-opacity:1"
     d="m 19.062802,3.7874296 c -0.359944,0.1102145 -0.185911,0.6000379 -0.246789,0.8771683 -0.04629,0.5877541 0.08279,1.2102635 -0.09261,1.7758127 -0.305874,0.495698 -0.969351,0.5034558 -1.448333,0.7501738 -4.043541,1.4874232 -8.1058222,2.9190576 -12.1610583,4.3744206 -0.2900539,0.273458 0.018717,0.743835 -0.00468,1.097482 0.2102787,1.434998 0.3994984,2.873569 0.6335651,4.304812 0.2099354,0.319667 0.6630843,0.04121 0.974866,0.08553 2.7932526,-0.250782 5.5870592,-0.591444 8.3779132,-0.793871 0.641354,0.02699 0.990015,0.953802 0.451494,1.34567 -2.501846,2.634209 -5.118944,5.160535 -7.6726772,7.74679 -0.1352254,0.659738 -0.020415,1.369136 -0.05847,2.048173 0.016105,1.574755 -0.032259,3.162239 0.024158,4.729034 0.2070389,0.293393 0.6853559,0.07303 1.0021011,0.141199 1.7341121,-0.01609 3.4809321,0.03219 5.2070951,-0.02416 0.293392,-0.207039 0.07302,-0.685356 0.141199,-1.002101 0.01925,-1.16391 -0.03827,-2.345887 0.02835,-3.498651 0.722027,-1.407893 1.375464,-2.855807 2.167181,-4.22542 0.385843,-0.488737 1.234623,-0.304803 1.401533,0.287134 0.168059,0.418011 -0.22299,0.79296 -0.336148,1.174519 -0.515108,1.125205 -1.123351,2.211409 -1.62699,3.337944 0.01634,1.268208 -0.03239,2.549266 0.02416,3.809534 0.207039,0.293393 0.685356,0.07303 1.002101,0.141199 2.979881,0 5.959762,0 8.939643,0 0.40514,-0.149324 0.04824,-0.673876 0.0698,-0.985388 -0.215032,-1.458385 -0.557197,-2.899054 -0.677832,-4.366256 0.619894,-2.917514 1.344038,-5.825459 2.004702,-8.739731 0.275619,-1.273135 0.62217,-2.540009 0.850052,-3.81841 -0.300843,-0.538551 -0.788485,-0.982003 -1.162803,-1.480629 -2.543412,-3.0270885 -5.065751,-6.0744943 -7.673106,-9.0460509 -0.04648,-0.012751 -0.09158,-0.035621 -0.138416,-0.045932 z"
     id="path22"
     inkscape:connector-curvature="0" />
</svg>
