<?xml version="1.0" encoding="UTF-8" standalone="no"?>
<svg
   xmlns:dc="http://purl.org/dc/elements/1.1/"
   xmlns:cc="http://creativecommons.org/ns#"
   xmlns:rdf="http://www.w3.org/1999/02/22-rdf-syntax-ns#"
   xmlns:svg="http://www.w3.org/2000/svg"
   xmlns="http://www.w3.org/2000/svg"
   xmlns:sodipodi="http://sodipodi.sourceforge.net/DTD/sodipodi-0.dtd"
   xmlns:inkscape="http://www.inkscape.org/namespaces/inkscape"
   viewBox="0 0 34 44.070072"
   x="0px"
   y="0px"
   version="1.1"
   id="svg121"
   sodipodi:docname="knight_black.svg"
   width="34"
   height="44.070072"
   inkscape:version="0.92.5 (2060ec1f9f, 2020-04-08)">
  <metadata
     id="metadata127">
    <rdf:RDF>
      <cc:Work
         rdf:about="">
        <dc:format>image/svg+xml</dc:format>
        <dc:type
           rdf:resource="http://purl.org/dc/dcmitype/StillImage" />
        <dc:title>Chess-board-piece-game-sport-knight-horse</dc:title>
      </cc:Work>
    </rdf:RDF>
  </metadata>
  <defs
     id="defs125" />
  <sodipodi:namedview
     pagecolor="#ffffff"
     bordercolor="#666666"
     borderopacity="1"
     objecttolerance="10"
     gridtolerance="10"
     guidetolerance="10"
     inkscape:pageopacity="0"
     inkscape:pageshadow="2"
     inkscape:window-width="947"
     inkscape:window-height="1051"
     id="namedview123"
     showgrid="false"
     fit-margin-top="0"
     fit-margin-left="0"
     fit-margin-right="0"
     fit-margin-bottom="0"
     inkscape:zoom="11.125147"
     inkscape:cx="18.421879"
     inkscape:cy="18.911231"
     inkscape:window-x="973"
     inkscape:window-y="0"
     inkscape:window-maximized="0"
     inkscape:current-layer="svg121" />
  <title
     id="title113">Chess-board-piece-game-sport-knight-horse</title>
  <path
     d="m 33,37.070074 h -3 v -4 a 1,1 0 0 0 -1,-1 h -1.15 l -0.85,-5 3,-12.81 a 1,1 0 0 0 -0.21,-0.87 L 18.79,0.39007376 A 1,1 0 0 0 17,1.0700738 v 4.3 L 3.66,10.130074 a 1,1 0 0 0 -0.66,1.08 l 1,7 a 1,1 0 0 0 1.1,0.86 l 7.21,-0.72 -6,6 a 1,1 0 0 0 -0.31,0.72 v 7 H 5 a 1,1 0 0 0 -1,1 v 4 H 1 a 1,1 0 0 0 -1,1 v 5 a 1,1 0 0 0 1,1 h 32 a 1,1 0 0 0 1,-1 v -5 a 1,1 0 0 0 -1,-1 z m -25,-11.59 7.71,-7.71 a 1,1 0 0 0 -0.81,-1.7 l -9,0.9 -0.75,-5.24 13.19,-4.7200002 v 0 a 1,1 0 0 0 0.66,-0.94 v -2.27 l 8.91,10.5300002 -2.91,12.51 a 1,1 0 0 0 0,0.39 l 0.82,4.84 H 16 v -3.76 l 1.89,-3.79 a 1,1 0 1 0 -1.79,-0.89 l -2,4 a 1,1 0 0 0 -0.1,0.44 v 4 H 8 Z m -2,8.59 h 22 v 3 H 6 Z m 26,8 H 2 v -3 h 30 z"
     id="path115"
     inkscape:connector-curvature="0" />
  <path
     style="fill:#4d4d4d;fill-opacity:1;fill-rule:nonzero;stroke:none;stroke-width:0.08988646;stroke-opacity:1"
     d="m 19.022784,3.948025 c -0.236933,0.5573898 -0.067,1.2462099 -0.131543,1.8408817 0.03728,0.479393 -0.09374,1.057943 -0.63495,1.1734746 -4.322165,1.602238 -8.6932107,3.0812897 -13.0070266,4.7083297 -0.1588959,0.472821 0.080091,1.044979 0.076009,1.547526 0.1698645,1.215137 0.2514484,2.459225 0.5342357,3.650088 0.5264902,0.216555 1.1557685,-0.02628 1.713285,-0.01264 2.5098959,-0.198861 5.0227309,-0.588204 7.5304489,-0.667653 0.76296,-0.0043 1.134575,1.108042 0.511756,1.563533 -2.499487,2.652455 -5.167238,5.166574 -7.6840635,7.793086 0,2.17249 0,4.34498 0,6.51747 0.4367547,0.231903 1.1033693,0.03459 1.6281386,0.100068 1.4915829,-0.02626 3.0078259,0.05257 4.4839649,-0.0395 0.07813,-1.451933 -0.04176,-2.944929 0.06986,-4.386261 0.787436,-1.444151 1.408686,-2.990932 2.317227,-4.363273 0.51657,-0.592348 1.597858,-0.06717 1.476279,0.701185 -0.345253,1.291221 -1.118371,2.428373 -1.657126,3.644753 -0.556176,0.789092 -0.234604,1.784373 -0.318445,2.683112 0.02786,0.576368 -0.05481,1.178673 0.0395,1.739444 3.198524,0.02373 6.413922,0.0623 9.616446,-0.04178 0.49639,0.0091 0.08945,-0.664381 0.130616,-0.933099 -0.207269,-1.423095 -0.518586,-2.847432 -0.673258,-4.26762 0.947466,-4.165755 1.985786,-8.318575 2.856338,-12.49726 C 25.582686,11.430134 23.102881,8.5807155 20.677337,5.6942751 20.136536,5.1222409 19.684566,4.4263838 19.080367,3.9324002 Z"
     id="path129"
     inkscape:connector-curvature="0" />
  <path
     style="fill:#4d4d4d;fill-opacity:1;fill-rule:nonzero;stroke:none;stroke-width:0.08988646;stroke-opacity:1"
     d="m 5.973974,34.068941 c -0.02178,0.995657 -0.059281,2.030595 0.01896,3.016463 7.324178,0.04793 14.663038,0.0068 21.992864,0.02054 0.231903,-0.436755 0.03459,-1.10337 0.100068,-1.628139 -0.130222,-0.437171 0.293524,-1.386154 -0.279841,-1.448366 -7.250841,0 -14.501682,0 -21.752523,0 z"
     id="path131"
     inkscape:connector-curvature="0" />
  <path
     style="fill:#4d4d4d;fill-opacity:1;fill-rule:nonzero;stroke:none;stroke-width:0.08988646;stroke-opacity:1"
     d="m 1.9290835,39.012696 c -0.020599,1.0254 -0.060259,2.090763 0.01896,3.10635 8.4477585,0.04793 16.9102015,0.0068 25.3636055,0.02054 1.566388,-0.02668 3.157772,0.05314 4.708681,-0.0395 0.0206,-1.0254 0.06026,-2.090763 -0.01896,-3.106349 -8.447759,-0.04793 -16.910202,-0.0068 -25.363606,-0.02054 -1.565983,0.02663 -3.1583487,-0.05306 -4.7086809,0.0395 z"
     id="path133"
     inkscape:connector-curvature="0" />
  <path
     style="fill:#4d4d4d;fill-opacity:1;fill-rule:nonzero;stroke:none;stroke-width:0.08988646;stroke-opacity:1"
     d="m 19.051751,3.8332091 c -0.456762,0.1634052 -0.231365,0.8169863 -0.328924,1.1935582 -0.08105,0.4998596 0.07179,1.0890399 -0.185114,1.5381474 -0.900306,0.5383336 -1.96256,0.7676582 -2.928649,1.1711375 -3.482016,1.2594346 -6.9688301,2.5056708 -10.4531972,3.7585728 -0.2906681,0.364161 -0.012688,0.932972 -0.040028,1.381829 0.1751911,1.322351 0.2652943,2.672536 0.5668816,3.969224 0.4372265,0.509887 1.1958144,0.130573 1.7626622,0.178856 2.5436086,-0.178938 5.0749584,-0.565048 7.6201154,-0.652516 0.603589,-0.01423 0.922996,0.862414 0.402512,1.216204 -2.459696,2.696493 -5.097979,5.224037 -7.6680422,7.814226 -0.1347708,1.317872 -0.02334,2.685215 -0.057916,4.022769 0.043175,0.90975 -0.073588,1.848225 0.1169043,2.741537 0.3376957,0.298344 0.8917969,0.08766 1.3115903,0.165032 1.6043146,-0.01404 3.2227646,0.07922 4.8190566,-0.06641 0.52842,-0.193153 0.149836,-0.955911 0.263756,-1.39267 0.02651,-1.020233 -0.05357,-2.065649 0.04023,-3.069985 0.789918,-1.459121 1.388529,-3.043456 2.369679,-4.38866 0.482602,-0.398084 1.342127,0.288265 0.983835,0.864455 -0.507031,1.439567 -1.318875,2.746602 -1.91395,4.146013 0.04303,1.252749 -0.01292,2.527974 0.09054,3.766944 0.430852,0.26181 1.084174,0.04333 1.600622,0.114195 2.780309,-0.03059 5.567336,0.05961 8.343465,-0.09327 0.390837,-0.248603 0.05301,-0.832021 0.08428,-1.20579 -0.17325,-1.371608 -0.487426,-2.738306 -0.627681,-4.103962 0.923737,-4.079298 1.934414,-8.142001 2.79618,-12.233556 0.0322,-0.358714 -0.08839,-0.693392 -0.392902,-0.886751 -0.6511,-0.78194 -1.230132,-1.631494 -1.92815,-2.387961 C 23.605311,8.9463835 21.611051,6.408684 19.433768,4.0340491 19.327595,3.9385214 19.205722,3.8238392 19.051751,3.8332091 Z m 8.591003,10.1125769 c 0.0088,-0.01027 0.07049,-0.0066 0,0 z"
     id="path135"
     inkscape:connector-curvature="0" />
</svg>
