<?xml version="1.0" encoding="UTF-8" standalone="no"?>
<svg
   xmlns:dc="http://purl.org/dc/elements/1.1/"
   xmlns:cc="http://creativecommons.org/ns#"
   xmlns:rdf="http://www.w3.org/1999/02/22-rdf-syntax-ns#"
   xmlns:svg="http://www.w3.org/2000/svg"
   xmlns="http://www.w3.org/2000/svg"
   xmlns:sodipodi="http://sodipodi.sourceforge.net/DTD/sodipodi-0.dtd"
   xmlns:inkscape="http://www.inkscape.org/namespaces/inkscape"
   viewBox="0 0 34 42"
   x="0px"
   y="0px"
   version="1.1"
   id="svg10"
   sodipodi:docname="pawn_white.svg"
   inkscape:version="0.92.5 (2060ec1f9f, 2020-04-08)"
   width="34"
   height="42">
  <metadata
     id="metadata16">
    <rdf:RDF>
      <cc:Work
         rdf:about="">
        <dc:format>image/svg+xml</dc:format>
        <dc:type
           rdf:resource="http://purl.org/dc/dcmitype/StillImage" />
        <dc:title>Chess-board-piece-game-sport-pawn</dc:title>
      </cc:Work>
    </rdf:RDF>
  </metadata>
  <defs
     id="defs14" />
  <sodipodi:namedview
     pagecolor="#ffffff"
     bordercolor="#666666"
     borderopacity="1"
     objecttolerance="10"
     gridtolerance="10"
     guidetolerance="10"
     inkscape:pageopacity="0"
     inkscape:pageshadow="2"
     inkscape:window-width="1894"
     inkscape:window-height="1051"
     id="namedview12"
     showgrid="false"
     inkscape:zoom="7.8666667"
     inkscape:cx="24.072387"
     inkscape:cy="11.06181"
     inkscape:window-x="26"
     inkscape:window-y="0"
     inkscape:window-maximized="1"
     inkscape:current-layer="svg10"
     fit-margin-top="0"
     fit-margin-left="0"
     fit-margin-right="0"
     fit-margin-bottom="0"
     scale-x="1" />
  <title
     id="title2">Chess-board-piece-game-sport-pawn</title>
  <path
     d="M 33,35 H 30 V 31 A 1,1 0 0 0 29,30 H 27.38 C 26.38,29.08 23,25.33 23,18 v 0 a 10,10 0 1 0 -12,0 v 0 C 11,25.33 7.59,29.08 6.62,30 H 5 a 1,1 0 0 0 -1,1 v 4 H 1 a 1,1 0 0 0 -1,1 v 5 a 1,1 0 0 0 1,1 h 32 a 1,1 0 0 0 1,-1 V 36 A 1,1 0 0 0 33,35 Z M 9,10 a 8,8 0 1 1 8,8 8,8 0 0 1 -8,-8 z m 4,9.14 a 9.92,9.92 0 0 0 8.08,0 A 19,19 0 0 0 24.72,30 H 9.28 A 19,19 0 0 0 13,19.14 Z M 6,32 h 22 v 3 H 6 Z m 26,8 H 2 v -3 h 30 z"
     id="path4"
     inkscape:connector-curvature="0" />
  <path
     style="fill:#ffffff;stroke-width:0.08988646"
     d="M 15.322704,17.776223 C 11.900709,17.041765 9.336449,14.059583 9.062511,10.495745 8.876209,8.072027 10.01761,5.467493 11.979638,3.8392241 c 0.684978,-0.5684574 2.125061,-1.3044968 2.971888,-1.5189587 2.430462,-0.6155237 4.905606,-0.1258097 6.843003,1.3539071 2.134672,1.6303885 3.260328,4.0682603 3.121619,6.7605955 -0.179452,3.483142 -2.583744,6.40399 -5.980763,7.265715 -0.994152,0.252188 -2.630712,0.286498 -3.612681,0.07574 z"
     id="path3722"
     inkscape:connector-curvature="0" />
  <path
     style="fill:#ffffff;stroke-width:0.08988646"
     d="m 9.512745,29.758454 c 0.850189,-1.190158 1.688361,-2.764638 2.262341,-4.249743 0.651721,-1.686252 1.208775,-4.258519 1.210041,-5.587519 2.87e-4,-0.306067 0.03597,-0.57839 0.07929,-0.605163 0.04332,-0.02677 0.365046,0.04869 0.714951,0.167705 2.228456,0.757947 4.681441,0.725708 6.766104,-0.08892 l 0.503731,-0.196845 0.05367,0.999402 c 0.154909,2.884362 1.349206,6.469264 2.980376,8.946145 0.273765,0.415704 0.497755,0.769632 0.497755,0.786507 0,0.01687 -3.422866,0.03068 -7.606369,0.03068 H 9.368266 Z"
     id="path3724"
     inkscape:connector-curvature="0" />
  <path
     style="fill:#ffffff;stroke-width:0.08988646"
     d="m 6.0644,33.511214 v -1.483127 h 10.966147 10.966148 v 1.483127 1.483126 H 17.030547 6.0644 Z"
     id="path3726"
     inkscape:connector-curvature="0" />
  <path
     style="fill:#ffffff;stroke-width:0.08988646"
     d="m 2.019509,38.499912 v -1.438183 h 14.966095 14.966095 v 1.438183 1.438183 H 16.985604 2.019509 Z"
     id="path3728"
     inkscape:connector-curvature="0" />
</svg>
