<?xml version="1.0" encoding="UTF-8" standalone="no"?>
<svg
   xmlns:dc="http://purl.org/dc/elements/1.1/"
   xmlns:cc="http://creativecommons.org/ns#"
   xmlns:rdf="http://www.w3.org/1999/02/22-rdf-syntax-ns#"
   xmlns:svg="http://www.w3.org/2000/svg"
   xmlns="http://www.w3.org/2000/svg"
   xmlns:sodipodi="http://sodipodi.sourceforge.net/DTD/sodipodi-0.dtd"
   xmlns:inkscape="http://www.inkscape.org/namespaces/inkscape"
   viewBox="0 0 34 42"
   x="0px"
   y="0px"
   version="1.1"
   id="svg10"
   sodipodi:docname="rook_white.svg"
   width="34"
   height="42"
   inkscape:version="0.92.5 (2060ec1f9f, 2020-04-08)">
  <metadata
     id="metadata16">
    <rdf:RDF>
      <cc:Work
         rdf:about="">
        <dc:format>image/svg+xml</dc:format>
        <dc:type
           rdf:resource="http://purl.org/dc/dcmitype/StillImage" />
        <dc:title>Chess-board-piece-game-rook-sport</dc:title>
      </cc:Work>
    </rdf:RDF>
  </metadata>
  <defs
     id="defs14" />
  <sodipodi:namedview
     pagecolor="#ffffff"
     bordercolor="#666666"
     borderopacity="1"
     objecttolerance="10"
     gridtolerance="10"
     guidetolerance="10"
     inkscape:pageopacity="0"
     inkscape:pageshadow="2"
     inkscape:window-width="1894"
     inkscape:window-height="1051"
     id="namedview12"
     showgrid="false"
     fit-margin-top="0"
     fit-margin-left="0"
     fit-margin-right="0"
     fit-margin-bottom="0"
     inkscape:zoom="15.733333"
     inkscape:cx="19.675375"
     inkscape:cy="20.831756"
     inkscape:window-x="26"
     inkscape:window-y="0"
     inkscape:window-maximized="1"
     inkscape:current-layer="svg10" />
  <title
     id="title2">Chess-board-piece-game-rook-sport</title>
  <path
     d="M 33,35 H 30 V 31 A 1,1 0 0 0 29,30 H 27.67 A 50.84,50.84 0 0 1 24,14 h 5 a 1,1 0 0 0 1,-1 V 1 A 1,1 0 0 0 29,0 H 24 A 1,1 0 0 0 23,1 V 5 H 21 V 1 A 1,1 0 0 0 20,0 H 14 A 1,1 0 0 0 13,1 V 5 H 11 V 1 A 1,1 0 0 0 10,0 H 5 A 1,1 0 0 0 4,1 v 12 a 1,1 0 0 0 1,1 h 5 A 50.94,50.94 0 0 1 6.36,30 H 5 a 1,1 0 0 0 -1,1 v 4 H 1 a 1,1 0 0 0 -1,1 v 5 a 1,1 0 0 0 1,1 h 32 a 1,1 0 0 0 1,-1 V 36 A 1,1 0 0 0 33,35 Z M 6,2 h 3 v 4 a 1,1 0 0 0 1,1 h 4 A 1,1 0 0 0 15,6 V 2 h 4 v 4 a 1,1 0 0 0 1,1 h 4 A 1,1 0 0 0 25,6 V 2 h 3 V 12 H 6 Z m 6,12 h 10 a 51.46,51.46 0 0 0 3.49,16 h -17 A 51.46,51.46 0 0 0 12,14 Z M 6,32 h 22 v 3 H 6 Z m 26,8 H 2 v -3 h 30 z"
     id="path4"
     inkscape:connector-curvature="0" />
  <path
     style="fill:#ffffff;fill-opacity:1;fill-rule:nonzero;stroke:none;stroke-width:0.06355932;stroke-opacity:1"
     d="m 1.915957,36.903223 c -0.1413843,0.552418 -0.017587,1.158513 -0.059214,1.731123 0.033853,0.488963 -0.070657,1.005247 0.057849,1.47552 0.5524179,0.141384 1.1585123,0.01759 1.7311225,0.05921 9.4491525,0 18.8983045,0 28.3474575,0 0.376303,-0.137899 0.12914,-0.656688 0.199988,-0.9627 -0.03101,-0.756589 0.0628,-1.537823 -0.04832,-2.278595 -0.375506,-0.191314 -0.873805,-0.02869 -1.295739,-0.08241 -9.597458,0 -19.194915,0 -28.7923725,0 -0.046925,0.01928 -0.093849,0.03857 -0.140774,0.05785 z"
     id="path18"
     inkscape:connector-curvature="0" />
  <path
     style="fill:#ffffff;fill-opacity:1;fill-rule:nonzero;stroke:none;stroke-width:0.06355932;stroke-opacity:1"
     d="m 5.9201943,31.882037 c -0.1413843,0.552418 -0.017587,1.158512 -0.059214,1.731122 0.033853,0.488963 -0.070657,1.005247 0.057849,1.47552 0.5524179,0.141384 1.1585123,0.01759 1.7311225,0.05922 6.7796622,0 13.5593222,0 20.3389822,0 0.376303,-0.137899 0.129141,-0.656688 0.199989,-0.962701 -0.03101,-0.756589 0.0628,-1.537823 -0.04832,-2.278595 -0.375506,-0.191313 -0.873805,-0.02869 -1.295739,-0.08241 -6.927967,0 -13.855933,0 -20.7838982,0 -0.046925,0.01928 -0.093849,0.03857 -0.140774,0.05785 z"
     id="path20"
     inkscape:connector-curvature="0" />
  <path
     style="fill:#ffffff;fill-opacity:1;fill-rule:nonzero;stroke:none;stroke-width:0.06355932;stroke-opacity:1"
     d="m 11.906688,13.894749 c -0.208307,0.812374 -0.152822,1.6803 -0.270309,2.513058 -0.4966,4.596323 -1.594292,9.125159 -3.2625714,13.432883 -0.013558,0.401368 0.5228064,0.284494 0.781931,0.321596 5.0482294,0.04885 10.0973254,0.03183 15.1457534,0.01092 0.409239,-0.04966 0.879169,0.07188 1.252077,-0.129795 0.170878,-0.303659 -0.185763,-0.629108 -0.225403,-0.938932 -1.572012,-4.215801 -2.562803,-8.644158 -3.008084,-13.119688 -0.100078,-0.667834 -0.01814,-1.390274 -0.211198,-2.040631 -0.284692,-0.233725 -0.756047,-0.04757 -1.113958,-0.107259 -2.982488,0 -5.964976,0 -8.947464,0 -0.04692,0.01928 -0.09385,0.03857 -0.140774,0.05785 z"
     id="path22"
     inkscape:connector-curvature="0" />
  <path
     style="fill:#ffffff;fill-opacity:1;fill-rule:nonzero;stroke:none;stroke-width:0.06355932;stroke-opacity:1"
     d="m 5.9201943,1.8820368 c -0.1413843,0.552418 -0.017587,1.1585123 -0.059214,1.7311226 0,2.7754238 0,5.5508472 0,8.3262716 0.1378991,0.376303 0.6566879,0.12914 0.9627002,0.199988 7.0550845,0 14.1101695,0 21.1652535,0 0.376303,-0.137899 0.129141,-0.656688 0.199989,-0.9627 0,-3.0508477 0,-6.1016952 0,-9.1525427 -0.137899,-0.3763028 -0.656688,-0.1291406 -0.9627,-0.1999884 -0.777591,0.031945 -1.580512,-0.064394 -2.342155,0.048317 -0.191313,0.375506 -0.02869,0.8738049 -0.08241,1.2957392 -0.03982,1.0798152 0.0868,2.1744864 -0.09075,3.2335806 -0.180188,0.3420712 -0.568362,0.4848549 -0.942714,0.41177 -1.351943,-0.02765 -2.716063,0.055897 -4.057865,-0.04829 C 19.150968,6.572704 19.15385,5.889435 19.168092,5.4005215 19.143655,4.2570014 19.197269,3.1009371 19.139341,1.9653873 18.932302,1.6719947 18.453985,1.8923611 18.137239,1.8241879 c -1.054575,0.016078 -2.121852,-0.032178 -3.168478,0.024158 -0.292511,0.2064462 -0.07772,0.6841861 -0.148126,1.0003342 -0.0097,1.1548363 -0.01938,2.3096725 -0.02907,3.4645086 C 14.627427,6.6804453 14.251048,6.8325707 13.866479,6.815208 12.537299,6.847191 11.189248,6.881987 9.8560348,6.800932 9.5409425,6.7270995 9.2056319,6.5249522 9.2446448,6.1439873 9.1547496,4.7538967 9.2379246,3.3472435 9.1552943,1.9639879 8.9463912,1.6730938 8.470461,1.8919618 8.1537086,1.8241879 7.4150345,1.8606868 6.6388466,1.7498351 5.9201943,1.8820368 Z"
     id="path24"
     inkscape:connector-curvature="0" />
</svg>
