G04 EAGLE Gerber RS-274X export*
G75*
%MOMM*%
%FSLAX34Y34*%
%LPD*%
%INBottom Copper Layer*%
%IPPOS*%
%AMOC8*
5,1,8,0,0,1.08239X$1,22.5*%
G01*
%ADD10C,1.600000*%
%ADD11C,1.778000*%
%ADD12C,1.879600*%
%ADD13C,1.524000*%
%ADD14C,1.508000*%
%ADD15C,3.216000*%
%ADD16C,2.100000*%
%ADD17C,0.508000*%

G36*
X779957Y7945D02*
X779957Y7945D01*
X780002Y7943D01*
X780078Y7965D01*
X780156Y7978D01*
X780195Y7999D01*
X780238Y8011D01*
X780303Y8056D01*
X780373Y8093D01*
X780404Y8125D01*
X780441Y8151D01*
X780488Y8214D01*
X780542Y8271D01*
X780561Y8312D01*
X780588Y8348D01*
X780613Y8423D01*
X780646Y8494D01*
X780651Y8539D01*
X780665Y8581D01*
X780664Y8660D01*
X780673Y8739D01*
X780664Y8783D01*
X780663Y8827D01*
X780638Y8902D01*
X780621Y8979D01*
X780598Y9018D01*
X780583Y9060D01*
X780503Y9177D01*
X780495Y9190D01*
X780492Y9193D01*
X780488Y9198D01*
X775689Y14736D01*
X770164Y26835D01*
X768271Y40000D01*
X770164Y53165D01*
X775689Y65264D01*
X784216Y75104D01*
X784239Y75142D01*
X784270Y75174D01*
X784303Y75246D01*
X784344Y75313D01*
X784355Y75357D01*
X784373Y75397D01*
X784382Y75475D01*
X784400Y75553D01*
X784396Y75597D01*
X784400Y75641D01*
X784384Y75719D01*
X784376Y75797D01*
X784358Y75838D01*
X784348Y75882D01*
X784308Y75950D01*
X784275Y76022D01*
X784245Y76055D01*
X784222Y76093D01*
X784162Y76144D01*
X784108Y76202D01*
X784069Y76224D01*
X784035Y76253D01*
X783962Y76282D01*
X783892Y76320D01*
X783848Y76328D01*
X783807Y76345D01*
X783666Y76360D01*
X783650Y76363D01*
X783646Y76363D01*
X783640Y76363D01*
X778282Y76363D01*
X775108Y77678D01*
X772571Y80215D01*
X762678Y90108D01*
X761363Y93282D01*
X761363Y96107D01*
X761349Y96197D01*
X761341Y96288D01*
X761329Y96318D01*
X761324Y96350D01*
X761281Y96430D01*
X761245Y96515D01*
X761219Y96547D01*
X761208Y96567D01*
X761185Y96589D01*
X761140Y96645D01*
X760440Y97345D01*
X760424Y97357D01*
X760412Y97373D01*
X760325Y97429D01*
X760241Y97489D01*
X760222Y97495D01*
X760205Y97506D01*
X760104Y97531D01*
X760006Y97561D01*
X759986Y97561D01*
X759966Y97566D01*
X759863Y97558D01*
X759760Y97555D01*
X759741Y97548D01*
X759721Y97547D01*
X759626Y97506D01*
X759529Y97471D01*
X759513Y97458D01*
X759495Y97450D01*
X759364Y97345D01*
X758590Y96572D01*
X753548Y94483D01*
X732852Y94483D01*
X727810Y96572D01*
X725041Y99340D01*
X724967Y99393D01*
X724898Y99453D01*
X724868Y99465D01*
X724842Y99484D01*
X724755Y99511D01*
X724670Y99545D01*
X724629Y99549D01*
X724606Y99556D01*
X724574Y99555D01*
X724503Y99563D01*
X707358Y99563D01*
X707338Y99560D01*
X707319Y99562D01*
X707217Y99540D01*
X707115Y99524D01*
X707098Y99514D01*
X707078Y99510D01*
X706989Y99457D01*
X706898Y99408D01*
X706884Y99394D01*
X706867Y99384D01*
X706800Y99305D01*
X706728Y99230D01*
X706720Y99212D01*
X706707Y99197D01*
X706668Y99101D01*
X706625Y99007D01*
X706623Y98987D01*
X706615Y98969D01*
X706597Y98802D01*
X706597Y97359D01*
X704070Y91259D01*
X699401Y86590D01*
X693301Y84063D01*
X686699Y84063D01*
X680599Y86590D01*
X675930Y91259D01*
X675808Y91553D01*
X675747Y91652D01*
X675686Y91753D01*
X675682Y91757D01*
X675678Y91762D01*
X675589Y91836D01*
X675500Y91913D01*
X675494Y91915D01*
X675489Y91919D01*
X675381Y91961D01*
X675271Y92005D01*
X675264Y92006D01*
X675259Y92007D01*
X675241Y92008D01*
X675105Y92023D01*
X282622Y92023D01*
X279448Y93338D01*
X180538Y192248D01*
X180522Y192259D01*
X180510Y192275D01*
X180422Y192331D01*
X180339Y192391D01*
X180320Y192397D01*
X180303Y192408D01*
X180202Y192433D01*
X180103Y192463D01*
X180084Y192463D01*
X180064Y192468D01*
X179961Y192460D01*
X179858Y192457D01*
X179839Y192450D01*
X179819Y192449D01*
X179724Y192408D01*
X179627Y192373D01*
X179611Y192360D01*
X179593Y192352D01*
X179462Y192248D01*
X171820Y184605D01*
X171767Y184532D01*
X171707Y184462D01*
X171695Y184432D01*
X171676Y184406D01*
X171649Y184319D01*
X171615Y184234D01*
X171611Y184193D01*
X171604Y184171D01*
X171605Y184138D01*
X171597Y184067D01*
X171597Y179696D01*
X169451Y174515D01*
X165485Y170549D01*
X160304Y168403D01*
X155933Y168403D01*
X155843Y168389D01*
X155752Y168381D01*
X155722Y168369D01*
X155690Y168364D01*
X155609Y168321D01*
X155525Y168285D01*
X155493Y168259D01*
X155473Y168248D01*
X155450Y168225D01*
X155395Y168180D01*
X133860Y146645D01*
X133807Y146572D01*
X133747Y146502D01*
X133735Y146472D01*
X133716Y146446D01*
X133689Y146359D01*
X133655Y146274D01*
X133651Y146233D01*
X133644Y146211D01*
X133645Y146178D01*
X133637Y146107D01*
X133637Y123893D01*
X133651Y123803D01*
X133659Y123712D01*
X133671Y123682D01*
X133676Y123650D01*
X133719Y123569D01*
X133755Y123485D01*
X133781Y123453D01*
X133792Y123433D01*
X133815Y123410D01*
X133860Y123355D01*
X155395Y101820D01*
X155468Y101767D01*
X155538Y101707D01*
X155568Y101695D01*
X155594Y101676D01*
X155681Y101649D01*
X155766Y101615D01*
X155807Y101611D01*
X155829Y101604D01*
X155862Y101605D01*
X155933Y101597D01*
X160304Y101597D01*
X165485Y99451D01*
X169451Y95485D01*
X171597Y90304D01*
X171597Y84696D01*
X169451Y79515D01*
X165485Y75549D01*
X160304Y73403D01*
X154696Y73403D01*
X149515Y75549D01*
X145549Y79515D01*
X143403Y84696D01*
X143403Y89067D01*
X143389Y89157D01*
X143381Y89248D01*
X143369Y89278D01*
X143364Y89310D01*
X143321Y89391D01*
X143285Y89475D01*
X143259Y89507D01*
X143248Y89527D01*
X143225Y89550D01*
X143180Y89605D01*
X117678Y115108D01*
X116363Y118282D01*
X116363Y151718D01*
X117678Y154892D01*
X143180Y180395D01*
X143233Y180468D01*
X143293Y180538D01*
X143305Y180568D01*
X143324Y180594D01*
X143351Y180681D01*
X143385Y180766D01*
X143389Y180807D01*
X143396Y180829D01*
X143395Y180862D01*
X143403Y180933D01*
X143403Y184067D01*
X143389Y184157D01*
X143381Y184248D01*
X143369Y184278D01*
X143364Y184310D01*
X143321Y184391D01*
X143285Y184475D01*
X143259Y184507D01*
X143248Y184527D01*
X143225Y184550D01*
X143180Y184605D01*
X117678Y210108D01*
X116363Y213282D01*
X116363Y246718D01*
X117678Y249892D01*
X143180Y275395D01*
X143228Y275460D01*
X143237Y275470D01*
X143239Y275475D01*
X143293Y275538D01*
X143305Y275568D01*
X143324Y275594D01*
X143351Y275681D01*
X143385Y275766D01*
X143389Y275807D01*
X143396Y275829D01*
X143395Y275862D01*
X143403Y275933D01*
X143403Y279067D01*
X143389Y279157D01*
X143381Y279248D01*
X143369Y279278D01*
X143364Y279310D01*
X143321Y279391D01*
X143285Y279475D01*
X143259Y279507D01*
X143248Y279527D01*
X143225Y279550D01*
X143180Y279605D01*
X117678Y305108D01*
X116363Y308282D01*
X116363Y341718D01*
X117678Y344892D01*
X143180Y370395D01*
X143233Y370468D01*
X143293Y370538D01*
X143305Y370568D01*
X143324Y370594D01*
X143351Y370681D01*
X143385Y370766D01*
X143389Y370807D01*
X143396Y370829D01*
X143395Y370862D01*
X143403Y370933D01*
X143403Y374067D01*
X143389Y374157D01*
X143381Y374248D01*
X143369Y374278D01*
X143364Y374310D01*
X143321Y374391D01*
X143285Y374475D01*
X143259Y374507D01*
X143248Y374527D01*
X143225Y374550D01*
X143180Y374605D01*
X117678Y400108D01*
X116363Y403282D01*
X116363Y436718D01*
X117678Y439892D01*
X143180Y465395D01*
X143233Y465468D01*
X143293Y465538D01*
X143305Y465568D01*
X143324Y465594D01*
X143351Y465681D01*
X143385Y465766D01*
X143389Y465807D01*
X143396Y465829D01*
X143395Y465862D01*
X143403Y465933D01*
X143403Y469067D01*
X143389Y469157D01*
X143381Y469248D01*
X143369Y469278D01*
X143364Y469310D01*
X143321Y469391D01*
X143285Y469475D01*
X143259Y469507D01*
X143248Y469527D01*
X143225Y469550D01*
X143180Y469605D01*
X112678Y500108D01*
X111363Y503282D01*
X111363Y526718D01*
X112678Y529892D01*
X118360Y535574D01*
X118428Y535669D01*
X118498Y535763D01*
X118500Y535769D01*
X118504Y535774D01*
X118538Y535885D01*
X118574Y535997D01*
X118574Y536003D01*
X118576Y536009D01*
X118573Y536126D01*
X118572Y536243D01*
X118570Y536250D01*
X118570Y536255D01*
X118563Y536273D01*
X118525Y536404D01*
X118403Y536699D01*
X118403Y543301D01*
X120930Y549401D01*
X125599Y554070D01*
X131699Y556597D01*
X138301Y556597D01*
X144401Y554070D01*
X149070Y549401D01*
X149192Y549107D01*
X149253Y549008D01*
X149314Y548907D01*
X149318Y548903D01*
X149322Y548898D01*
X149411Y548824D01*
X149500Y548747D01*
X149506Y548745D01*
X149511Y548741D01*
X149619Y548699D01*
X149729Y548655D01*
X149736Y548654D01*
X149741Y548653D01*
X149759Y548652D01*
X149895Y548637D01*
X256054Y548637D01*
X256125Y548648D01*
X256197Y548650D01*
X256246Y548668D01*
X256297Y548676D01*
X256360Y548710D01*
X256428Y548735D01*
X256468Y548767D01*
X256514Y548792D01*
X256564Y548844D01*
X256620Y548888D01*
X256648Y548932D01*
X256684Y548970D01*
X256714Y549035D01*
X256753Y549095D01*
X256765Y549146D01*
X256787Y549193D01*
X256795Y549264D01*
X256813Y549334D01*
X256809Y549386D01*
X256814Y549437D01*
X256799Y549508D01*
X256794Y549579D01*
X256773Y549627D01*
X256762Y549678D01*
X256725Y549739D01*
X256697Y549805D01*
X256652Y549861D01*
X256636Y549889D01*
X256618Y549904D01*
X256592Y549936D01*
X255930Y550599D01*
X253403Y556699D01*
X253403Y563301D01*
X255930Y569401D01*
X260599Y574070D01*
X266699Y576597D01*
X273301Y576597D01*
X273596Y576475D01*
X273709Y576448D01*
X273823Y576419D01*
X273829Y576420D01*
X273835Y576419D01*
X273952Y576429D01*
X274068Y576439D01*
X274074Y576441D01*
X274080Y576442D01*
X274188Y576489D01*
X274295Y576535D01*
X274300Y576540D01*
X274305Y576542D01*
X274319Y576554D01*
X274426Y576640D01*
X276096Y578310D01*
X276164Y578405D01*
X276234Y578499D01*
X276236Y578505D01*
X276239Y578510D01*
X276274Y578621D01*
X276310Y578733D01*
X276310Y578739D01*
X276312Y578745D01*
X276309Y578862D01*
X276308Y578979D01*
X276306Y578986D01*
X276305Y578991D01*
X276299Y579008D01*
X276261Y579140D01*
X275883Y580052D01*
X275883Y600748D01*
X277972Y605790D01*
X281830Y609648D01*
X286872Y611737D01*
X292328Y611737D01*
X297370Y609648D01*
X301228Y605790D01*
X301597Y604901D01*
X301634Y604840D01*
X301664Y604775D01*
X301699Y604736D01*
X301726Y604692D01*
X301782Y604646D01*
X301830Y604593D01*
X301876Y604568D01*
X301916Y604535D01*
X301983Y604509D01*
X302046Y604475D01*
X302097Y604466D01*
X302145Y604447D01*
X302217Y604444D01*
X302288Y604431D01*
X302339Y604439D01*
X302391Y604437D01*
X302460Y604456D01*
X302531Y604467D01*
X302577Y604491D01*
X302627Y604505D01*
X302686Y604546D01*
X302750Y604578D01*
X302787Y604616D01*
X302829Y604645D01*
X302872Y604703D01*
X302922Y604754D01*
X302957Y604817D01*
X302976Y604843D01*
X302984Y604865D01*
X303003Y604901D01*
X303372Y605790D01*
X307230Y609648D01*
X312272Y611737D01*
X317728Y611737D01*
X322770Y609648D01*
X326628Y605790D01*
X326997Y604901D01*
X327034Y604840D01*
X327064Y604775D01*
X327099Y604736D01*
X327126Y604692D01*
X327182Y604646D01*
X327230Y604593D01*
X327276Y604568D01*
X327316Y604535D01*
X327383Y604509D01*
X327446Y604475D01*
X327497Y604466D01*
X327545Y604447D01*
X327617Y604444D01*
X327688Y604431D01*
X327739Y604439D01*
X327791Y604437D01*
X327860Y604456D01*
X327931Y604467D01*
X327977Y604491D01*
X328027Y604505D01*
X328086Y604546D01*
X328150Y604578D01*
X328187Y604616D01*
X328229Y604645D01*
X328272Y604703D01*
X328322Y604754D01*
X328357Y604817D01*
X328376Y604843D01*
X328384Y604865D01*
X328403Y604901D01*
X328772Y605790D01*
X332630Y609648D01*
X337672Y611737D01*
X343128Y611737D01*
X348170Y609648D01*
X352028Y605790D01*
X354117Y600748D01*
X354117Y580052D01*
X352028Y575010D01*
X349260Y572241D01*
X349207Y572167D01*
X349147Y572098D01*
X349135Y572068D01*
X349116Y572042D01*
X349089Y571955D01*
X349055Y571870D01*
X349051Y571829D01*
X349044Y571806D01*
X349045Y571774D01*
X349037Y571703D01*
X349037Y538682D01*
X347722Y535508D01*
X323860Y511645D01*
X323815Y511584D01*
X323786Y511553D01*
X323780Y511541D01*
X323747Y511502D01*
X323735Y511472D01*
X323716Y511446D01*
X323689Y511359D01*
X323655Y511274D01*
X323651Y511233D01*
X323644Y511211D01*
X323645Y511178D01*
X323637Y511107D01*
X323637Y354895D01*
X323655Y354781D01*
X323673Y354664D01*
X323675Y354659D01*
X323676Y354653D01*
X323731Y354550D01*
X323784Y354445D01*
X323789Y354441D01*
X323792Y354435D01*
X323876Y354355D01*
X323960Y354273D01*
X323966Y354269D01*
X323970Y354266D01*
X323987Y354258D01*
X324107Y354192D01*
X324401Y354070D01*
X329070Y349401D01*
X331597Y343301D01*
X331597Y336699D01*
X329070Y330599D01*
X324401Y325930D01*
X318301Y323403D01*
X311699Y323403D01*
X305599Y325930D01*
X300930Y330599D01*
X298403Y336699D01*
X298403Y343301D01*
X300930Y349401D01*
X305599Y354070D01*
X305893Y354192D01*
X305992Y354253D01*
X306093Y354314D01*
X306097Y354318D01*
X306102Y354322D01*
X306176Y354411D01*
X306253Y354500D01*
X306255Y354506D01*
X306259Y354511D01*
X306301Y354619D01*
X306345Y354729D01*
X306346Y354736D01*
X306347Y354741D01*
X306348Y354759D01*
X306363Y354895D01*
X306363Y516718D01*
X307678Y519892D01*
X331540Y543755D01*
X331593Y543828D01*
X331653Y543898D01*
X331665Y543928D01*
X331684Y543954D01*
X331711Y544041D01*
X331745Y544126D01*
X331749Y544167D01*
X331756Y544189D01*
X331755Y544222D01*
X331763Y544293D01*
X331763Y571703D01*
X331749Y571793D01*
X331741Y571884D01*
X331729Y571914D01*
X331724Y571946D01*
X331681Y572026D01*
X331645Y572110D01*
X331619Y572142D01*
X331608Y572163D01*
X331585Y572185D01*
X331540Y572241D01*
X328772Y575010D01*
X328403Y575899D01*
X328366Y575960D01*
X328336Y576025D01*
X328301Y576064D01*
X328274Y576108D01*
X328219Y576154D01*
X328170Y576207D01*
X328124Y576232D01*
X328084Y576265D01*
X328017Y576291D01*
X327954Y576325D01*
X327903Y576334D01*
X327855Y576353D01*
X327783Y576356D01*
X327712Y576369D01*
X327661Y576361D01*
X327609Y576363D01*
X327540Y576344D01*
X327469Y576333D01*
X327423Y576309D01*
X327373Y576295D01*
X327314Y576254D01*
X327250Y576222D01*
X327213Y576184D01*
X327171Y576155D01*
X327128Y576097D01*
X327078Y576046D01*
X327043Y575983D01*
X327024Y575957D01*
X327017Y575935D01*
X326997Y575899D01*
X326628Y575010D01*
X323860Y572241D01*
X323807Y572167D01*
X323747Y572098D01*
X323735Y572068D01*
X323716Y572042D01*
X323689Y571955D01*
X323655Y571870D01*
X323651Y571829D01*
X323644Y571806D01*
X323645Y571774D01*
X323637Y571703D01*
X323637Y548282D01*
X322322Y545108D01*
X309892Y532678D01*
X306718Y531363D01*
X149895Y531363D01*
X149781Y531345D01*
X149664Y531327D01*
X149659Y531325D01*
X149653Y531324D01*
X149550Y531269D01*
X149445Y531216D01*
X149441Y531211D01*
X149435Y531208D01*
X149355Y531124D01*
X149273Y531040D01*
X149269Y531034D01*
X149266Y531030D01*
X149258Y531013D01*
X149192Y530893D01*
X149070Y530599D01*
X144401Y525930D01*
X138301Y523403D01*
X131699Y523403D01*
X131404Y523525D01*
X131291Y523552D01*
X131177Y523581D01*
X131171Y523580D01*
X131165Y523581D01*
X131048Y523571D01*
X130932Y523561D01*
X130926Y523559D01*
X130920Y523558D01*
X130813Y523511D01*
X130705Y523465D01*
X130700Y523460D01*
X130695Y523458D01*
X130681Y523446D01*
X130574Y523360D01*
X128860Y521645D01*
X128807Y521571D01*
X128747Y521502D01*
X128735Y521472D01*
X128716Y521446D01*
X128689Y521359D01*
X128655Y521274D01*
X128651Y521233D01*
X128644Y521211D01*
X128645Y521178D01*
X128637Y521107D01*
X128637Y508893D01*
X128651Y508803D01*
X128659Y508712D01*
X128671Y508682D01*
X128676Y508650D01*
X128719Y508569D01*
X128755Y508485D01*
X128781Y508453D01*
X128792Y508433D01*
X128815Y508410D01*
X128860Y508355D01*
X155395Y481820D01*
X155468Y481767D01*
X155538Y481707D01*
X155568Y481695D01*
X155594Y481676D01*
X155681Y481649D01*
X155766Y481615D01*
X155807Y481611D01*
X155829Y481604D01*
X155862Y481605D01*
X155933Y481597D01*
X160304Y481597D01*
X165485Y479451D01*
X169451Y475485D01*
X171597Y470304D01*
X171597Y464696D01*
X169451Y459515D01*
X165485Y455549D01*
X160304Y453403D01*
X155933Y453403D01*
X155843Y453389D01*
X155752Y453381D01*
X155722Y453369D01*
X155690Y453364D01*
X155609Y453321D01*
X155525Y453285D01*
X155493Y453259D01*
X155473Y453248D01*
X155450Y453225D01*
X155395Y453180D01*
X133860Y431645D01*
X133807Y431572D01*
X133747Y431502D01*
X133735Y431472D01*
X133716Y431446D01*
X133689Y431359D01*
X133655Y431274D01*
X133651Y431233D01*
X133644Y431211D01*
X133645Y431178D01*
X133637Y431107D01*
X133637Y408893D01*
X133651Y408803D01*
X133659Y408712D01*
X133671Y408682D01*
X133676Y408650D01*
X133719Y408569D01*
X133755Y408485D01*
X133781Y408453D01*
X133792Y408433D01*
X133815Y408410D01*
X133860Y408355D01*
X155395Y386820D01*
X155468Y386767D01*
X155538Y386707D01*
X155568Y386695D01*
X155594Y386676D01*
X155681Y386649D01*
X155766Y386615D01*
X155807Y386611D01*
X155829Y386604D01*
X155862Y386605D01*
X155933Y386597D01*
X160304Y386597D01*
X165485Y384451D01*
X169451Y380485D01*
X171597Y375304D01*
X171597Y369696D01*
X169451Y364515D01*
X165485Y360549D01*
X160304Y358403D01*
X155933Y358403D01*
X155843Y358389D01*
X155752Y358381D01*
X155722Y358369D01*
X155690Y358364D01*
X155609Y358321D01*
X155525Y358285D01*
X155493Y358259D01*
X155473Y358248D01*
X155450Y358225D01*
X155395Y358180D01*
X133860Y336645D01*
X133807Y336572D01*
X133747Y336502D01*
X133735Y336472D01*
X133716Y336446D01*
X133689Y336359D01*
X133655Y336274D01*
X133651Y336233D01*
X133644Y336211D01*
X133645Y336178D01*
X133637Y336107D01*
X133637Y313893D01*
X133651Y313803D01*
X133659Y313712D01*
X133671Y313682D01*
X133676Y313650D01*
X133719Y313569D01*
X133755Y313485D01*
X133781Y313453D01*
X133792Y313433D01*
X133815Y313410D01*
X133860Y313355D01*
X155395Y291820D01*
X155468Y291767D01*
X155538Y291707D01*
X155568Y291695D01*
X155594Y291676D01*
X155681Y291649D01*
X155766Y291615D01*
X155807Y291611D01*
X155829Y291604D01*
X155862Y291605D01*
X155933Y291597D01*
X160304Y291597D01*
X165485Y289451D01*
X166076Y288860D01*
X166150Y288806D01*
X166219Y288747D01*
X166250Y288735D01*
X166276Y288716D01*
X166363Y288689D01*
X166448Y288655D01*
X166489Y288651D01*
X166511Y288644D01*
X166543Y288645D01*
X166614Y288637D01*
X170105Y288637D01*
X170219Y288655D01*
X170336Y288673D01*
X170341Y288675D01*
X170347Y288676D01*
X170450Y288731D01*
X170555Y288784D01*
X170559Y288789D01*
X170565Y288792D01*
X170645Y288876D01*
X170727Y288960D01*
X170731Y288966D01*
X170734Y288970D01*
X170742Y288987D01*
X170808Y289107D01*
X170930Y289401D01*
X175599Y294070D01*
X181699Y296597D01*
X188301Y296597D01*
X194401Y294070D01*
X199070Y289401D01*
X201597Y283301D01*
X201597Y276699D01*
X199070Y270599D01*
X194401Y265930D01*
X188301Y263403D01*
X181699Y263403D01*
X175599Y265930D01*
X171007Y270522D01*
X170970Y270548D01*
X170939Y270582D01*
X170870Y270620D01*
X170807Y270665D01*
X170763Y270679D01*
X170723Y270701D01*
X170646Y270715D01*
X170572Y270738D01*
X170526Y270736D01*
X170481Y270745D01*
X170404Y270733D01*
X170326Y270731D01*
X170283Y270715D01*
X170238Y270709D01*
X170168Y270674D01*
X170095Y270647D01*
X170059Y270618D01*
X170018Y270597D01*
X169964Y270542D01*
X169903Y270493D01*
X169878Y270454D01*
X169846Y270422D01*
X169780Y270302D01*
X169770Y270286D01*
X169769Y270281D01*
X169765Y270275D01*
X169451Y269515D01*
X165485Y265549D01*
X160304Y263403D01*
X155933Y263403D01*
X155843Y263389D01*
X155752Y263381D01*
X155722Y263369D01*
X155690Y263364D01*
X155609Y263321D01*
X155525Y263285D01*
X155493Y263259D01*
X155473Y263248D01*
X155450Y263225D01*
X155395Y263180D01*
X133860Y241645D01*
X133807Y241572D01*
X133747Y241502D01*
X133735Y241472D01*
X133716Y241446D01*
X133689Y241359D01*
X133655Y241274D01*
X133651Y241233D01*
X133644Y241211D01*
X133645Y241178D01*
X133637Y241107D01*
X133637Y218893D01*
X133651Y218803D01*
X133659Y218712D01*
X133671Y218682D01*
X133676Y218650D01*
X133719Y218569D01*
X133755Y218485D01*
X133781Y218453D01*
X133792Y218433D01*
X133815Y218410D01*
X133860Y218355D01*
X155395Y196820D01*
X155468Y196767D01*
X155538Y196707D01*
X155568Y196695D01*
X155594Y196676D01*
X155681Y196649D01*
X155766Y196615D01*
X155807Y196611D01*
X155829Y196604D01*
X155862Y196605D01*
X155933Y196597D01*
X159067Y196597D01*
X159157Y196611D01*
X159248Y196619D01*
X159278Y196631D01*
X159310Y196636D01*
X159391Y196679D01*
X159475Y196715D01*
X159507Y196741D01*
X159527Y196752D01*
X159550Y196775D01*
X159605Y196820D01*
X175108Y212322D01*
X178011Y213524D01*
X178072Y213562D01*
X178137Y213591D01*
X178175Y213626D01*
X178220Y213654D01*
X178265Y213709D01*
X178318Y213758D01*
X178343Y213803D01*
X178377Y213843D01*
X178402Y213910D01*
X178437Y213973D01*
X178446Y214024D01*
X178465Y214073D01*
X178468Y214145D01*
X178480Y214215D01*
X178473Y214267D01*
X178475Y214319D01*
X178455Y214388D01*
X178445Y214459D01*
X178421Y214505D01*
X178407Y214555D01*
X178366Y214614D01*
X178333Y214678D01*
X178296Y214714D01*
X178266Y214757D01*
X178209Y214800D01*
X178158Y214850D01*
X178096Y214884D01*
X178092Y214888D01*
X178089Y214889D01*
X178069Y214904D01*
X178047Y214911D01*
X178011Y214931D01*
X175599Y215930D01*
X172888Y218640D01*
X172814Y218693D01*
X172745Y218753D01*
X172715Y218765D01*
X172689Y218784D01*
X172602Y218811D01*
X172517Y218845D01*
X172476Y218849D01*
X172454Y218856D01*
X172421Y218855D01*
X172350Y218863D01*
X169114Y218863D01*
X169024Y218849D01*
X168933Y218841D01*
X168904Y218829D01*
X168872Y218824D01*
X168791Y218781D01*
X168707Y218745D01*
X168675Y218719D01*
X168654Y218708D01*
X168632Y218685D01*
X168576Y218640D01*
X165485Y215549D01*
X160304Y213403D01*
X154696Y213403D01*
X149515Y215549D01*
X145549Y219515D01*
X143403Y224696D01*
X143403Y230304D01*
X145549Y235485D01*
X149515Y239451D01*
X154696Y241597D01*
X160304Y241597D01*
X165485Y239451D01*
X168544Y236392D01*
X168581Y236365D01*
X168612Y236331D01*
X168681Y236294D01*
X168744Y236248D01*
X168788Y236235D01*
X168828Y236213D01*
X168905Y236199D01*
X168979Y236176D01*
X169025Y236177D01*
X169070Y236169D01*
X169147Y236180D01*
X169225Y236182D01*
X169268Y236198D01*
X169313Y236205D01*
X169383Y236240D01*
X169456Y236267D01*
X169492Y236295D01*
X169533Y236316D01*
X169587Y236372D01*
X169648Y236420D01*
X169673Y236459D01*
X169705Y236492D01*
X169771Y236612D01*
X169781Y236627D01*
X169782Y236632D01*
X169786Y236639D01*
X170930Y239401D01*
X175599Y244070D01*
X181699Y246597D01*
X188301Y246597D01*
X194401Y244070D01*
X199070Y239401D01*
X201597Y233301D01*
X201597Y226699D01*
X199070Y220599D01*
X194401Y215930D01*
X188301Y213403D01*
X185649Y213403D01*
X185578Y213392D01*
X185506Y213390D01*
X185457Y213372D01*
X185406Y213364D01*
X185343Y213330D01*
X185275Y213305D01*
X185235Y213273D01*
X185189Y213248D01*
X185139Y213196D01*
X185083Y213152D01*
X185055Y213108D01*
X185019Y213070D01*
X184989Y213005D01*
X184950Y212945D01*
X184938Y212894D01*
X184916Y212847D01*
X184908Y212776D01*
X184890Y212706D01*
X184894Y212654D01*
X184889Y212603D01*
X184904Y212532D01*
X184909Y212461D01*
X184930Y212413D01*
X184941Y212362D01*
X184978Y212301D01*
X185006Y212235D01*
X185050Y212179D01*
X185067Y212151D01*
X185085Y212136D01*
X185110Y212104D01*
X287695Y109520D01*
X287768Y109467D01*
X287838Y109407D01*
X287868Y109395D01*
X287894Y109376D01*
X287981Y109349D01*
X288066Y109315D01*
X288107Y109311D01*
X288129Y109304D01*
X288162Y109305D01*
X288233Y109297D01*
X675105Y109297D01*
X675219Y109315D01*
X675336Y109333D01*
X675341Y109335D01*
X675347Y109336D01*
X675450Y109391D01*
X675555Y109444D01*
X675559Y109449D01*
X675565Y109452D01*
X675645Y109536D01*
X675727Y109620D01*
X675731Y109626D01*
X675734Y109630D01*
X675742Y109647D01*
X675808Y109767D01*
X675930Y110061D01*
X680599Y114730D01*
X683565Y115959D01*
X683648Y116010D01*
X683734Y116056D01*
X683752Y116074D01*
X683774Y116088D01*
X683836Y116164D01*
X683903Y116234D01*
X683914Y116258D01*
X683931Y116278D01*
X683966Y116369D01*
X684007Y116457D01*
X684010Y116483D01*
X684019Y116507D01*
X684023Y116605D01*
X684034Y116701D01*
X684028Y116727D01*
X684030Y116753D01*
X684002Y116847D01*
X683982Y116942D01*
X683968Y116964D01*
X683961Y116989D01*
X683905Y117069D01*
X683856Y117153D01*
X683836Y117170D01*
X683821Y117191D01*
X683743Y117250D01*
X683669Y117313D01*
X683644Y117323D01*
X683623Y117338D01*
X683531Y117368D01*
X683440Y117405D01*
X683408Y117408D01*
X683389Y117414D01*
X683356Y117414D01*
X683274Y117423D01*
X307222Y117423D01*
X304048Y118738D01*
X301511Y121275D01*
X249426Y173360D01*
X249332Y173428D01*
X249237Y173498D01*
X249231Y173500D01*
X249226Y173504D01*
X249115Y173538D01*
X249003Y173574D01*
X248997Y173574D01*
X248991Y173576D01*
X248874Y173573D01*
X248757Y173572D01*
X248750Y173570D01*
X248745Y173570D01*
X248727Y173563D01*
X248596Y173525D01*
X248301Y173403D01*
X241699Y173403D01*
X235599Y175930D01*
X230930Y180599D01*
X228403Y186699D01*
X228403Y193301D01*
X230930Y199401D01*
X235599Y204070D01*
X241699Y206597D01*
X248301Y206597D01*
X254401Y204070D01*
X259070Y199401D01*
X261597Y193301D01*
X261597Y186699D01*
X261475Y186404D01*
X261448Y186291D01*
X261419Y186177D01*
X261420Y186171D01*
X261419Y186165D01*
X261429Y186048D01*
X261439Y185932D01*
X261441Y185926D01*
X261442Y185920D01*
X261489Y185812D01*
X261535Y185705D01*
X261540Y185700D01*
X261542Y185695D01*
X261554Y185681D01*
X261640Y185574D01*
X312295Y134920D01*
X312368Y134867D01*
X312438Y134807D01*
X312468Y134795D01*
X312494Y134776D01*
X312581Y134749D01*
X312666Y134715D01*
X312707Y134711D01*
X312729Y134704D01*
X312762Y134705D01*
X312833Y134697D01*
X386251Y134697D01*
X386322Y134708D01*
X386394Y134710D01*
X386443Y134728D01*
X386494Y134736D01*
X386557Y134770D01*
X386625Y134795D01*
X386665Y134827D01*
X386711Y134852D01*
X386761Y134903D01*
X386817Y134948D01*
X386845Y134992D01*
X386881Y135030D01*
X386911Y135095D01*
X386950Y135155D01*
X386962Y135206D01*
X386984Y135253D01*
X386992Y135324D01*
X387010Y135394D01*
X387006Y135446D01*
X387011Y135497D01*
X386996Y135568D01*
X386991Y135639D01*
X386970Y135687D01*
X386959Y135738D01*
X386922Y135799D01*
X386894Y135865D01*
X386850Y135921D01*
X386833Y135949D01*
X386815Y135964D01*
X386790Y135996D01*
X359426Y163360D01*
X359332Y163428D01*
X359237Y163498D01*
X359231Y163500D01*
X359226Y163504D01*
X359115Y163538D01*
X359003Y163574D01*
X358997Y163574D01*
X358991Y163576D01*
X358874Y163573D01*
X358757Y163572D01*
X358750Y163570D01*
X358745Y163570D01*
X358727Y163563D01*
X358596Y163525D01*
X358301Y163403D01*
X351699Y163403D01*
X345599Y165930D01*
X340930Y170599D01*
X338403Y176699D01*
X338403Y183301D01*
X340930Y189401D01*
X345599Y194070D01*
X351699Y196597D01*
X358301Y196597D01*
X364401Y194070D01*
X369070Y189401D01*
X371597Y183301D01*
X371597Y176699D01*
X371475Y176404D01*
X371448Y176291D01*
X371419Y176177D01*
X371420Y176171D01*
X371419Y176165D01*
X371429Y176048D01*
X371439Y175932D01*
X371441Y175926D01*
X371442Y175920D01*
X371489Y175812D01*
X371535Y175705D01*
X371540Y175700D01*
X371542Y175695D01*
X371554Y175681D01*
X371640Y175574D01*
X398355Y148860D01*
X398428Y148807D01*
X398498Y148747D01*
X398528Y148735D01*
X398554Y148716D01*
X398641Y148689D01*
X398726Y148655D01*
X398767Y148651D01*
X398789Y148644D01*
X398822Y148645D01*
X398893Y148637D01*
X412311Y148637D01*
X412382Y148648D01*
X412454Y148650D01*
X412503Y148668D01*
X412554Y148676D01*
X412617Y148710D01*
X412685Y148735D01*
X412725Y148767D01*
X412771Y148792D01*
X412821Y148843D01*
X412877Y148888D01*
X412905Y148932D01*
X412941Y148970D01*
X412971Y149035D01*
X413010Y149095D01*
X413022Y149146D01*
X413044Y149193D01*
X413052Y149264D01*
X413070Y149334D01*
X413066Y149386D01*
X413071Y149437D01*
X413056Y149508D01*
X413051Y149579D01*
X413030Y149627D01*
X413019Y149678D01*
X412982Y149739D01*
X412954Y149805D01*
X412910Y149861D01*
X412893Y149889D01*
X412875Y149904D01*
X412850Y149936D01*
X412171Y150615D01*
X349426Y213360D01*
X349332Y213428D01*
X349237Y213498D01*
X349231Y213500D01*
X349226Y213504D01*
X349115Y213538D01*
X349003Y213574D01*
X348997Y213574D01*
X348991Y213576D01*
X348874Y213573D01*
X348757Y213572D01*
X348750Y213570D01*
X348745Y213570D01*
X348727Y213563D01*
X348596Y213525D01*
X348301Y213403D01*
X341699Y213403D01*
X335599Y215930D01*
X330930Y220599D01*
X328403Y226699D01*
X328403Y233301D01*
X330930Y239401D01*
X335599Y244070D01*
X341699Y246597D01*
X345602Y246597D01*
X345622Y246600D01*
X345641Y246598D01*
X345743Y246620D01*
X345845Y246636D01*
X345862Y246646D01*
X345882Y246650D01*
X345971Y246703D01*
X346062Y246752D01*
X346076Y246766D01*
X346093Y246776D01*
X346160Y246855D01*
X346232Y246930D01*
X346240Y246948D01*
X346253Y246963D01*
X346292Y247059D01*
X346335Y247153D01*
X346337Y247173D01*
X346345Y247191D01*
X346363Y247358D01*
X346363Y371718D01*
X347678Y374892D01*
X370108Y397322D01*
X373282Y398637D01*
X391718Y398637D01*
X394892Y397322D01*
X410574Y381640D01*
X410668Y381572D01*
X410763Y381502D01*
X410769Y381500D01*
X410774Y381496D01*
X410885Y381462D01*
X410997Y381426D01*
X411003Y381426D01*
X411009Y381424D01*
X411126Y381427D01*
X411243Y381428D01*
X411250Y381430D01*
X411255Y381430D01*
X411273Y381437D01*
X411404Y381475D01*
X411699Y381597D01*
X418301Y381597D01*
X424401Y379070D01*
X429070Y374401D01*
X431597Y368301D01*
X431597Y361699D01*
X429070Y355599D01*
X424401Y350930D01*
X418301Y348403D01*
X411699Y348403D01*
X405599Y350930D01*
X400930Y355599D01*
X398403Y361699D01*
X398403Y368301D01*
X398525Y368596D01*
X398552Y368709D01*
X398581Y368823D01*
X398580Y368829D01*
X398581Y368835D01*
X398571Y368952D01*
X398561Y369068D01*
X398559Y369074D01*
X398558Y369080D01*
X398511Y369188D01*
X398465Y369295D01*
X398460Y369300D01*
X398458Y369305D01*
X398446Y369319D01*
X398360Y369426D01*
X386645Y381140D01*
X386572Y381193D01*
X386502Y381253D01*
X386472Y381265D01*
X386446Y381284D01*
X386359Y381311D01*
X386274Y381345D01*
X386233Y381349D01*
X386211Y381356D01*
X386178Y381355D01*
X386107Y381363D01*
X378893Y381363D01*
X378803Y381349D01*
X378712Y381341D01*
X378682Y381329D01*
X378650Y381324D01*
X378569Y381281D01*
X378485Y381245D01*
X378453Y381219D01*
X378433Y381208D01*
X378410Y381185D01*
X378355Y381140D01*
X369475Y372261D01*
X369418Y372182D01*
X369356Y372107D01*
X369347Y372082D01*
X369332Y372061D01*
X369303Y371968D01*
X369268Y371877D01*
X369267Y371851D01*
X369259Y371826D01*
X369262Y371729D01*
X369258Y371631D01*
X369265Y371606D01*
X369266Y371580D01*
X369299Y371489D01*
X369326Y371395D01*
X369341Y371374D01*
X369350Y371349D01*
X369411Y371273D01*
X369466Y371193D01*
X369487Y371178D01*
X369504Y371157D01*
X369586Y371105D01*
X369664Y371046D01*
X369689Y371038D01*
X369711Y371024D01*
X369805Y371000D01*
X369898Y370970D01*
X369924Y370970D01*
X369949Y370964D01*
X370046Y370972D01*
X370144Y370973D01*
X370175Y370982D01*
X370194Y370983D01*
X370225Y370996D01*
X370305Y371019D01*
X371699Y371597D01*
X378301Y371597D01*
X384401Y369070D01*
X389070Y364401D01*
X391597Y358301D01*
X391597Y351699D01*
X389070Y345599D01*
X384401Y340930D01*
X384107Y340808D01*
X384008Y340747D01*
X383907Y340686D01*
X383903Y340682D01*
X383898Y340678D01*
X383823Y340588D01*
X383747Y340500D01*
X383745Y340494D01*
X383741Y340489D01*
X383699Y340381D01*
X383655Y340271D01*
X383654Y340264D01*
X383653Y340259D01*
X383652Y340241D01*
X383637Y340105D01*
X383637Y299146D01*
X383648Y299075D01*
X383650Y299003D01*
X383668Y298954D01*
X383676Y298903D01*
X383710Y298840D01*
X383735Y298772D01*
X383767Y298732D01*
X383792Y298686D01*
X383844Y298636D01*
X383888Y298580D01*
X383932Y298552D01*
X383970Y298516D01*
X384035Y298486D01*
X384095Y298447D01*
X384146Y298435D01*
X384193Y298413D01*
X384264Y298405D01*
X384334Y298387D01*
X384386Y298391D01*
X384437Y298386D01*
X384508Y298401D01*
X384579Y298406D01*
X384627Y298427D01*
X384678Y298438D01*
X384739Y298475D01*
X384805Y298503D01*
X384861Y298548D01*
X384889Y298564D01*
X384904Y298582D01*
X384936Y298608D01*
X385599Y299270D01*
X391699Y301797D01*
X398301Y301797D01*
X398596Y301675D01*
X398709Y301648D01*
X398823Y301619D01*
X398829Y301620D01*
X398835Y301619D01*
X398952Y301629D01*
X399068Y301639D01*
X399074Y301641D01*
X399080Y301642D01*
X399188Y301689D01*
X399295Y301735D01*
X399300Y301740D01*
X399305Y301742D01*
X399319Y301754D01*
X399426Y301840D01*
X474811Y377225D01*
X477348Y379762D01*
X480522Y381077D01*
X496525Y381077D01*
X496639Y381095D01*
X496756Y381113D01*
X496761Y381115D01*
X496767Y381116D01*
X496870Y381171D01*
X496975Y381224D01*
X496979Y381229D01*
X496985Y381232D01*
X497065Y381316D01*
X497147Y381400D01*
X497151Y381406D01*
X497154Y381410D01*
X497162Y381427D01*
X497228Y381547D01*
X497350Y381841D01*
X502019Y386510D01*
X508119Y389037D01*
X514721Y389037D01*
X520821Y386510D01*
X525490Y381841D01*
X528017Y375741D01*
X528017Y369139D01*
X525490Y363039D01*
X520821Y358370D01*
X514721Y355843D01*
X508119Y355843D01*
X502019Y358370D01*
X497350Y363039D01*
X497228Y363333D01*
X497167Y363432D01*
X497106Y363533D01*
X497102Y363537D01*
X497098Y363542D01*
X497009Y363616D01*
X496920Y363693D01*
X496914Y363695D01*
X496909Y363699D01*
X496801Y363740D01*
X496691Y363785D01*
X496684Y363786D01*
X496679Y363787D01*
X496661Y363788D01*
X496525Y363803D01*
X486133Y363803D01*
X486043Y363789D01*
X485952Y363781D01*
X485922Y363769D01*
X485890Y363764D01*
X485809Y363721D01*
X485725Y363685D01*
X485693Y363659D01*
X485673Y363648D01*
X485650Y363625D01*
X485595Y363580D01*
X411640Y289626D01*
X411572Y289532D01*
X411502Y289437D01*
X411500Y289431D01*
X411496Y289426D01*
X411462Y289315D01*
X411426Y289203D01*
X411426Y289197D01*
X411424Y289191D01*
X411427Y289074D01*
X411428Y288957D01*
X411430Y288950D01*
X411430Y288945D01*
X411437Y288927D01*
X411475Y288796D01*
X411597Y288501D01*
X411597Y281899D01*
X409070Y275799D01*
X404401Y271130D01*
X398301Y268603D01*
X391699Y268603D01*
X385599Y271130D01*
X384936Y271792D01*
X384878Y271834D01*
X384826Y271884D01*
X384779Y271906D01*
X384737Y271936D01*
X384668Y271957D01*
X384603Y271987D01*
X384551Y271993D01*
X384501Y272008D01*
X384430Y272006D01*
X384359Y272014D01*
X384308Y272003D01*
X384256Y272002D01*
X384188Y271977D01*
X384118Y271962D01*
X384073Y271935D01*
X384025Y271918D01*
X383969Y271873D01*
X383907Y271836D01*
X383873Y271796D01*
X383833Y271764D01*
X383794Y271704D01*
X383747Y271649D01*
X383728Y271601D01*
X383700Y271557D01*
X383682Y271487D01*
X383655Y271421D01*
X383647Y271350D01*
X383639Y271318D01*
X383641Y271295D01*
X383637Y271254D01*
X383637Y258946D01*
X383648Y258875D01*
X383650Y258803D01*
X383668Y258754D01*
X383676Y258703D01*
X383710Y258640D01*
X383735Y258572D01*
X383767Y258532D01*
X383792Y258486D01*
X383844Y258436D01*
X383888Y258380D01*
X383932Y258352D01*
X383970Y258316D01*
X384035Y258286D01*
X384095Y258247D01*
X384146Y258235D01*
X384193Y258213D01*
X384264Y258205D01*
X384334Y258187D01*
X384386Y258191D01*
X384437Y258186D01*
X384508Y258201D01*
X384579Y258206D01*
X384627Y258227D01*
X384678Y258238D01*
X384739Y258275D01*
X384805Y258303D01*
X384861Y258348D01*
X384889Y258364D01*
X384904Y258382D01*
X384936Y258408D01*
X385599Y259070D01*
X391699Y261597D01*
X398301Y261597D01*
X404401Y259070D01*
X409070Y254401D01*
X411597Y248301D01*
X411597Y241699D01*
X410010Y237869D01*
X409984Y237755D01*
X409955Y237641D01*
X409955Y237635D01*
X409954Y237629D01*
X409965Y237512D01*
X409974Y237396D01*
X409977Y237391D01*
X409977Y237384D01*
X410025Y237277D01*
X410070Y237170D01*
X410075Y237164D01*
X410077Y237159D01*
X410090Y237146D01*
X410175Y237039D01*
X453355Y193860D01*
X453428Y193807D01*
X453498Y193747D01*
X453528Y193735D01*
X453554Y193716D01*
X453641Y193689D01*
X453726Y193655D01*
X453767Y193651D01*
X453789Y193644D01*
X453822Y193645D01*
X453893Y193637D01*
X671107Y193637D01*
X671197Y193651D01*
X671288Y193659D01*
X671318Y193671D01*
X671350Y193676D01*
X671431Y193719D01*
X671515Y193755D01*
X671547Y193781D01*
X671567Y193792D01*
X671590Y193815D01*
X671645Y193860D01*
X682090Y204304D01*
X682158Y204398D01*
X682228Y204493D01*
X682230Y204499D01*
X682234Y204504D01*
X682268Y204615D01*
X682304Y204727D01*
X682304Y204733D01*
X682306Y204739D01*
X682303Y204856D01*
X682302Y204973D01*
X682300Y204980D01*
X682300Y204985D01*
X682293Y205003D01*
X682255Y205134D01*
X681363Y207287D01*
X681363Y207632D01*
X681353Y207695D01*
X681353Y207759D01*
X681333Y207815D01*
X681324Y207874D01*
X681294Y207931D01*
X681273Y207991D01*
X681236Y208039D01*
X681208Y208092D01*
X681162Y208136D01*
X681123Y208187D01*
X681073Y208220D01*
X681030Y208261D01*
X680972Y208288D01*
X680919Y208324D01*
X680861Y208340D01*
X680807Y208365D01*
X680744Y208372D01*
X680682Y208389D01*
X680622Y208385D01*
X680563Y208392D01*
X680500Y208378D01*
X680436Y208375D01*
X680381Y208352D01*
X680322Y208340D01*
X680267Y208307D01*
X680208Y208283D01*
X680162Y208244D01*
X680111Y208214D01*
X680070Y208165D01*
X680021Y208123D01*
X679990Y208072D01*
X679951Y208027D01*
X679927Y207967D01*
X679894Y207913D01*
X679872Y207829D01*
X679859Y207798D01*
X679857Y207774D01*
X679850Y207751D01*
X679832Y207639D01*
X679342Y206130D01*
X678622Y204717D01*
X677689Y203433D01*
X676567Y202311D01*
X675283Y201378D01*
X673870Y200658D01*
X672361Y200167D01*
X671523Y200035D01*
X671523Y209238D01*
X671520Y209258D01*
X671522Y209277D01*
X671500Y209379D01*
X671483Y209481D01*
X671474Y209498D01*
X671470Y209518D01*
X671417Y209607D01*
X671368Y209698D01*
X671354Y209712D01*
X671344Y209729D01*
X671265Y209796D01*
X671190Y209867D01*
X671172Y209876D01*
X671157Y209889D01*
X671061Y209927D01*
X670967Y209971D01*
X670947Y209973D01*
X670929Y209981D01*
X670762Y209999D01*
X669999Y209999D01*
X669999Y210001D01*
X670762Y210001D01*
X670782Y210004D01*
X670801Y210002D01*
X670903Y210024D01*
X671005Y210041D01*
X671022Y210050D01*
X671042Y210054D01*
X671131Y210107D01*
X671222Y210156D01*
X671236Y210170D01*
X671253Y210180D01*
X671320Y210259D01*
X671391Y210334D01*
X671400Y210352D01*
X671413Y210367D01*
X671452Y210463D01*
X671495Y210557D01*
X671497Y210577D01*
X671505Y210595D01*
X671523Y210762D01*
X671523Y219965D01*
X672361Y219833D01*
X673870Y219342D01*
X675283Y218622D01*
X676567Y217689D01*
X677689Y216567D01*
X678622Y215283D01*
X679342Y213870D01*
X679832Y212361D01*
X679850Y212249D01*
X679870Y212188D01*
X679881Y212126D01*
X679909Y212073D01*
X679927Y212016D01*
X679966Y211965D01*
X679996Y211908D01*
X680039Y211867D01*
X680075Y211819D01*
X680128Y211783D01*
X680174Y211739D01*
X680228Y211714D01*
X680278Y211680D01*
X680339Y211662D01*
X680397Y211635D01*
X680457Y211629D01*
X680514Y211612D01*
X680578Y211615D01*
X680641Y211608D01*
X680700Y211621D01*
X680760Y211624D01*
X680819Y211647D01*
X680882Y211660D01*
X680933Y211691D01*
X680989Y211713D01*
X681038Y211754D01*
X681093Y211786D01*
X681132Y211832D01*
X681178Y211870D01*
X681211Y211925D01*
X681253Y211973D01*
X681275Y212029D01*
X681307Y212080D01*
X681321Y212142D01*
X681345Y212202D01*
X681354Y212288D01*
X681362Y212320D01*
X681361Y212344D01*
X681363Y212368D01*
X681363Y212713D01*
X683439Y217725D01*
X687275Y221561D01*
X692287Y223637D01*
X697713Y223637D01*
X702725Y221561D01*
X706561Y217725D01*
X706797Y217155D01*
X706834Y217094D01*
X706864Y217028D01*
X706899Y216990D01*
X706926Y216946D01*
X706981Y216900D01*
X707030Y216847D01*
X707076Y216822D01*
X707116Y216789D01*
X707183Y216763D01*
X707246Y216729D01*
X707297Y216719D01*
X707345Y216701D01*
X707417Y216698D01*
X707488Y216685D01*
X707539Y216692D01*
X707591Y216690D01*
X707660Y216710D01*
X707731Y216721D01*
X707777Y216744D01*
X707827Y216759D01*
X707886Y216800D01*
X707950Y216832D01*
X707987Y216869D01*
X708029Y216899D01*
X708072Y216956D01*
X708122Y217008D01*
X708157Y217070D01*
X708176Y217096D01*
X708183Y217119D01*
X708203Y217155D01*
X708439Y217725D01*
X712275Y221561D01*
X717287Y223637D01*
X722713Y223637D01*
X727725Y221561D01*
X730426Y218860D01*
X730499Y218807D01*
X730569Y218747D01*
X730599Y218735D01*
X730625Y218716D01*
X730712Y218689D01*
X730797Y218655D01*
X730838Y218651D01*
X730860Y218644D01*
X730893Y218645D01*
X730964Y218637D01*
X738713Y218637D01*
X738828Y218656D01*
X738944Y218673D01*
X738949Y218675D01*
X738956Y218676D01*
X739058Y218731D01*
X739163Y218784D01*
X739167Y218789D01*
X739173Y218792D01*
X739253Y218876D01*
X739335Y218960D01*
X739339Y218966D01*
X739342Y218970D01*
X739350Y218987D01*
X739416Y219107D01*
X740930Y222761D01*
X745599Y227430D01*
X751699Y229957D01*
X758301Y229957D01*
X764401Y227430D01*
X769070Y222761D01*
X771597Y216661D01*
X771597Y210059D01*
X769070Y203959D01*
X764401Y199290D01*
X758301Y196763D01*
X751699Y196763D01*
X745599Y199290D01*
X743748Y201140D01*
X743674Y201193D01*
X743605Y201253D01*
X743575Y201265D01*
X743549Y201284D01*
X743462Y201311D01*
X743377Y201345D01*
X743336Y201349D01*
X743314Y201356D01*
X743281Y201355D01*
X743210Y201363D01*
X730964Y201363D01*
X730874Y201349D01*
X730783Y201341D01*
X730753Y201329D01*
X730721Y201324D01*
X730640Y201281D01*
X730557Y201245D01*
X730524Y201219D01*
X730504Y201208D01*
X730482Y201185D01*
X730426Y201140D01*
X727725Y198439D01*
X722713Y196363D01*
X717287Y196363D01*
X712275Y198439D01*
X708439Y202275D01*
X708203Y202845D01*
X708166Y202906D01*
X708136Y202972D01*
X708101Y203010D01*
X708074Y203054D01*
X708018Y203100D01*
X707970Y203153D01*
X707924Y203178D01*
X707884Y203211D01*
X707817Y203237D01*
X707754Y203271D01*
X707703Y203281D01*
X707655Y203299D01*
X707583Y203302D01*
X707512Y203315D01*
X707461Y203308D01*
X707409Y203310D01*
X707340Y203290D01*
X707269Y203279D01*
X707223Y203256D01*
X707173Y203241D01*
X707114Y203200D01*
X707050Y203168D01*
X707013Y203131D01*
X706971Y203101D01*
X706928Y203043D01*
X706878Y202992D01*
X706843Y202930D01*
X706824Y202904D01*
X706816Y202881D01*
X706797Y202845D01*
X706561Y202275D01*
X702725Y198439D01*
X699329Y197033D01*
X699273Y196998D01*
X699213Y196973D01*
X699148Y196921D01*
X699120Y196903D01*
X699107Y196888D01*
X699082Y196868D01*
X692150Y189936D01*
X692109Y189878D01*
X692059Y189826D01*
X692037Y189779D01*
X692007Y189737D01*
X691986Y189668D01*
X691956Y189603D01*
X691950Y189551D01*
X691935Y189501D01*
X691936Y189430D01*
X691929Y189359D01*
X691940Y189308D01*
X691941Y189256D01*
X691966Y189188D01*
X691981Y189118D01*
X692007Y189074D01*
X692025Y189025D01*
X692070Y188969D01*
X692107Y188907D01*
X692147Y188873D01*
X692179Y188833D01*
X692239Y188794D01*
X692294Y188747D01*
X692342Y188728D01*
X692386Y188700D01*
X692455Y188682D01*
X692522Y188655D01*
X692593Y188647D01*
X692625Y188639D01*
X692648Y188641D01*
X692689Y188637D01*
X776718Y188637D01*
X779892Y187322D01*
X797897Y169318D01*
X797970Y169265D01*
X798040Y169205D01*
X798070Y169193D01*
X798096Y169174D01*
X798183Y169147D01*
X798268Y169113D01*
X798309Y169109D01*
X798331Y169102D01*
X798335Y169102D01*
X804047Y166736D01*
X808406Y162377D01*
X809296Y160228D01*
X809351Y160139D01*
X809402Y160047D01*
X809416Y160035D01*
X809426Y160019D01*
X809506Y159952D01*
X809584Y159881D01*
X809601Y159874D01*
X809615Y159862D01*
X809713Y159825D01*
X809809Y159782D01*
X809828Y159781D01*
X809845Y159774D01*
X809950Y159770D01*
X810054Y159760D01*
X810072Y159764D01*
X810090Y159764D01*
X810191Y159793D01*
X810294Y159817D01*
X810309Y159827D01*
X810327Y159832D01*
X810413Y159892D01*
X810502Y159948D01*
X810517Y159964D01*
X810529Y159972D01*
X810548Y159998D01*
X810615Y160072D01*
X811564Y161378D01*
X812892Y162706D01*
X814413Y163811D01*
X816087Y164664D01*
X817874Y165245D01*
X819147Y165446D01*
X819147Y154362D01*
X819150Y154342D01*
X819148Y154323D01*
X819170Y154221D01*
X819187Y154119D01*
X819196Y154102D01*
X819200Y154082D01*
X819253Y153993D01*
X819302Y153902D01*
X819316Y153888D01*
X819326Y153871D01*
X819405Y153804D01*
X819480Y153733D01*
X819498Y153724D01*
X819513Y153711D01*
X819609Y153673D01*
X819703Y153629D01*
X819723Y153627D01*
X819741Y153619D01*
X819908Y153601D01*
X821432Y153601D01*
X821452Y153604D01*
X821471Y153602D01*
X821573Y153624D01*
X821675Y153641D01*
X821692Y153650D01*
X821712Y153654D01*
X821801Y153707D01*
X821892Y153756D01*
X821906Y153770D01*
X821923Y153780D01*
X821990Y153859D01*
X822061Y153934D01*
X822070Y153952D01*
X822083Y153967D01*
X822122Y154063D01*
X822165Y154157D01*
X822167Y154177D01*
X822175Y154195D01*
X822193Y154362D01*
X822193Y165446D01*
X823466Y165245D01*
X825253Y164664D01*
X826927Y163811D01*
X828448Y162706D01*
X829776Y161378D01*
X829986Y161089D01*
X829992Y161083D01*
X829996Y161076D01*
X830079Y160996D01*
X830161Y160916D01*
X830168Y160912D01*
X830174Y160907D01*
X830278Y160858D01*
X830382Y160808D01*
X830390Y160806D01*
X830397Y160803D01*
X830511Y160790D01*
X830626Y160775D01*
X830634Y160777D01*
X830641Y160776D01*
X830754Y160801D01*
X830867Y160823D01*
X830874Y160827D01*
X830882Y160828D01*
X830980Y160887D01*
X831081Y160944D01*
X831086Y160950D01*
X831093Y160954D01*
X831168Y161042D01*
X831244Y161128D01*
X831248Y161135D01*
X831253Y161141D01*
X831296Y161249D01*
X831341Y161354D01*
X831342Y161362D01*
X831345Y161370D01*
X831363Y161536D01*
X831363Y301107D01*
X831349Y301197D01*
X831341Y301288D01*
X831329Y301318D01*
X831324Y301350D01*
X831281Y301431D01*
X831245Y301515D01*
X831219Y301547D01*
X831208Y301567D01*
X831185Y301590D01*
X831140Y301645D01*
X811645Y321140D01*
X811572Y321193D01*
X811502Y321253D01*
X811472Y321265D01*
X811446Y321284D01*
X811359Y321311D01*
X811274Y321345D01*
X811233Y321349D01*
X811211Y321356D01*
X811178Y321355D01*
X811107Y321363D01*
X558946Y321363D01*
X558875Y321352D01*
X558803Y321350D01*
X558754Y321332D01*
X558703Y321324D01*
X558640Y321290D01*
X558572Y321265D01*
X558532Y321233D01*
X558486Y321208D01*
X558436Y321156D01*
X558380Y321112D01*
X558352Y321068D01*
X558316Y321030D01*
X558286Y320965D01*
X558247Y320905D01*
X558235Y320854D01*
X558213Y320807D01*
X558205Y320736D01*
X558187Y320666D01*
X558191Y320614D01*
X558186Y320563D01*
X558201Y320492D01*
X558206Y320421D01*
X558227Y320373D01*
X558238Y320322D01*
X558275Y320261D01*
X558303Y320195D01*
X558348Y320139D01*
X558364Y320111D01*
X558382Y320096D01*
X558408Y320064D01*
X559070Y319401D01*
X561597Y313301D01*
X561597Y306699D01*
X559070Y300599D01*
X554401Y295930D01*
X548301Y293403D01*
X541699Y293403D01*
X541404Y293525D01*
X541291Y293552D01*
X541177Y293581D01*
X541171Y293580D01*
X541165Y293581D01*
X541048Y293571D01*
X540932Y293561D01*
X540926Y293559D01*
X540920Y293558D01*
X540812Y293511D01*
X540705Y293465D01*
X540700Y293460D01*
X540695Y293458D01*
X540681Y293446D01*
X540574Y293360D01*
X476820Y229605D01*
X476767Y229532D01*
X476707Y229462D01*
X476695Y229432D01*
X476676Y229406D01*
X476649Y229319D01*
X476615Y229234D01*
X476611Y229193D01*
X476604Y229171D01*
X476605Y229138D01*
X476597Y229067D01*
X476597Y226699D01*
X474070Y220599D01*
X469401Y215930D01*
X463301Y213403D01*
X456699Y213403D01*
X450599Y215930D01*
X445930Y220599D01*
X443403Y226699D01*
X443403Y233301D01*
X445930Y239401D01*
X450599Y244070D01*
X456699Y246597D01*
X463301Y246597D01*
X467131Y245010D01*
X467245Y244984D01*
X467359Y244955D01*
X467365Y244955D01*
X467371Y244954D01*
X467488Y244965D01*
X467604Y244974D01*
X467609Y244977D01*
X467616Y244977D01*
X467723Y245025D01*
X467830Y245070D01*
X467836Y245075D01*
X467841Y245077D01*
X467854Y245090D01*
X467961Y245175D01*
X528360Y305574D01*
X528428Y305668D01*
X528498Y305763D01*
X528500Y305769D01*
X528504Y305774D01*
X528538Y305885D01*
X528574Y305997D01*
X528574Y306003D01*
X528576Y306009D01*
X528573Y306126D01*
X528572Y306243D01*
X528570Y306250D01*
X528570Y306255D01*
X528563Y306273D01*
X528525Y306404D01*
X528403Y306699D01*
X528403Y313301D01*
X530930Y319401D01*
X531592Y320064D01*
X531634Y320122D01*
X531684Y320174D01*
X531706Y320221D01*
X531736Y320263D01*
X531757Y320332D01*
X531787Y320397D01*
X531793Y320449D01*
X531808Y320499D01*
X531806Y320570D01*
X531814Y320641D01*
X531803Y320692D01*
X531802Y320744D01*
X531777Y320812D01*
X531762Y320882D01*
X531735Y320927D01*
X531718Y320975D01*
X531673Y321031D01*
X531636Y321093D01*
X531596Y321127D01*
X531564Y321167D01*
X531504Y321206D01*
X531449Y321253D01*
X531401Y321272D01*
X531357Y321300D01*
X531287Y321318D01*
X531221Y321345D01*
X531150Y321353D01*
X531118Y321361D01*
X531095Y321359D01*
X531054Y321363D01*
X503893Y321363D01*
X503803Y321349D01*
X503712Y321341D01*
X503682Y321329D01*
X503650Y321324D01*
X503569Y321281D01*
X503485Y321245D01*
X503453Y321219D01*
X503433Y321208D01*
X503410Y321185D01*
X503355Y321140D01*
X446640Y264426D01*
X446572Y264332D01*
X446502Y264237D01*
X446500Y264231D01*
X446496Y264226D01*
X446462Y264115D01*
X446426Y264003D01*
X446426Y263997D01*
X446424Y263991D01*
X446427Y263874D01*
X446428Y263757D01*
X446430Y263750D01*
X446430Y263745D01*
X446437Y263727D01*
X446475Y263596D01*
X446597Y263301D01*
X446597Y256699D01*
X444070Y250599D01*
X439401Y245930D01*
X433301Y243403D01*
X426699Y243403D01*
X420599Y245930D01*
X415930Y250599D01*
X413403Y256699D01*
X413403Y263301D01*
X415930Y269401D01*
X420599Y274070D01*
X426699Y276597D01*
X433301Y276597D01*
X433596Y276475D01*
X433709Y276448D01*
X433823Y276419D01*
X433829Y276420D01*
X433835Y276419D01*
X433952Y276429D01*
X434068Y276439D01*
X434074Y276441D01*
X434080Y276442D01*
X434188Y276489D01*
X434295Y276535D01*
X434300Y276540D01*
X434305Y276542D01*
X434319Y276554D01*
X434426Y276640D01*
X492571Y334785D01*
X495108Y337322D01*
X498282Y338637D01*
X535602Y338637D01*
X535622Y338640D01*
X535641Y338638D01*
X535743Y338660D01*
X535845Y338676D01*
X535862Y338686D01*
X535882Y338690D01*
X535971Y338743D01*
X536062Y338792D01*
X536076Y338806D01*
X536093Y338816D01*
X536160Y338895D01*
X536232Y338970D01*
X536240Y338988D01*
X536253Y339003D01*
X536292Y339099D01*
X536335Y339193D01*
X536337Y339213D01*
X536345Y339231D01*
X536363Y339398D01*
X536363Y501718D01*
X537678Y504892D01*
X568360Y535574D01*
X568428Y535668D01*
X568498Y535763D01*
X568500Y535769D01*
X568504Y535774D01*
X568538Y535885D01*
X568574Y535997D01*
X568574Y536003D01*
X568576Y536009D01*
X568573Y536126D01*
X568572Y536243D01*
X568570Y536250D01*
X568570Y536255D01*
X568563Y536273D01*
X568525Y536404D01*
X568403Y536699D01*
X568403Y543301D01*
X570930Y549401D01*
X575599Y554070D01*
X581699Y556597D01*
X588301Y556597D01*
X594401Y554070D01*
X599070Y549401D01*
X601597Y543301D01*
X601597Y536699D01*
X599070Y530599D01*
X594401Y525930D01*
X588301Y523403D01*
X581699Y523403D01*
X581404Y523525D01*
X581291Y523552D01*
X581177Y523581D01*
X581171Y523580D01*
X581165Y523581D01*
X581048Y523571D01*
X580932Y523561D01*
X580926Y523559D01*
X580920Y523558D01*
X580812Y523511D01*
X580705Y523465D01*
X580700Y523460D01*
X580695Y523458D01*
X580681Y523446D01*
X580574Y523360D01*
X553860Y496645D01*
X553807Y496572D01*
X553747Y496502D01*
X553735Y496472D01*
X553716Y496446D01*
X553689Y496359D01*
X553655Y496274D01*
X553651Y496233D01*
X553644Y496211D01*
X553645Y496178D01*
X553637Y496107D01*
X553637Y339398D01*
X553640Y339378D01*
X553638Y339359D01*
X553660Y339257D01*
X553676Y339155D01*
X553686Y339138D01*
X553690Y339118D01*
X553743Y339029D01*
X553792Y338938D01*
X553806Y338924D01*
X553816Y338907D01*
X553895Y338840D01*
X553970Y338768D01*
X553988Y338760D01*
X554003Y338747D01*
X554099Y338708D01*
X554193Y338665D01*
X554213Y338663D01*
X554231Y338655D01*
X554398Y338637D01*
X816718Y338637D01*
X819892Y337322D01*
X844785Y312429D01*
X845762Y311452D01*
X845820Y311410D01*
X845872Y311361D01*
X845920Y311339D01*
X845962Y311308D01*
X846030Y311287D01*
X846096Y311257D01*
X846147Y311251D01*
X846197Y311236D01*
X846269Y311238D01*
X846340Y311230D01*
X846391Y311241D01*
X846443Y311242D01*
X846510Y311267D01*
X846580Y311282D01*
X846625Y311309D01*
X846674Y311327D01*
X846730Y311372D01*
X846791Y311408D01*
X846825Y311448D01*
X846866Y311481D01*
X846905Y311541D01*
X846951Y311595D01*
X846971Y311644D01*
X846999Y311687D01*
X847016Y311757D01*
X847043Y311824D01*
X847051Y311895D01*
X847059Y311926D01*
X847057Y311949D01*
X847062Y311990D01*
X847062Y554330D01*
X847046Y554427D01*
X847036Y554525D01*
X847026Y554548D01*
X847022Y554572D01*
X846976Y554659D01*
X846936Y554749D01*
X846919Y554768D01*
X846907Y554790D01*
X846835Y554858D01*
X846769Y554930D01*
X846747Y554942D01*
X846729Y554959D01*
X846639Y555001D01*
X846553Y555048D01*
X846528Y555052D01*
X846506Y555063D01*
X846408Y555074D01*
X846310Y555091D01*
X846286Y555087D01*
X846261Y555090D01*
X846165Y555069D01*
X846067Y555054D01*
X846045Y555043D01*
X846021Y555038D01*
X845936Y554987D01*
X845848Y554942D01*
X845826Y554921D01*
X845810Y554911D01*
X845788Y554886D01*
X845725Y554828D01*
X845601Y554685D01*
X834412Y547494D01*
X821650Y543747D01*
X808350Y543747D01*
X802572Y545443D01*
X802568Y545444D01*
X802563Y545446D01*
X802446Y545459D01*
X802328Y545473D01*
X802323Y545472D01*
X802319Y545473D01*
X802204Y545448D01*
X802087Y545424D01*
X802083Y545422D01*
X802078Y545421D01*
X801977Y545360D01*
X801875Y545301D01*
X801871Y545297D01*
X801867Y545294D01*
X801790Y545205D01*
X801712Y545116D01*
X801710Y545111D01*
X801707Y545108D01*
X801663Y544998D01*
X801617Y544889D01*
X801617Y544884D01*
X801615Y544879D01*
X801597Y544713D01*
X801597Y541699D01*
X801475Y541404D01*
X801448Y541291D01*
X801419Y541177D01*
X801420Y541171D01*
X801419Y541165D01*
X801429Y541048D01*
X801439Y540932D01*
X801441Y540926D01*
X801442Y540920D01*
X801489Y540812D01*
X801535Y540705D01*
X801540Y540700D01*
X801542Y540695D01*
X801554Y540681D01*
X801640Y540574D01*
X829785Y512429D01*
X832322Y509892D01*
X833637Y506718D01*
X833637Y451682D01*
X832322Y448508D01*
X818392Y434578D01*
X815218Y433263D01*
X771373Y433263D01*
X771283Y433249D01*
X771192Y433241D01*
X771162Y433229D01*
X771130Y433224D01*
X771050Y433181D01*
X770966Y433145D01*
X770934Y433119D01*
X770913Y433108D01*
X770891Y433085D01*
X770835Y433040D01*
X766989Y429195D01*
X761481Y426913D01*
X755519Y426913D01*
X750011Y429195D01*
X746338Y432867D01*
X746322Y432879D01*
X746310Y432894D01*
X746222Y432951D01*
X746139Y433011D01*
X746120Y433017D01*
X746103Y433027D01*
X746002Y433053D01*
X745903Y433083D01*
X745884Y433083D01*
X745864Y433088D01*
X745761Y433080D01*
X745658Y433077D01*
X745639Y433070D01*
X745619Y433068D01*
X745524Y433028D01*
X745427Y432992D01*
X745411Y432980D01*
X745393Y432972D01*
X745262Y432867D01*
X741589Y429195D01*
X736081Y426913D01*
X734443Y426913D01*
X734353Y426899D01*
X734262Y426891D01*
X734232Y426879D01*
X734200Y426874D01*
X734119Y426831D01*
X734035Y426795D01*
X734003Y426769D01*
X733983Y426758D01*
X733960Y426735D01*
X733904Y426690D01*
X721640Y414426D01*
X721572Y414332D01*
X721502Y414237D01*
X721500Y414231D01*
X721496Y414226D01*
X721462Y414115D01*
X721426Y414003D01*
X721426Y413997D01*
X721424Y413991D01*
X721427Y413874D01*
X721428Y413757D01*
X721430Y413750D01*
X721430Y413745D01*
X721437Y413727D01*
X721475Y413596D01*
X721597Y413301D01*
X721597Y406699D01*
X719070Y400599D01*
X714401Y395930D01*
X708301Y393403D01*
X701699Y393403D01*
X695599Y395930D01*
X690930Y400599D01*
X688403Y406699D01*
X688403Y408551D01*
X688392Y408622D01*
X688390Y408694D01*
X688372Y408743D01*
X688364Y408794D01*
X688330Y408857D01*
X688305Y408925D01*
X688273Y408965D01*
X688248Y409011D01*
X688196Y409061D01*
X688152Y409117D01*
X688108Y409145D01*
X688070Y409181D01*
X688005Y409211D01*
X687945Y409250D01*
X687894Y409262D01*
X687847Y409284D01*
X687776Y409292D01*
X687706Y409310D01*
X687654Y409306D01*
X687603Y409311D01*
X687532Y409296D01*
X687461Y409291D01*
X687413Y409270D01*
X687362Y409259D01*
X687301Y409222D01*
X687235Y409194D01*
X687179Y409150D01*
X687151Y409133D01*
X687136Y409115D01*
X687104Y409090D01*
X683229Y405215D01*
X680692Y402678D01*
X677518Y401363D01*
X669895Y401363D01*
X669781Y401345D01*
X669664Y401327D01*
X669659Y401325D01*
X669653Y401324D01*
X669550Y401269D01*
X669445Y401216D01*
X669441Y401211D01*
X669435Y401208D01*
X669355Y401124D01*
X669273Y401040D01*
X669269Y401034D01*
X669266Y401030D01*
X669258Y401013D01*
X669192Y400893D01*
X669070Y400599D01*
X664401Y395930D01*
X658301Y393403D01*
X651699Y393403D01*
X645599Y395930D01*
X640930Y400599D01*
X638403Y406699D01*
X638403Y413301D01*
X640930Y419401D01*
X645599Y424070D01*
X651493Y426512D01*
X651554Y426549D01*
X651619Y426578D01*
X651658Y426614D01*
X651702Y426641D01*
X651748Y426696D01*
X651801Y426745D01*
X651826Y426791D01*
X651859Y426831D01*
X651885Y426898D01*
X651919Y426960D01*
X651928Y427012D01*
X651947Y427060D01*
X651950Y427132D01*
X651963Y427202D01*
X651955Y427254D01*
X651957Y427306D01*
X651938Y427375D01*
X651927Y427446D01*
X651903Y427492D01*
X651889Y427542D01*
X651848Y427601D01*
X651816Y427665D01*
X651778Y427701D01*
X651749Y427744D01*
X651691Y427787D01*
X651640Y427837D01*
X651577Y427872D01*
X651551Y427891D01*
X651529Y427898D01*
X651493Y427918D01*
X648411Y429195D01*
X644738Y432867D01*
X644722Y432879D01*
X644710Y432894D01*
X644622Y432951D01*
X644539Y433011D01*
X644520Y433017D01*
X644503Y433027D01*
X644402Y433053D01*
X644303Y433083D01*
X644284Y433083D01*
X644264Y433088D01*
X644161Y433080D01*
X644058Y433077D01*
X644039Y433070D01*
X644019Y433068D01*
X643924Y433028D01*
X643827Y432992D01*
X643811Y432980D01*
X643793Y432972D01*
X643662Y432867D01*
X640360Y429565D01*
X640307Y429491D01*
X640247Y429422D01*
X640235Y429392D01*
X640216Y429366D01*
X640189Y429278D01*
X640155Y429194D01*
X640151Y429153D01*
X640144Y429130D01*
X640145Y429098D01*
X640137Y429027D01*
X640137Y424782D01*
X638822Y421608D01*
X636285Y419071D01*
X631640Y414426D01*
X631572Y414331D01*
X631502Y414237D01*
X631500Y414231D01*
X631496Y414226D01*
X631462Y414115D01*
X631426Y414003D01*
X631426Y413997D01*
X631424Y413991D01*
X631427Y413874D01*
X631428Y413757D01*
X631430Y413750D01*
X631430Y413745D01*
X631437Y413727D01*
X631475Y413596D01*
X631597Y413301D01*
X631597Y406699D01*
X629070Y400599D01*
X624401Y395930D01*
X618301Y393403D01*
X611699Y393403D01*
X605599Y395930D01*
X600930Y400599D01*
X598403Y406699D01*
X598403Y413301D01*
X600930Y419401D01*
X605599Y424070D01*
X611699Y426597D01*
X618301Y426597D01*
X618596Y426475D01*
X618709Y426448D01*
X618823Y426419D01*
X618829Y426420D01*
X618835Y426419D01*
X618952Y426429D01*
X619068Y426439D01*
X619074Y426441D01*
X619080Y426442D01*
X619188Y426489D01*
X619295Y426535D01*
X619300Y426540D01*
X619305Y426542D01*
X619319Y426554D01*
X619426Y426640D01*
X621957Y429172D01*
X621969Y429188D01*
X621985Y429200D01*
X622041Y429288D01*
X622101Y429371D01*
X622107Y429390D01*
X622118Y429407D01*
X622143Y429508D01*
X622173Y429606D01*
X622173Y429626D01*
X622178Y429646D01*
X622170Y429749D01*
X622167Y429852D01*
X622160Y429871D01*
X622159Y429891D01*
X622118Y429986D01*
X622083Y430083D01*
X622070Y430099D01*
X622062Y430117D01*
X621957Y430248D01*
X618795Y433411D01*
X616513Y438919D01*
X616513Y444881D01*
X618795Y450389D01*
X623011Y454605D01*
X628519Y456887D01*
X634481Y456887D01*
X637424Y455668D01*
X637493Y455651D01*
X637560Y455626D01*
X637613Y455624D01*
X637663Y455612D01*
X637734Y455618D01*
X637806Y455615D01*
X637856Y455630D01*
X637908Y455635D01*
X637974Y455664D01*
X638042Y455684D01*
X638085Y455714D01*
X638133Y455735D01*
X638186Y455783D01*
X638244Y455824D01*
X638275Y455866D01*
X638314Y455901D01*
X638348Y455964D01*
X638391Y456022D01*
X638407Y456071D01*
X638432Y456117D01*
X638445Y456187D01*
X638467Y456255D01*
X638467Y456307D01*
X638476Y456359D01*
X638466Y456430D01*
X638465Y456501D01*
X638445Y456570D01*
X638440Y456602D01*
X638430Y456623D01*
X638418Y456663D01*
X638403Y456699D01*
X638403Y463301D01*
X640930Y469401D01*
X645599Y474070D01*
X651699Y476597D01*
X658301Y476597D01*
X664401Y474070D01*
X669070Y469401D01*
X671597Y463301D01*
X671597Y456699D01*
X670015Y452881D01*
X669993Y452786D01*
X669964Y452693D01*
X669965Y452667D01*
X669959Y452642D01*
X669968Y452545D01*
X669971Y452447D01*
X669980Y452423D01*
X669982Y452397D01*
X670022Y452308D01*
X670055Y452216D01*
X670072Y452196D01*
X670082Y452172D01*
X670148Y452100D01*
X670209Y452024D01*
X670231Y452010D01*
X670249Y451991D01*
X670334Y451944D01*
X670416Y451891D01*
X670441Y451885D01*
X670464Y451872D01*
X670560Y451855D01*
X670654Y451831D01*
X670680Y451833D01*
X670706Y451829D01*
X670803Y451843D01*
X670900Y451850D01*
X670924Y451860D01*
X670950Y451864D01*
X671037Y451909D01*
X671126Y451947D01*
X671151Y451967D01*
X671169Y451976D01*
X671192Y451999D01*
X671257Y452051D01*
X673811Y454605D01*
X679319Y456887D01*
X685281Y456887D01*
X690789Y454605D01*
X694462Y450933D01*
X694478Y450921D01*
X694490Y450906D01*
X694578Y450849D01*
X694661Y450789D01*
X694680Y450783D01*
X694697Y450773D01*
X694798Y450747D01*
X694897Y450717D01*
X694916Y450717D01*
X694936Y450712D01*
X695039Y450720D01*
X695142Y450723D01*
X695161Y450730D01*
X695181Y450732D01*
X695276Y450772D01*
X695373Y450808D01*
X695389Y450820D01*
X695407Y450828D01*
X695538Y450933D01*
X699211Y454605D01*
X704719Y456887D01*
X710681Y456887D01*
X716189Y454605D01*
X719862Y450933D01*
X719878Y450921D01*
X719890Y450906D01*
X719978Y450849D01*
X720061Y450789D01*
X720080Y450783D01*
X720097Y450773D01*
X720198Y450747D01*
X720297Y450717D01*
X720316Y450717D01*
X720336Y450712D01*
X720439Y450720D01*
X720542Y450723D01*
X720561Y450730D01*
X720581Y450732D01*
X720676Y450772D01*
X720773Y450808D01*
X720789Y450820D01*
X720807Y450828D01*
X720938Y450933D01*
X724611Y454605D01*
X730119Y456887D01*
X736081Y456887D01*
X741589Y454605D01*
X745262Y450933D01*
X745278Y450921D01*
X745290Y450906D01*
X745378Y450849D01*
X745461Y450789D01*
X745480Y450783D01*
X745497Y450773D01*
X745598Y450747D01*
X745697Y450717D01*
X745716Y450717D01*
X745736Y450712D01*
X745839Y450720D01*
X745942Y450723D01*
X745961Y450730D01*
X745981Y450732D01*
X746076Y450772D01*
X746173Y450808D01*
X746189Y450820D01*
X746207Y450828D01*
X746338Y450933D01*
X750011Y454605D01*
X755519Y456887D01*
X761481Y456887D01*
X766989Y454605D01*
X770835Y450760D01*
X770909Y450707D01*
X770978Y450647D01*
X771008Y450635D01*
X771034Y450616D01*
X771121Y450589D01*
X771206Y450555D01*
X771247Y450551D01*
X771270Y450544D01*
X771302Y450545D01*
X771373Y450537D01*
X809607Y450537D01*
X809697Y450551D01*
X809788Y450559D01*
X809818Y450571D01*
X809850Y450576D01*
X809931Y450619D01*
X810015Y450655D01*
X810047Y450681D01*
X810067Y450692D01*
X810090Y450715D01*
X810145Y450760D01*
X816140Y456755D01*
X816193Y456828D01*
X816253Y456898D01*
X816265Y456928D01*
X816284Y456954D01*
X816311Y457041D01*
X816345Y457126D01*
X816349Y457167D01*
X816356Y457189D01*
X816355Y457222D01*
X816363Y457293D01*
X816363Y472308D01*
X816361Y472325D01*
X816362Y472340D01*
X816347Y472411D01*
X816338Y472501D01*
X816328Y472525D01*
X816324Y472551D01*
X816312Y472573D01*
X816310Y472581D01*
X816290Y472613D01*
X816278Y472637D01*
X816238Y472726D01*
X816221Y472745D01*
X816208Y472768D01*
X816184Y472791D01*
X816184Y472792D01*
X816183Y472793D01*
X816138Y472835D01*
X816072Y472907D01*
X816049Y472919D01*
X816030Y472938D01*
X815942Y472979D01*
X815856Y473025D01*
X815831Y473030D01*
X815807Y473041D01*
X815710Y473052D01*
X815614Y473069D01*
X815588Y473065D01*
X815563Y473068D01*
X815467Y473048D01*
X815371Y473033D01*
X815348Y473022D01*
X815322Y473016D01*
X815239Y472966D01*
X815152Y472922D01*
X815133Y472903D01*
X815111Y472890D01*
X815048Y472816D01*
X814980Y472746D01*
X814971Y472730D01*
X814969Y472729D01*
X814967Y472723D01*
X814964Y472718D01*
X814951Y472703D01*
X814939Y472672D01*
X814899Y472599D01*
X814070Y470599D01*
X809401Y465930D01*
X803301Y463403D01*
X796699Y463403D01*
X790599Y465930D01*
X785930Y470599D01*
X783403Y476699D01*
X783403Y483301D01*
X784990Y487131D01*
X785016Y487245D01*
X785045Y487359D01*
X785045Y487365D01*
X785046Y487371D01*
X785035Y487488D01*
X785026Y487604D01*
X785023Y487609D01*
X785023Y487616D01*
X784975Y487723D01*
X784930Y487830D01*
X784925Y487836D01*
X784923Y487841D01*
X784910Y487854D01*
X784825Y487961D01*
X767633Y505153D01*
X767539Y505220D01*
X767444Y505291D01*
X767438Y505293D01*
X767433Y505296D01*
X767322Y505330D01*
X767210Y505367D01*
X767204Y505367D01*
X767198Y505369D01*
X767081Y505366D01*
X766964Y505365D01*
X766957Y505362D01*
X766952Y505362D01*
X766935Y505356D01*
X766803Y505318D01*
X761481Y503113D01*
X755519Y503113D01*
X750011Y505395D01*
X746338Y509067D01*
X746322Y509079D01*
X746310Y509094D01*
X746222Y509151D01*
X746139Y509211D01*
X746120Y509217D01*
X746103Y509227D01*
X746002Y509253D01*
X745903Y509283D01*
X745884Y509283D01*
X745864Y509288D01*
X745761Y509280D01*
X745658Y509277D01*
X745639Y509270D01*
X745619Y509268D01*
X745524Y509228D01*
X745427Y509192D01*
X745411Y509180D01*
X745393Y509172D01*
X745262Y509067D01*
X741589Y505395D01*
X736081Y503113D01*
X730119Y503113D01*
X724611Y505395D01*
X720938Y509067D01*
X720922Y509079D01*
X720910Y509094D01*
X720822Y509151D01*
X720739Y509211D01*
X720720Y509217D01*
X720703Y509227D01*
X720602Y509253D01*
X720503Y509283D01*
X720484Y509283D01*
X720464Y509288D01*
X720361Y509280D01*
X720258Y509277D01*
X720239Y509270D01*
X720219Y509268D01*
X720124Y509228D01*
X720027Y509192D01*
X720011Y509180D01*
X719993Y509172D01*
X719862Y509067D01*
X716189Y505395D01*
X710899Y503204D01*
X710860Y503179D01*
X710817Y503164D01*
X710756Y503115D01*
X710690Y503074D01*
X710661Y503039D01*
X710625Y503010D01*
X710583Y502944D01*
X710533Y502884D01*
X710517Y502842D01*
X710492Y502803D01*
X710473Y502727D01*
X710445Y502655D01*
X710443Y502609D01*
X710432Y502565D01*
X710438Y502487D01*
X710435Y502409D01*
X710447Y502365D01*
X710451Y502319D01*
X710481Y502248D01*
X710503Y502173D01*
X710529Y502135D01*
X710547Y502093D01*
X710633Y501986D01*
X710643Y501971D01*
X710648Y501968D01*
X710652Y501962D01*
X723755Y488860D01*
X723828Y488807D01*
X723898Y488747D01*
X723928Y488735D01*
X723954Y488716D01*
X724041Y488689D01*
X724126Y488655D01*
X724167Y488651D01*
X724189Y488644D01*
X724222Y488645D01*
X724293Y488637D01*
X730105Y488637D01*
X730219Y488655D01*
X730336Y488673D01*
X730341Y488675D01*
X730347Y488676D01*
X730450Y488731D01*
X730555Y488784D01*
X730559Y488789D01*
X730565Y488792D01*
X730645Y488876D01*
X730727Y488960D01*
X730731Y488966D01*
X730734Y488970D01*
X730742Y488987D01*
X730808Y489107D01*
X730930Y489401D01*
X735599Y494070D01*
X741699Y496597D01*
X748301Y496597D01*
X754401Y494070D01*
X759070Y489401D01*
X761597Y483301D01*
X761597Y476699D01*
X759070Y470599D01*
X754401Y465930D01*
X748301Y463403D01*
X741699Y463403D01*
X735599Y465930D01*
X730930Y470599D01*
X730808Y470893D01*
X730747Y470992D01*
X730686Y471093D01*
X730682Y471097D01*
X730678Y471102D01*
X730589Y471176D01*
X730500Y471253D01*
X730494Y471255D01*
X730489Y471259D01*
X730381Y471301D01*
X730271Y471345D01*
X730264Y471346D01*
X730259Y471347D01*
X730241Y471348D01*
X730105Y471363D01*
X718682Y471363D01*
X715508Y472678D01*
X685295Y502890D01*
X685222Y502943D01*
X685152Y503003D01*
X685122Y503015D01*
X685096Y503034D01*
X685009Y503061D01*
X684924Y503095D01*
X684883Y503099D01*
X684861Y503106D01*
X684828Y503105D01*
X684757Y503113D01*
X679319Y503113D01*
X673811Y505395D01*
X670138Y509067D01*
X670122Y509079D01*
X670110Y509094D01*
X670022Y509151D01*
X669939Y509211D01*
X669920Y509217D01*
X669903Y509227D01*
X669802Y509253D01*
X669703Y509283D01*
X669684Y509283D01*
X669664Y509288D01*
X669561Y509280D01*
X669458Y509277D01*
X669439Y509270D01*
X669419Y509268D01*
X669324Y509228D01*
X669227Y509192D01*
X669211Y509180D01*
X669193Y509172D01*
X669062Y509067D01*
X665760Y505765D01*
X665707Y505691D01*
X665647Y505622D01*
X665635Y505592D01*
X665616Y505566D01*
X665589Y505479D01*
X665555Y505394D01*
X665551Y505353D01*
X665544Y505330D01*
X665545Y505298D01*
X665537Y505227D01*
X665537Y498282D01*
X664222Y495108D01*
X661792Y492678D01*
X658618Y491363D01*
X599895Y491363D01*
X599781Y491345D01*
X599664Y491327D01*
X599659Y491325D01*
X599653Y491324D01*
X599550Y491269D01*
X599445Y491216D01*
X599441Y491211D01*
X599435Y491208D01*
X599355Y491124D01*
X599273Y491040D01*
X599269Y491034D01*
X599266Y491030D01*
X599258Y491013D01*
X599192Y490893D01*
X599070Y490599D01*
X594401Y485930D01*
X588301Y483403D01*
X581699Y483403D01*
X575599Y485930D01*
X570930Y490599D01*
X568403Y496699D01*
X568403Y503301D01*
X570930Y509401D01*
X575599Y514070D01*
X581699Y516597D01*
X588301Y516597D01*
X594401Y514070D01*
X599070Y509401D01*
X599192Y509107D01*
X599253Y509008D01*
X599314Y508907D01*
X599318Y508903D01*
X599322Y508898D01*
X599411Y508824D01*
X599500Y508747D01*
X599506Y508745D01*
X599511Y508741D01*
X599619Y508699D01*
X599729Y508655D01*
X599736Y508654D01*
X599741Y508653D01*
X599759Y508652D01*
X599895Y508637D01*
X618059Y508637D01*
X618104Y508644D01*
X618150Y508642D01*
X618225Y508664D01*
X618302Y508676D01*
X618342Y508698D01*
X618386Y508711D01*
X618450Y508755D01*
X618519Y508792D01*
X618551Y508825D01*
X618588Y508851D01*
X618635Y508914D01*
X618689Y508970D01*
X618708Y509012D01*
X618735Y509048D01*
X618759Y509122D01*
X618792Y509193D01*
X618797Y509239D01*
X618811Y509282D01*
X618811Y509360D01*
X618819Y509437D01*
X618809Y509482D01*
X618809Y509528D01*
X618771Y509660D01*
X618767Y509678D01*
X618764Y509682D01*
X618762Y509689D01*
X616513Y515119D01*
X616513Y521081D01*
X618795Y526589D01*
X622640Y530435D01*
X622693Y530509D01*
X622753Y530578D01*
X622765Y530608D01*
X622784Y530634D01*
X622811Y530721D01*
X622845Y530806D01*
X622849Y530847D01*
X622856Y530870D01*
X622855Y530902D01*
X622863Y530973D01*
X622863Y534483D01*
X622844Y534598D01*
X622827Y534714D01*
X622825Y534720D01*
X622824Y534726D01*
X622769Y534829D01*
X622716Y534933D01*
X622711Y534938D01*
X622708Y534943D01*
X622624Y535023D01*
X622540Y535106D01*
X622534Y535109D01*
X622530Y535113D01*
X622513Y535121D01*
X622393Y535187D01*
X620599Y535930D01*
X615930Y540599D01*
X613403Y546699D01*
X613403Y553301D01*
X615930Y559401D01*
X620599Y564070D01*
X626699Y566597D01*
X633301Y566597D01*
X639401Y564070D01*
X644070Y559401D01*
X646597Y553301D01*
X646597Y546699D01*
X644070Y540599D01*
X640360Y536888D01*
X640307Y536814D01*
X640247Y536745D01*
X640235Y536715D01*
X640216Y536689D01*
X640189Y536602D01*
X640155Y536517D01*
X640151Y536476D01*
X640144Y536454D01*
X640145Y536421D01*
X640137Y536350D01*
X640137Y530973D01*
X640151Y530883D01*
X640159Y530792D01*
X640171Y530762D01*
X640176Y530730D01*
X640219Y530650D01*
X640255Y530566D01*
X640281Y530534D01*
X640292Y530513D01*
X640315Y530491D01*
X640360Y530435D01*
X643662Y527133D01*
X643678Y527121D01*
X643690Y527106D01*
X643778Y527049D01*
X643861Y526989D01*
X643880Y526983D01*
X643897Y526973D01*
X643998Y526947D01*
X644097Y526917D01*
X644116Y526917D01*
X644136Y526912D01*
X644239Y526920D01*
X644342Y526923D01*
X644361Y526930D01*
X644381Y526932D01*
X644476Y526972D01*
X644573Y527008D01*
X644589Y527020D01*
X644607Y527028D01*
X644738Y527133D01*
X648411Y530805D01*
X653919Y533087D01*
X659881Y533087D01*
X665389Y530805D01*
X669062Y527133D01*
X669078Y527121D01*
X669090Y527106D01*
X669178Y527049D01*
X669261Y526989D01*
X669280Y526983D01*
X669297Y526973D01*
X669398Y526947D01*
X669497Y526917D01*
X669516Y526917D01*
X669536Y526912D01*
X669639Y526920D01*
X669742Y526923D01*
X669761Y526930D01*
X669781Y526932D01*
X669876Y526972D01*
X669973Y527008D01*
X669989Y527020D01*
X670007Y527028D01*
X670138Y527133D01*
X673811Y530805D01*
X679319Y533087D01*
X685281Y533087D01*
X690789Y530805D01*
X694462Y527133D01*
X694478Y527121D01*
X694490Y527106D01*
X694578Y527049D01*
X694661Y526989D01*
X694680Y526983D01*
X694697Y526973D01*
X694798Y526947D01*
X694897Y526917D01*
X694916Y526917D01*
X694936Y526912D01*
X695039Y526920D01*
X695142Y526923D01*
X695161Y526930D01*
X695181Y526932D01*
X695276Y526972D01*
X695373Y527008D01*
X695389Y527020D01*
X695407Y527028D01*
X695538Y527133D01*
X698840Y530435D01*
X698893Y530509D01*
X698953Y530578D01*
X698965Y530608D01*
X698984Y530634D01*
X699011Y530722D01*
X699045Y530806D01*
X699049Y530847D01*
X699056Y530870D01*
X699055Y530902D01*
X699063Y530973D01*
X699063Y561107D01*
X699049Y561197D01*
X699041Y561288D01*
X699029Y561318D01*
X699024Y561350D01*
X698981Y561431D01*
X698945Y561515D01*
X698919Y561547D01*
X698908Y561567D01*
X698885Y561590D01*
X698840Y561645D01*
X689345Y571140D01*
X689272Y571193D01*
X689202Y571253D01*
X689172Y571265D01*
X689146Y571284D01*
X689059Y571311D01*
X688974Y571345D01*
X688933Y571349D01*
X688911Y571356D01*
X688878Y571355D01*
X688807Y571363D01*
X411966Y571363D01*
X411852Y571344D01*
X411736Y571327D01*
X411730Y571325D01*
X411724Y571324D01*
X411621Y571269D01*
X411516Y571216D01*
X411512Y571211D01*
X411506Y571208D01*
X411426Y571124D01*
X411344Y571040D01*
X411340Y571034D01*
X411337Y571030D01*
X411329Y571013D01*
X411263Y570893D01*
X409070Y565599D01*
X404401Y560930D01*
X398301Y558403D01*
X391699Y558403D01*
X385599Y560930D01*
X380930Y565599D01*
X378403Y571699D01*
X378403Y578301D01*
X380930Y584401D01*
X385599Y589070D01*
X391699Y591597D01*
X398301Y591597D01*
X404401Y589070D01*
X404612Y588860D01*
X404686Y588807D01*
X404755Y588747D01*
X404785Y588735D01*
X404811Y588716D01*
X404898Y588689D01*
X404983Y588655D01*
X405024Y588651D01*
X405046Y588644D01*
X405079Y588645D01*
X405150Y588637D01*
X694418Y588637D01*
X697592Y587322D01*
X700129Y584785D01*
X712104Y572810D01*
X712162Y572769D01*
X712214Y572719D01*
X712261Y572697D01*
X712303Y572667D01*
X712372Y572646D01*
X712437Y572616D01*
X712489Y572610D01*
X712539Y572595D01*
X712610Y572596D01*
X712681Y572589D01*
X712732Y572600D01*
X712784Y572601D01*
X712852Y572626D01*
X712922Y572641D01*
X712967Y572667D01*
X713015Y572685D01*
X713071Y572730D01*
X713133Y572767D01*
X713167Y572807D01*
X713207Y572839D01*
X713246Y572899D01*
X713293Y572954D01*
X713312Y573002D01*
X713340Y573046D01*
X713358Y573115D01*
X713385Y573182D01*
X713393Y573253D01*
X713401Y573285D01*
X713400Y573293D01*
X715930Y579401D01*
X720599Y584070D01*
X726699Y586597D01*
X733301Y586597D01*
X739401Y584070D01*
X744070Y579401D01*
X746597Y573301D01*
X746597Y566699D01*
X744070Y560599D01*
X741960Y558488D01*
X741907Y558414D01*
X741847Y558345D01*
X741835Y558315D01*
X741816Y558289D01*
X741789Y558202D01*
X741755Y558117D01*
X741751Y558076D01*
X741744Y558054D01*
X741745Y558021D01*
X741737Y557950D01*
X741737Y530973D01*
X741751Y530883D01*
X741759Y530792D01*
X741771Y530762D01*
X741776Y530730D01*
X741819Y530650D01*
X741855Y530566D01*
X741881Y530534D01*
X741892Y530513D01*
X741915Y530491D01*
X741960Y530435D01*
X745262Y527133D01*
X745278Y527121D01*
X745290Y527106D01*
X745378Y527049D01*
X745461Y526989D01*
X745480Y526983D01*
X745497Y526973D01*
X745598Y526947D01*
X745697Y526917D01*
X745716Y526917D01*
X745736Y526912D01*
X745839Y526920D01*
X745942Y526923D01*
X745961Y526930D01*
X745981Y526932D01*
X746076Y526972D01*
X746173Y527008D01*
X746189Y527020D01*
X746207Y527028D01*
X746338Y527133D01*
X750011Y530805D01*
X755519Y533087D01*
X761481Y533087D01*
X766989Y530805D01*
X771205Y526589D01*
X771557Y525739D01*
X771592Y525683D01*
X771618Y525623D01*
X771670Y525558D01*
X771687Y525530D01*
X771702Y525517D01*
X771722Y525492D01*
X774329Y522885D01*
X800395Y496820D01*
X800468Y496767D01*
X800538Y496707D01*
X800568Y496695D01*
X800594Y496676D01*
X800681Y496649D01*
X800766Y496615D01*
X800807Y496611D01*
X800829Y496604D01*
X800862Y496605D01*
X800933Y496597D01*
X803301Y496597D01*
X809401Y494070D01*
X814070Y489401D01*
X814899Y487401D01*
X814950Y487318D01*
X814996Y487232D01*
X815015Y487214D01*
X815028Y487192D01*
X815103Y487129D01*
X815174Y487062D01*
X815198Y487051D01*
X815218Y487035D01*
X815309Y487000D01*
X815397Y486959D01*
X815423Y486956D01*
X815447Y486947D01*
X815545Y486942D01*
X815641Y486932D01*
X815667Y486937D01*
X815693Y486936D01*
X815787Y486963D01*
X815882Y486984D01*
X815904Y486997D01*
X815929Y487005D01*
X816009Y487060D01*
X816093Y487110D01*
X816110Y487130D01*
X816131Y487145D01*
X816190Y487223D01*
X816253Y487297D01*
X816263Y487321D01*
X816278Y487342D01*
X816308Y487435D01*
X816345Y487525D01*
X816348Y487558D01*
X816354Y487576D01*
X816354Y487609D01*
X816363Y487692D01*
X816363Y501107D01*
X816349Y501197D01*
X816341Y501288D01*
X816329Y501318D01*
X816324Y501350D01*
X816281Y501431D01*
X816245Y501515D01*
X816219Y501547D01*
X816208Y501567D01*
X816185Y501590D01*
X816140Y501646D01*
X789426Y528360D01*
X789332Y528428D01*
X789237Y528498D01*
X789231Y528500D01*
X789226Y528504D01*
X789115Y528538D01*
X789003Y528574D01*
X788997Y528574D01*
X788991Y528576D01*
X788874Y528573D01*
X788757Y528572D01*
X788750Y528570D01*
X788745Y528570D01*
X788727Y528563D01*
X788596Y528525D01*
X788301Y528403D01*
X781699Y528403D01*
X775599Y530930D01*
X770930Y535599D01*
X768403Y541699D01*
X768403Y548301D01*
X770930Y554401D01*
X775599Y559070D01*
X778303Y560190D01*
X778319Y560200D01*
X778337Y560205D01*
X778423Y560264D01*
X778512Y560320D01*
X778524Y560334D01*
X778539Y560345D01*
X778602Y560428D01*
X778669Y560509D01*
X778676Y560527D01*
X778687Y560542D01*
X778720Y560641D01*
X778757Y560739D01*
X778758Y560758D01*
X778764Y560775D01*
X778763Y560880D01*
X778768Y560985D01*
X778762Y561003D01*
X778762Y561021D01*
X778728Y561120D01*
X778699Y561221D01*
X778688Y561236D01*
X778682Y561254D01*
X778587Y561392D01*
X775689Y564736D01*
X770164Y576835D01*
X768271Y590000D01*
X770164Y603165D01*
X775689Y615264D01*
X780488Y620802D01*
X780512Y620840D01*
X780542Y620872D01*
X780576Y620944D01*
X780617Y621011D01*
X780627Y621055D01*
X780646Y621096D01*
X780655Y621174D01*
X780673Y621251D01*
X780668Y621296D01*
X780673Y621340D01*
X780656Y621417D01*
X780649Y621496D01*
X780630Y621537D01*
X780621Y621580D01*
X780580Y621648D01*
X780548Y621720D01*
X780518Y621753D01*
X780495Y621791D01*
X780435Y621843D01*
X780381Y621901D01*
X780342Y621922D01*
X780308Y621951D01*
X780234Y621981D01*
X780165Y622019D01*
X780121Y622027D01*
X780080Y622043D01*
X779939Y622059D01*
X779923Y622062D01*
X779919Y622061D01*
X779913Y622062D01*
X75087Y622062D01*
X75043Y622055D01*
X74998Y622057D01*
X74922Y622035D01*
X74844Y622022D01*
X74805Y622001D01*
X74762Y621989D01*
X74697Y621944D01*
X74627Y621907D01*
X74596Y621875D01*
X74559Y621849D01*
X74512Y621786D01*
X74458Y621729D01*
X74439Y621688D01*
X74412Y621652D01*
X74387Y621577D01*
X74354Y621506D01*
X74349Y621461D01*
X74335Y621419D01*
X74336Y621340D01*
X74327Y621261D01*
X74336Y621217D01*
X74337Y621173D01*
X74362Y621098D01*
X74379Y621021D01*
X74402Y620982D01*
X74417Y620940D01*
X74497Y620823D01*
X74505Y620810D01*
X74508Y620807D01*
X74512Y620802D01*
X79311Y615264D01*
X84836Y603165D01*
X86729Y590000D01*
X84836Y576835D01*
X79311Y564736D01*
X70601Y554685D01*
X59412Y547494D01*
X46650Y543747D01*
X33350Y543747D01*
X20588Y547494D01*
X9399Y554685D01*
X9275Y554828D01*
X9199Y554891D01*
X9128Y554959D01*
X9105Y554970D01*
X9086Y554985D01*
X8994Y555021D01*
X8904Y555063D01*
X8880Y555065D01*
X8857Y555074D01*
X8758Y555079D01*
X8660Y555090D01*
X8636Y555085D01*
X8611Y555086D01*
X8516Y555059D01*
X8420Y555038D01*
X8398Y555025D01*
X8374Y555018D01*
X8293Y554962D01*
X8209Y554911D01*
X8192Y554892D01*
X8172Y554878D01*
X8113Y554800D01*
X8049Y554724D01*
X8039Y554701D01*
X8024Y554681D01*
X7994Y554588D01*
X7957Y554496D01*
X7953Y554465D01*
X7947Y554448D01*
X7948Y554415D01*
X7938Y554330D01*
X7938Y75670D01*
X7940Y75658D01*
X7939Y75650D01*
X7949Y75607D01*
X7954Y75573D01*
X7964Y75475D01*
X7974Y75452D01*
X7978Y75428D01*
X8024Y75341D01*
X8064Y75251D01*
X8081Y75232D01*
X8093Y75210D01*
X8165Y75142D01*
X8231Y75070D01*
X8253Y75058D01*
X8271Y75041D01*
X8361Y74999D01*
X8447Y74952D01*
X8472Y74948D01*
X8494Y74937D01*
X8592Y74926D01*
X8690Y74909D01*
X8714Y74913D01*
X8739Y74910D01*
X8835Y74931D01*
X8933Y74946D01*
X8955Y74957D01*
X8979Y74962D01*
X9064Y75013D01*
X9152Y75058D01*
X9174Y75079D01*
X9190Y75089D01*
X9212Y75114D01*
X9275Y75172D01*
X9399Y75315D01*
X20588Y82506D01*
X33350Y86253D01*
X46650Y86253D01*
X59412Y82506D01*
X70601Y75315D01*
X79311Y65264D01*
X84836Y53165D01*
X86729Y40000D01*
X84836Y26835D01*
X79311Y14736D01*
X74512Y9198D01*
X74488Y9160D01*
X74458Y9128D01*
X74424Y9056D01*
X74383Y8989D01*
X74373Y8945D01*
X74354Y8904D01*
X74345Y8826D01*
X74327Y8749D01*
X74332Y8704D01*
X74327Y8660D01*
X74344Y8583D01*
X74351Y8504D01*
X74370Y8463D01*
X74379Y8420D01*
X74420Y8352D01*
X74452Y8280D01*
X74482Y8247D01*
X74505Y8209D01*
X74565Y8157D01*
X74619Y8099D01*
X74658Y8078D01*
X74692Y8049D01*
X74766Y8019D01*
X74835Y7981D01*
X74879Y7973D01*
X74920Y7957D01*
X75061Y7941D01*
X75077Y7938D01*
X75081Y7939D01*
X75087Y7938D01*
X779913Y7938D01*
X779957Y7945D01*
G37*
%LPC*%
G36*
X136972Y562863D02*
X136972Y562863D01*
X131930Y564952D01*
X128072Y568810D01*
X125983Y573852D01*
X125983Y594548D01*
X128072Y599590D01*
X131930Y603448D01*
X136972Y605537D01*
X142428Y605537D01*
X147470Y603448D01*
X151328Y599590D01*
X151697Y598701D01*
X151734Y598640D01*
X151764Y598575D01*
X151799Y598536D01*
X151826Y598492D01*
X151882Y598446D01*
X151930Y598393D01*
X151976Y598368D01*
X152016Y598335D01*
X152083Y598309D01*
X152146Y598275D01*
X152197Y598266D01*
X152245Y598247D01*
X152317Y598244D01*
X152388Y598231D01*
X152439Y598239D01*
X152491Y598237D01*
X152560Y598256D01*
X152631Y598267D01*
X152677Y598291D01*
X152727Y598305D01*
X152786Y598346D01*
X152850Y598378D01*
X152887Y598416D01*
X152929Y598445D01*
X152972Y598503D01*
X153022Y598554D01*
X153057Y598617D01*
X153076Y598643D01*
X153084Y598665D01*
X153103Y598701D01*
X153472Y599590D01*
X157330Y603448D01*
X162372Y605537D01*
X167828Y605537D01*
X172870Y603448D01*
X176728Y599590D01*
X177097Y598701D01*
X177134Y598640D01*
X177164Y598575D01*
X177199Y598536D01*
X177226Y598492D01*
X177282Y598446D01*
X177330Y598393D01*
X177376Y598368D01*
X177416Y598335D01*
X177483Y598309D01*
X177546Y598275D01*
X177597Y598266D01*
X177645Y598247D01*
X177717Y598244D01*
X177788Y598231D01*
X177839Y598239D01*
X177891Y598237D01*
X177960Y598256D01*
X178031Y598267D01*
X178077Y598291D01*
X178127Y598305D01*
X178186Y598346D01*
X178250Y598378D01*
X178287Y598416D01*
X178329Y598445D01*
X178372Y598503D01*
X178422Y598554D01*
X178457Y598617D01*
X178476Y598643D01*
X178484Y598665D01*
X178503Y598701D01*
X178872Y599590D01*
X182730Y603448D01*
X187772Y605537D01*
X193228Y605537D01*
X198270Y603448D01*
X202128Y599590D01*
X204217Y594548D01*
X204217Y573852D01*
X202128Y568810D01*
X198270Y564952D01*
X193228Y562863D01*
X187772Y562863D01*
X182730Y564952D01*
X178872Y568810D01*
X178503Y569699D01*
X178466Y569760D01*
X178436Y569825D01*
X178401Y569864D01*
X178374Y569908D01*
X178319Y569954D01*
X178270Y570007D01*
X178224Y570032D01*
X178184Y570065D01*
X178117Y570091D01*
X178054Y570125D01*
X178003Y570134D01*
X177955Y570153D01*
X177883Y570156D01*
X177812Y570169D01*
X177761Y570161D01*
X177709Y570163D01*
X177640Y570144D01*
X177569Y570133D01*
X177523Y570109D01*
X177473Y570095D01*
X177414Y570054D01*
X177350Y570022D01*
X177313Y569984D01*
X177271Y569955D01*
X177228Y569897D01*
X177178Y569846D01*
X177143Y569783D01*
X177124Y569757D01*
X177117Y569735D01*
X177097Y569699D01*
X176728Y568810D01*
X172870Y564952D01*
X167828Y562863D01*
X162372Y562863D01*
X157330Y564952D01*
X153472Y568810D01*
X153103Y569699D01*
X153066Y569760D01*
X153036Y569825D01*
X153001Y569864D01*
X152974Y569908D01*
X152919Y569954D01*
X152870Y570007D01*
X152824Y570032D01*
X152784Y570065D01*
X152717Y570091D01*
X152654Y570125D01*
X152603Y570134D01*
X152555Y570153D01*
X152483Y570156D01*
X152412Y570169D01*
X152361Y570161D01*
X152309Y570163D01*
X152240Y570144D01*
X152169Y570133D01*
X152123Y570109D01*
X152073Y570095D01*
X152014Y570054D01*
X151950Y570022D01*
X151913Y569984D01*
X151871Y569955D01*
X151828Y569897D01*
X151778Y569846D01*
X151743Y569783D01*
X151724Y569757D01*
X151717Y569735D01*
X151697Y569699D01*
X151328Y568810D01*
X147470Y564952D01*
X142428Y562863D01*
X136972Y562863D01*
G37*
%LPD*%
%LPC*%
G36*
X89696Y118403D02*
X89696Y118403D01*
X84515Y120549D01*
X81424Y123640D01*
X81350Y123693D01*
X81280Y123753D01*
X81250Y123765D01*
X81224Y123784D01*
X81137Y123811D01*
X81052Y123845D01*
X81011Y123849D01*
X80989Y123856D01*
X80957Y123855D01*
X80886Y123863D01*
X60782Y123863D01*
X60388Y124026D01*
X60300Y124047D01*
X60213Y124075D01*
X60180Y124075D01*
X60149Y124083D01*
X60058Y124074D01*
X59967Y124073D01*
X59927Y124062D01*
X59904Y124059D01*
X59875Y124046D01*
X59806Y124026D01*
X58301Y123403D01*
X51699Y123403D01*
X45599Y125930D01*
X40930Y130599D01*
X38403Y136699D01*
X38403Y143301D01*
X40930Y149401D01*
X45599Y154070D01*
X51699Y156597D01*
X58301Y156597D01*
X64401Y154070D01*
X69070Y149401D01*
X71597Y143301D01*
X71597Y141898D01*
X71599Y141886D01*
X71598Y141879D01*
X71599Y141872D01*
X71598Y141859D01*
X71620Y141757D01*
X71636Y141655D01*
X71646Y141638D01*
X71650Y141618D01*
X71703Y141529D01*
X71752Y141438D01*
X71766Y141424D01*
X71776Y141407D01*
X71855Y141340D01*
X71930Y141268D01*
X71948Y141260D01*
X71963Y141247D01*
X72059Y141208D01*
X72153Y141165D01*
X72173Y141163D01*
X72191Y141155D01*
X72358Y141137D01*
X80886Y141137D01*
X80976Y141151D01*
X81067Y141159D01*
X81096Y141171D01*
X81128Y141176D01*
X81209Y141219D01*
X81293Y141255D01*
X81325Y141281D01*
X81346Y141292D01*
X81364Y141311D01*
X81366Y141312D01*
X81372Y141318D01*
X81424Y141360D01*
X84515Y144451D01*
X89696Y146597D01*
X95304Y146597D01*
X100485Y144451D01*
X104451Y140485D01*
X106597Y135304D01*
X106597Y129696D01*
X104451Y124515D01*
X100485Y120549D01*
X95304Y118403D01*
X89696Y118403D01*
G37*
%LPD*%
%LPC*%
G36*
X89696Y308403D02*
X89696Y308403D01*
X84515Y310549D01*
X81424Y313640D01*
X81350Y313693D01*
X81281Y313753D01*
X81250Y313765D01*
X81224Y313784D01*
X81137Y313811D01*
X81052Y313845D01*
X81011Y313849D01*
X80989Y313856D01*
X80957Y313855D01*
X80886Y313863D01*
X60782Y313863D01*
X60388Y314026D01*
X60300Y314047D01*
X60213Y314075D01*
X60180Y314075D01*
X60149Y314083D01*
X60058Y314074D01*
X59967Y314073D01*
X59927Y314062D01*
X59904Y314059D01*
X59875Y314046D01*
X59806Y314026D01*
X58301Y313403D01*
X51699Y313403D01*
X45599Y315930D01*
X40930Y320599D01*
X38403Y326699D01*
X38403Y333301D01*
X40930Y339401D01*
X45599Y344070D01*
X51699Y346597D01*
X58301Y346597D01*
X64401Y344070D01*
X69070Y339401D01*
X71597Y333301D01*
X71597Y331898D01*
X71600Y331878D01*
X71598Y331859D01*
X71620Y331757D01*
X71636Y331655D01*
X71646Y331638D01*
X71650Y331618D01*
X71703Y331529D01*
X71752Y331438D01*
X71766Y331424D01*
X71776Y331407D01*
X71855Y331340D01*
X71930Y331268D01*
X71948Y331260D01*
X71963Y331247D01*
X72059Y331208D01*
X72153Y331165D01*
X72173Y331163D01*
X72191Y331155D01*
X72358Y331137D01*
X80886Y331137D01*
X80976Y331151D01*
X81067Y331159D01*
X81096Y331171D01*
X81128Y331176D01*
X81209Y331219D01*
X81293Y331255D01*
X81325Y331281D01*
X81346Y331292D01*
X81368Y331315D01*
X81424Y331360D01*
X84515Y334451D01*
X89696Y336597D01*
X95304Y336597D01*
X100485Y334451D01*
X104451Y330485D01*
X106597Y325304D01*
X106597Y319696D01*
X104451Y314515D01*
X100485Y310549D01*
X95304Y308403D01*
X89696Y308403D01*
G37*
%LPD*%
%LPC*%
G36*
X51699Y213403D02*
X51699Y213403D01*
X45599Y215930D01*
X40930Y220599D01*
X38403Y226699D01*
X38403Y233301D01*
X40930Y239401D01*
X45599Y244070D01*
X51699Y246597D01*
X58301Y246597D01*
X64401Y244070D01*
X69070Y239401D01*
X70228Y236607D01*
X70289Y236507D01*
X70349Y236407D01*
X70354Y236403D01*
X70357Y236398D01*
X70447Y236323D01*
X70536Y236247D01*
X70542Y236245D01*
X70547Y236241D01*
X70655Y236199D01*
X70764Y236155D01*
X70772Y236154D01*
X70776Y236153D01*
X70795Y236152D01*
X70931Y236137D01*
X80886Y236137D01*
X80976Y236151D01*
X81067Y236159D01*
X81096Y236171D01*
X81128Y236176D01*
X81209Y236219D01*
X81293Y236255D01*
X81325Y236281D01*
X81346Y236292D01*
X81368Y236315D01*
X81424Y236360D01*
X84515Y239451D01*
X89696Y241597D01*
X95304Y241597D01*
X100485Y239451D01*
X104451Y235485D01*
X106597Y230304D01*
X106597Y224696D01*
X104451Y219515D01*
X100485Y215549D01*
X95304Y213403D01*
X89696Y213403D01*
X84515Y215549D01*
X81424Y218640D01*
X81350Y218693D01*
X81280Y218753D01*
X81250Y218765D01*
X81224Y218784D01*
X81137Y218811D01*
X81052Y218845D01*
X81011Y218849D01*
X80989Y218856D01*
X80957Y218855D01*
X80886Y218863D01*
X67650Y218863D01*
X67560Y218849D01*
X67469Y218841D01*
X67439Y218829D01*
X67407Y218824D01*
X67326Y218781D01*
X67243Y218745D01*
X67210Y218719D01*
X67190Y218708D01*
X67168Y218685D01*
X67112Y218640D01*
X64401Y215930D01*
X58301Y213403D01*
X51699Y213403D01*
G37*
%LPD*%
%LPC*%
G36*
X51699Y403403D02*
X51699Y403403D01*
X45599Y405930D01*
X40930Y410599D01*
X38403Y416699D01*
X38403Y423301D01*
X40930Y429401D01*
X45599Y434070D01*
X51699Y436597D01*
X58301Y436597D01*
X64401Y434070D01*
X69070Y429401D01*
X70228Y426607D01*
X70289Y426507D01*
X70349Y426407D01*
X70354Y426403D01*
X70357Y426398D01*
X70447Y426323D01*
X70536Y426247D01*
X70542Y426245D01*
X70547Y426241D01*
X70655Y426199D01*
X70764Y426155D01*
X70772Y426154D01*
X70776Y426153D01*
X70795Y426152D01*
X70931Y426137D01*
X80886Y426137D01*
X80976Y426151D01*
X81067Y426159D01*
X81096Y426171D01*
X81128Y426176D01*
X81209Y426219D01*
X81293Y426255D01*
X81325Y426281D01*
X81346Y426292D01*
X81368Y426315D01*
X81424Y426360D01*
X84515Y429451D01*
X89696Y431597D01*
X95304Y431597D01*
X100485Y429451D01*
X104451Y425485D01*
X106597Y420304D01*
X106597Y414696D01*
X104451Y409515D01*
X100485Y405549D01*
X95304Y403403D01*
X89696Y403403D01*
X84515Y405549D01*
X81424Y408640D01*
X81350Y408693D01*
X81280Y408753D01*
X81250Y408765D01*
X81224Y408784D01*
X81137Y408811D01*
X81052Y408845D01*
X81011Y408849D01*
X80989Y408856D01*
X80957Y408855D01*
X80886Y408863D01*
X67650Y408863D01*
X67560Y408849D01*
X67469Y408841D01*
X67439Y408829D01*
X67407Y408824D01*
X67327Y408781D01*
X67243Y408745D01*
X67210Y408719D01*
X67190Y408708D01*
X67168Y408685D01*
X67112Y408640D01*
X64401Y405930D01*
X58301Y403403D01*
X51699Y403403D01*
G37*
%LPD*%
%LPC*%
G36*
X51699Y493403D02*
X51699Y493403D01*
X45599Y495930D01*
X40930Y500599D01*
X38403Y506699D01*
X38403Y513301D01*
X40930Y519401D01*
X45599Y524070D01*
X51699Y526597D01*
X58301Y526597D01*
X64401Y524070D01*
X67112Y521360D01*
X67186Y521307D01*
X67255Y521247D01*
X67285Y521235D01*
X67311Y521216D01*
X67398Y521189D01*
X67483Y521155D01*
X67524Y521151D01*
X67546Y521144D01*
X67579Y521145D01*
X67650Y521137D01*
X80886Y521137D01*
X80976Y521151D01*
X81067Y521159D01*
X81096Y521171D01*
X81128Y521176D01*
X81209Y521219D01*
X81293Y521255D01*
X81325Y521281D01*
X81346Y521292D01*
X81368Y521315D01*
X81424Y521360D01*
X84515Y524451D01*
X89696Y526597D01*
X95304Y526597D01*
X100485Y524451D01*
X104451Y520485D01*
X106597Y515304D01*
X106597Y509696D01*
X104451Y504515D01*
X100485Y500549D01*
X95304Y498403D01*
X89696Y498403D01*
X84515Y500549D01*
X81424Y503640D01*
X81350Y503693D01*
X81281Y503753D01*
X81250Y503765D01*
X81224Y503784D01*
X81137Y503811D01*
X81052Y503845D01*
X81011Y503849D01*
X80989Y503856D01*
X80957Y503855D01*
X80886Y503863D01*
X70931Y503863D01*
X70816Y503844D01*
X70700Y503827D01*
X70694Y503825D01*
X70688Y503824D01*
X70586Y503769D01*
X70481Y503716D01*
X70476Y503711D01*
X70471Y503708D01*
X70391Y503624D01*
X70308Y503540D01*
X70305Y503534D01*
X70301Y503530D01*
X70294Y503513D01*
X70228Y503393D01*
X69070Y500599D01*
X64401Y495930D01*
X58301Y493403D01*
X51699Y493403D01*
G37*
%LPD*%
%LPC*%
G36*
X747589Y257823D02*
X747589Y257823D01*
X739438Y261199D01*
X733199Y267438D01*
X729823Y275589D01*
X729823Y284411D01*
X733199Y292562D01*
X739438Y298801D01*
X747589Y302177D01*
X756411Y302177D01*
X764562Y298801D01*
X770801Y292562D01*
X774177Y284411D01*
X774177Y275589D01*
X770801Y267438D01*
X764562Y261199D01*
X756411Y257823D01*
X747589Y257823D01*
G37*
%LPD*%
%LPC*%
G36*
X633589Y257823D02*
X633589Y257823D01*
X625438Y261199D01*
X619199Y267438D01*
X615823Y275589D01*
X615823Y284411D01*
X619199Y292562D01*
X625438Y298801D01*
X633589Y302177D01*
X642411Y302177D01*
X650562Y298801D01*
X656801Y292562D01*
X660177Y284411D01*
X660177Y275589D01*
X656801Y267438D01*
X650562Y261199D01*
X642411Y257823D01*
X633589Y257823D01*
G37*
%LPD*%
%LPC*%
G36*
X181699Y303403D02*
X181699Y303403D01*
X175599Y305930D01*
X170930Y310599D01*
X170808Y310893D01*
X170747Y310992D01*
X170686Y311093D01*
X170682Y311097D01*
X170678Y311102D01*
X170589Y311176D01*
X170500Y311253D01*
X170494Y311255D01*
X170489Y311259D01*
X170381Y311300D01*
X170271Y311345D01*
X170264Y311346D01*
X170259Y311347D01*
X170241Y311348D01*
X170105Y311363D01*
X166614Y311363D01*
X166524Y311349D01*
X166433Y311341D01*
X166404Y311329D01*
X166372Y311324D01*
X166291Y311281D01*
X166207Y311245D01*
X166175Y311219D01*
X166154Y311208D01*
X166132Y311185D01*
X166076Y311140D01*
X165485Y310549D01*
X160304Y308403D01*
X154696Y308403D01*
X149515Y310549D01*
X145549Y314515D01*
X143403Y319696D01*
X143403Y325304D01*
X145549Y330485D01*
X149515Y334451D01*
X154696Y336597D01*
X160304Y336597D01*
X165485Y334451D01*
X169451Y330485D01*
X169765Y329725D01*
X169790Y329686D01*
X169805Y329643D01*
X169854Y329582D01*
X169895Y329516D01*
X169930Y329487D01*
X169959Y329451D01*
X170024Y329409D01*
X170084Y329359D01*
X170127Y329343D01*
X170166Y329318D01*
X170241Y329299D01*
X170314Y329271D01*
X170360Y329269D01*
X170404Y329258D01*
X170482Y329264D01*
X170560Y329261D01*
X170604Y329274D01*
X170650Y329277D01*
X170721Y329308D01*
X170796Y329329D01*
X170834Y329356D01*
X170876Y329373D01*
X170983Y329459D01*
X170998Y329470D01*
X171001Y329474D01*
X171007Y329478D01*
X175599Y334070D01*
X181699Y336597D01*
X188301Y336597D01*
X194401Y334070D01*
X199070Y329401D01*
X201597Y323301D01*
X201597Y316699D01*
X199070Y310599D01*
X194401Y305930D01*
X188301Y303403D01*
X181699Y303403D01*
G37*
%LPD*%
%LPC*%
G36*
X154696Y403403D02*
X154696Y403403D01*
X149515Y405549D01*
X145549Y409515D01*
X143403Y414696D01*
X143403Y420304D01*
X145549Y425485D01*
X149515Y429451D01*
X154696Y431597D01*
X160304Y431597D01*
X165485Y429451D01*
X166076Y428860D01*
X166150Y428806D01*
X166219Y428747D01*
X166250Y428735D01*
X166276Y428716D01*
X166363Y428689D01*
X166448Y428655D01*
X166489Y428651D01*
X166511Y428644D01*
X166543Y428645D01*
X166614Y428637D01*
X170105Y428637D01*
X170219Y428655D01*
X170336Y428673D01*
X170341Y428675D01*
X170347Y428676D01*
X170449Y428731D01*
X170555Y428784D01*
X170559Y428789D01*
X170565Y428792D01*
X170645Y428876D01*
X170727Y428960D01*
X170731Y428966D01*
X170734Y428970D01*
X170742Y428987D01*
X170808Y429107D01*
X170930Y429401D01*
X175599Y434070D01*
X181699Y436597D01*
X188301Y436597D01*
X194401Y434070D01*
X199070Y429401D01*
X201597Y423301D01*
X201597Y416699D01*
X199070Y410599D01*
X194401Y405930D01*
X188301Y403403D01*
X181699Y403403D01*
X175599Y405930D01*
X171007Y410522D01*
X170970Y410548D01*
X170939Y410582D01*
X170870Y410620D01*
X170807Y410665D01*
X170763Y410679D01*
X170723Y410701D01*
X170646Y410715D01*
X170572Y410738D01*
X170526Y410736D01*
X170481Y410745D01*
X170404Y410733D01*
X170326Y410731D01*
X170283Y410715D01*
X170238Y410709D01*
X170168Y410674D01*
X170095Y410647D01*
X170059Y410618D01*
X170018Y410597D01*
X169964Y410542D01*
X169903Y410493D01*
X169878Y410454D01*
X169846Y410422D01*
X169780Y410302D01*
X169770Y410286D01*
X169769Y410281D01*
X169765Y410275D01*
X169451Y409515D01*
X165485Y405549D01*
X160304Y403403D01*
X154696Y403403D01*
G37*
%LPD*%
%LPC*%
G36*
X181699Y113403D02*
X181699Y113403D01*
X175599Y115930D01*
X170930Y120599D01*
X170808Y120893D01*
X170747Y120992D01*
X170686Y121093D01*
X170682Y121097D01*
X170678Y121102D01*
X170589Y121176D01*
X170500Y121253D01*
X170494Y121255D01*
X170489Y121259D01*
X170381Y121300D01*
X170271Y121345D01*
X170264Y121346D01*
X170259Y121347D01*
X170241Y121348D01*
X170105Y121363D01*
X166614Y121363D01*
X166524Y121349D01*
X166433Y121341D01*
X166404Y121329D01*
X166372Y121324D01*
X166291Y121281D01*
X166207Y121245D01*
X166175Y121219D01*
X166154Y121208D01*
X166132Y121185D01*
X166076Y121140D01*
X165485Y120549D01*
X160304Y118403D01*
X154696Y118403D01*
X149515Y120549D01*
X145549Y124515D01*
X143403Y129696D01*
X143403Y135304D01*
X145549Y140485D01*
X149515Y144451D01*
X154696Y146597D01*
X160304Y146597D01*
X165485Y144451D01*
X169451Y140485D01*
X169765Y139725D01*
X169790Y139686D01*
X169805Y139643D01*
X169854Y139582D01*
X169895Y139516D01*
X169930Y139487D01*
X169959Y139451D01*
X170025Y139409D01*
X170085Y139359D01*
X170127Y139343D01*
X170166Y139318D01*
X170242Y139299D01*
X170314Y139271D01*
X170360Y139269D01*
X170404Y139258D01*
X170482Y139264D01*
X170560Y139261D01*
X170604Y139274D01*
X170650Y139277D01*
X170721Y139308D01*
X170796Y139329D01*
X170834Y139356D01*
X170876Y139373D01*
X170983Y139459D01*
X170998Y139470D01*
X171001Y139474D01*
X171007Y139478D01*
X175599Y144070D01*
X181699Y146597D01*
X188301Y146597D01*
X194401Y144070D01*
X199070Y139401D01*
X201597Y133301D01*
X201597Y126699D01*
X199070Y120599D01*
X194401Y115930D01*
X188301Y113403D01*
X181699Y113403D01*
G37*
%LPD*%
%LPC*%
G36*
X181699Y493403D02*
X181699Y493403D01*
X175599Y495930D01*
X170930Y500599D01*
X169786Y503361D01*
X169761Y503400D01*
X169746Y503443D01*
X169697Y503504D01*
X169656Y503570D01*
X169621Y503600D01*
X169592Y503635D01*
X169527Y503678D01*
X169467Y503727D01*
X169424Y503744D01*
X169385Y503768D01*
X169310Y503788D01*
X169237Y503815D01*
X169191Y503817D01*
X169147Y503829D01*
X169069Y503823D01*
X168991Y503826D01*
X168947Y503813D01*
X168901Y503809D01*
X168830Y503779D01*
X168755Y503757D01*
X168717Y503731D01*
X168675Y503713D01*
X168568Y503628D01*
X168553Y503617D01*
X168550Y503613D01*
X168544Y503608D01*
X165485Y500549D01*
X160304Y498403D01*
X154696Y498403D01*
X149515Y500549D01*
X145549Y504515D01*
X143403Y509696D01*
X143403Y515304D01*
X145549Y520485D01*
X149515Y524451D01*
X154696Y526597D01*
X160304Y526597D01*
X165485Y524451D01*
X168576Y521360D01*
X168650Y521307D01*
X168720Y521247D01*
X168750Y521235D01*
X168776Y521216D01*
X168863Y521189D01*
X168948Y521155D01*
X168989Y521151D01*
X169011Y521144D01*
X169043Y521145D01*
X169114Y521137D01*
X172350Y521137D01*
X172440Y521151D01*
X172531Y521159D01*
X172561Y521171D01*
X172593Y521176D01*
X172673Y521219D01*
X172757Y521255D01*
X172790Y521281D01*
X172810Y521292D01*
X172832Y521315D01*
X172888Y521360D01*
X175599Y524070D01*
X181699Y526597D01*
X188301Y526597D01*
X194401Y524070D01*
X199070Y519401D01*
X201597Y513301D01*
X201597Y506699D01*
X199070Y500599D01*
X194401Y495930D01*
X188301Y493403D01*
X181699Y493403D01*
G37*
%LPD*%
%LPC*%
G36*
X238572Y562863D02*
X238572Y562863D01*
X233530Y564952D01*
X229672Y568810D01*
X227583Y573852D01*
X227583Y594548D01*
X229672Y599590D01*
X233530Y603448D01*
X238572Y605537D01*
X244028Y605537D01*
X249070Y603448D01*
X252928Y599590D01*
X255017Y594548D01*
X255017Y573852D01*
X252928Y568810D01*
X249070Y564952D01*
X244028Y562863D01*
X238572Y562863D01*
G37*
%LPD*%
%LPC*%
G36*
X89696Y168403D02*
X89696Y168403D01*
X84515Y170549D01*
X80549Y174515D01*
X78403Y179696D01*
X78403Y185304D01*
X80549Y190485D01*
X84515Y194451D01*
X89696Y196597D01*
X95304Y196597D01*
X100485Y194451D01*
X104451Y190485D01*
X106597Y185304D01*
X106597Y179696D01*
X104451Y174515D01*
X100485Y170549D01*
X95304Y168403D01*
X89696Y168403D01*
G37*
%LPD*%
%LPC*%
G36*
X89696Y263403D02*
X89696Y263403D01*
X84515Y265549D01*
X80549Y269515D01*
X78403Y274696D01*
X78403Y280304D01*
X80549Y285485D01*
X84515Y289451D01*
X89696Y291597D01*
X95304Y291597D01*
X100485Y289451D01*
X104451Y285485D01*
X106597Y280304D01*
X106597Y274696D01*
X104451Y269515D01*
X100485Y265549D01*
X95304Y263403D01*
X89696Y263403D01*
G37*
%LPD*%
%LPC*%
G36*
X89696Y73403D02*
X89696Y73403D01*
X84515Y75549D01*
X80549Y79515D01*
X78403Y84696D01*
X78403Y90304D01*
X80549Y95485D01*
X84515Y99451D01*
X89696Y101597D01*
X95304Y101597D01*
X100485Y99451D01*
X104451Y95485D01*
X106597Y90304D01*
X106597Y84696D01*
X104451Y79515D01*
X100485Y75549D01*
X95304Y73403D01*
X89696Y73403D01*
G37*
%LPD*%
%LPC*%
G36*
X89696Y358403D02*
X89696Y358403D01*
X84515Y360549D01*
X80549Y364515D01*
X78403Y369696D01*
X78403Y375304D01*
X80549Y380485D01*
X84515Y384451D01*
X89696Y386597D01*
X95304Y386597D01*
X100485Y384451D01*
X104451Y380485D01*
X106597Y375304D01*
X106597Y369696D01*
X104451Y364515D01*
X100485Y360549D01*
X95304Y358403D01*
X89696Y358403D01*
G37*
%LPD*%
%LPC*%
G36*
X89696Y453403D02*
X89696Y453403D01*
X84515Y455549D01*
X80549Y459515D01*
X78403Y464696D01*
X78403Y470304D01*
X80549Y475485D01*
X84515Y479451D01*
X89696Y481597D01*
X95304Y481597D01*
X100485Y479451D01*
X104451Y475485D01*
X106597Y470304D01*
X106597Y464696D01*
X104451Y459515D01*
X100485Y455549D01*
X95304Y453403D01*
X89696Y453403D01*
G37*
%LPD*%
%LPC*%
G36*
X115823Y585723D02*
X115823Y585723D01*
X115823Y601866D01*
X116679Y601731D01*
X118200Y601236D01*
X119625Y600510D01*
X120919Y599570D01*
X122050Y598439D01*
X122990Y597145D01*
X123716Y595720D01*
X124211Y594199D01*
X124461Y592620D01*
X124461Y585723D01*
X115823Y585723D01*
G37*
%LPD*%
%LPC*%
G36*
X217423Y585723D02*
X217423Y585723D01*
X217423Y601866D01*
X218279Y601731D01*
X219800Y601236D01*
X221225Y600510D01*
X222519Y599570D01*
X223650Y598439D01*
X224590Y597145D01*
X225316Y595720D01*
X225811Y594199D01*
X226061Y592620D01*
X226061Y585723D01*
X217423Y585723D01*
G37*
%LPD*%
%LPC*%
G36*
X744723Y84323D02*
X744723Y84323D01*
X744723Y92961D01*
X751620Y92961D01*
X753199Y92711D01*
X754720Y92216D01*
X756145Y91490D01*
X757439Y90550D01*
X758570Y89419D01*
X759510Y88125D01*
X760236Y86700D01*
X760731Y85179D01*
X760866Y84323D01*
X744723Y84323D01*
G37*
%LPD*%
%LPC*%
G36*
X725534Y84323D02*
X725534Y84323D01*
X725669Y85179D01*
X726164Y86700D01*
X726890Y88125D01*
X727830Y89419D01*
X728961Y90550D01*
X730255Y91490D01*
X731680Y92216D01*
X733201Y92711D01*
X734780Y92961D01*
X741677Y92961D01*
X741677Y84323D01*
X725534Y84323D01*
G37*
%LPD*%
%LPC*%
G36*
X115823Y582677D02*
X115823Y582677D01*
X124461Y582677D01*
X124461Y575780D01*
X124211Y574201D01*
X123716Y572680D01*
X122990Y571255D01*
X122050Y569961D01*
X120919Y568830D01*
X119625Y567890D01*
X118200Y567164D01*
X116679Y566669D01*
X115823Y566534D01*
X115823Y582677D01*
G37*
%LPD*%
%LPC*%
G36*
X217423Y582677D02*
X217423Y582677D01*
X226061Y582677D01*
X226061Y575780D01*
X225811Y574201D01*
X225316Y572680D01*
X224590Y571255D01*
X223650Y569961D01*
X222519Y568830D01*
X221225Y567890D01*
X219800Y567164D01*
X218279Y566669D01*
X217423Y566534D01*
X217423Y582677D01*
G37*
%LPD*%
%LPC*%
G36*
X744723Y72639D02*
X744723Y72639D01*
X744723Y81277D01*
X760866Y81277D01*
X760731Y80421D01*
X760236Y78900D01*
X759510Y77475D01*
X758570Y76181D01*
X757439Y75050D01*
X756145Y74110D01*
X754720Y73384D01*
X753199Y72889D01*
X751620Y72639D01*
X744723Y72639D01*
G37*
%LPD*%
%LPC*%
G36*
X205739Y585723D02*
X205739Y585723D01*
X205739Y592620D01*
X205989Y594199D01*
X206484Y595720D01*
X207210Y597145D01*
X208150Y598439D01*
X209281Y599570D01*
X210575Y600510D01*
X212000Y601236D01*
X213521Y601731D01*
X214377Y601866D01*
X214377Y585723D01*
X205739Y585723D01*
G37*
%LPD*%
%LPC*%
G36*
X104139Y585723D02*
X104139Y585723D01*
X104139Y592620D01*
X104389Y594199D01*
X104884Y595720D01*
X105610Y597145D01*
X106550Y598439D01*
X107681Y599570D01*
X108975Y600510D01*
X110400Y601236D01*
X111921Y601731D01*
X112777Y601866D01*
X112777Y585723D01*
X104139Y585723D01*
G37*
%LPD*%
%LPC*%
G36*
X734780Y72639D02*
X734780Y72639D01*
X733201Y72889D01*
X731680Y73384D01*
X730255Y74110D01*
X728961Y75050D01*
X727830Y76181D01*
X726890Y77475D01*
X726164Y78900D01*
X725669Y80421D01*
X725534Y81277D01*
X741677Y81277D01*
X741677Y72639D01*
X734780Y72639D01*
G37*
%LPD*%
%LPC*%
G36*
X111921Y566669D02*
X111921Y566669D01*
X110400Y567164D01*
X108975Y567890D01*
X107681Y568830D01*
X106550Y569961D01*
X105610Y571255D01*
X104884Y572680D01*
X104389Y574201D01*
X104139Y575780D01*
X104139Y582677D01*
X112777Y582677D01*
X112777Y566534D01*
X111921Y566669D01*
G37*
%LPD*%
%LPC*%
G36*
X213521Y566669D02*
X213521Y566669D01*
X212000Y567164D01*
X210575Y567890D01*
X209281Y568830D01*
X208150Y569961D01*
X207210Y571255D01*
X206484Y572680D01*
X205989Y574201D01*
X205739Y575780D01*
X205739Y582677D01*
X214377Y582677D01*
X214377Y566534D01*
X213521Y566669D01*
G37*
%LPD*%
%LPC*%
G36*
X660035Y211523D02*
X660035Y211523D01*
X660167Y212361D01*
X660658Y213870D01*
X661378Y215283D01*
X662311Y216567D01*
X663433Y217689D01*
X664717Y218622D01*
X666130Y219342D01*
X667639Y219833D01*
X668477Y219965D01*
X668477Y211523D01*
X660035Y211523D01*
G37*
%LPD*%
%LPC*%
G36*
X667639Y200167D02*
X667639Y200167D01*
X666130Y200658D01*
X664717Y201378D01*
X663433Y202311D01*
X662311Y203433D01*
X661378Y204717D01*
X660658Y206130D01*
X660167Y207639D01*
X660035Y208477D01*
X668477Y208477D01*
X668477Y200035D01*
X667639Y200167D01*
G37*
%LPD*%
%LPC*%
G36*
X114299Y584199D02*
X114299Y584199D01*
X114299Y584201D01*
X114301Y584201D01*
X114301Y584199D01*
X114299Y584199D01*
G37*
%LPD*%
%LPC*%
G36*
X215899Y584199D02*
X215899Y584199D01*
X215899Y584201D01*
X215901Y584201D01*
X215901Y584199D01*
X215899Y584199D01*
G37*
%LPD*%
%LPC*%
G36*
X743199Y82799D02*
X743199Y82799D01*
X743199Y82801D01*
X743201Y82801D01*
X743201Y82799D01*
X743199Y82799D01*
G37*
%LPD*%
D10*
X92500Y512500D03*
X92500Y467500D03*
X157500Y512500D03*
X157500Y467500D03*
X92500Y417500D03*
X92500Y372500D03*
X157500Y417500D03*
X157500Y372500D03*
X92500Y322500D03*
X92500Y277500D03*
X157500Y322500D03*
X157500Y277500D03*
X92500Y227500D03*
X92500Y182500D03*
X157500Y227500D03*
X157500Y182500D03*
X92500Y132500D03*
X92500Y87500D03*
X157500Y132500D03*
X157500Y87500D03*
D11*
X631500Y441900D03*
X656900Y441900D03*
X682300Y441900D03*
X707700Y441900D03*
X733100Y441900D03*
X758500Y441900D03*
X707700Y518100D03*
X631500Y518100D03*
X682300Y518100D03*
X656900Y518100D03*
X758500Y518100D03*
X733100Y518100D03*
D12*
X795270Y102800D03*
X820670Y102800D03*
X792730Y128200D03*
X818130Y128200D03*
X795270Y153600D03*
X820670Y153600D03*
D13*
X750820Y133600D02*
X735580Y133600D01*
X735580Y108200D02*
X750820Y108200D01*
X750820Y82800D02*
X735580Y82800D01*
D14*
X670000Y210000D03*
X695000Y210000D03*
X720000Y210000D03*
D15*
X638000Y280000D03*
X752000Y280000D03*
D13*
X190500Y576580D02*
X190500Y591820D01*
X165100Y591820D02*
X165100Y576580D01*
X139700Y576580D02*
X139700Y591820D01*
X114300Y591820D02*
X114300Y576580D01*
X340400Y582780D02*
X340400Y598020D01*
X315000Y598020D02*
X315000Y582780D01*
X289600Y582780D02*
X289600Y598020D01*
X241300Y591820D02*
X241300Y576580D01*
X215900Y576580D02*
X215900Y591820D01*
D16*
X55000Y450000D03*
X225000Y460000D03*
X340000Y495000D03*
X615000Y50000D03*
X355000Y180000D03*
D17*
X395000Y140000D01*
X755000Y150000D02*
X765000Y140000D01*
X685000Y140000D02*
X395000Y140000D01*
X685000Y140000D02*
X695000Y150000D01*
X755000Y150000D01*
X765000Y133070D02*
X795270Y102800D01*
X765000Y133070D02*
X765000Y140000D01*
X545000Y500000D02*
X585000Y540000D01*
D16*
X585000Y540000D03*
D17*
X545000Y500000D02*
X545000Y330000D01*
D16*
X430000Y260000D03*
D17*
X500000Y330000D01*
X545000Y330000D01*
X815000Y330000D01*
X818130Y128200D02*
X830000Y128200D01*
X840000Y305000D02*
X815000Y330000D01*
X840000Y138200D02*
X830000Y128200D01*
X840000Y138200D02*
X840000Y305000D01*
X125000Y150000D02*
X125000Y120000D01*
X125000Y215000D02*
X125000Y245000D01*
X125000Y310000D02*
X125000Y340000D01*
X125000Y405000D02*
X125000Y435000D01*
X125000Y405000D02*
X157500Y372500D01*
X125000Y435000D02*
X157500Y467500D01*
X157500Y372500D02*
X125000Y340000D01*
X125000Y310000D02*
X157500Y277500D01*
X125000Y245000D01*
X125000Y215000D02*
X157500Y182500D01*
X125000Y150000D01*
X125000Y120000D02*
X157500Y87500D01*
D16*
X185000Y280000D03*
D17*
X160000Y280000D01*
X157500Y277500D01*
X180000Y205000D02*
X157500Y182500D01*
D16*
X511420Y372440D03*
D17*
X284340Y100660D02*
X180000Y205000D01*
X284340Y100660D02*
X690000Y100660D01*
D16*
X395000Y285200D03*
D17*
X482240Y372440D01*
X511420Y372440D01*
D16*
X755000Y213360D03*
X690000Y100660D03*
D17*
X695660Y100660D01*
X703200Y108200D02*
X743200Y108200D01*
X703200Y108200D02*
X695660Y100660D01*
X720000Y210000D02*
X751640Y210000D01*
X755000Y213360D01*
X761800Y108200D02*
X743200Y108200D01*
X770000Y100000D02*
X770000Y95000D01*
X780000Y85000D01*
X770000Y100000D02*
X761800Y108200D01*
X780000Y85000D02*
X810000Y85000D01*
X820670Y95670D02*
X820670Y102800D01*
X820670Y95670D02*
X810000Y85000D01*
X157500Y467500D02*
X120000Y505000D01*
X315000Y550000D02*
X315000Y590400D01*
X120000Y525000D02*
X120000Y505000D01*
X120000Y525000D02*
X135000Y540000D01*
X305000Y540000D01*
X315000Y550000D01*
D16*
X135000Y540000D03*
X585000Y500000D03*
D17*
X656900Y500000D01*
X656900Y518100D01*
D16*
X800000Y480000D03*
D17*
X800000Y485000D01*
X766900Y518100D01*
X758500Y518100D01*
D16*
X655000Y410000D03*
D17*
X675800Y410000D02*
X707700Y441900D01*
X675800Y410000D02*
X655000Y410000D01*
D16*
X655000Y460000D03*
D17*
X656900Y460000D01*
X656900Y441900D01*
D16*
X615000Y410000D03*
D17*
X631500Y426500D01*
X631500Y441900D01*
D16*
X745000Y480000D03*
D17*
X720400Y480000D01*
X682300Y518100D01*
D16*
X705000Y410000D03*
D17*
X733100Y438100D02*
X733100Y441900D01*
X733100Y438100D02*
X705000Y410000D01*
D16*
X460000Y230000D03*
D17*
X465000Y230000D01*
X545000Y310000D01*
D16*
X545000Y310000D03*
D17*
X419600Y155400D02*
X345000Y230000D01*
D16*
X345000Y230000D03*
D17*
X355000Y240000D01*
X375000Y390000D02*
X390000Y390000D01*
X415000Y365000D01*
X355000Y370000D02*
X355000Y240000D01*
X355000Y370000D02*
X375000Y390000D01*
D16*
X415000Y365000D03*
D17*
X680400Y155400D02*
X690000Y165000D01*
X760000Y165000D02*
X775000Y150000D01*
X775000Y140000D01*
X680400Y155400D02*
X419600Y155400D01*
X690000Y165000D02*
X760000Y165000D01*
X786800Y128200D02*
X792730Y128200D01*
X786800Y128200D02*
X775000Y140000D01*
X631500Y548500D02*
X630000Y550000D01*
X631500Y548500D02*
X631500Y518100D01*
D16*
X630000Y550000D03*
D17*
X707700Y565000D02*
X707700Y518100D01*
X707700Y565000D02*
X692700Y580000D01*
X400000Y580000D02*
X395000Y575000D01*
D16*
X395000Y575000D03*
D17*
X400000Y580000D02*
X692700Y580000D01*
D16*
X730000Y570000D03*
D17*
X733100Y566900D01*
X733100Y518100D01*
X758500Y441900D02*
X813500Y441900D01*
X825000Y453400D01*
X825000Y505000D01*
X785000Y545000D01*
D16*
X785000Y545000D03*
D17*
X375000Y355000D02*
X375000Y235800D01*
D16*
X375000Y355000D03*
D17*
X375000Y235800D02*
X440000Y170800D01*
X675800Y170800D02*
X685000Y180000D01*
X675800Y170800D02*
X440000Y170800D01*
X685000Y180000D02*
X775000Y180000D01*
X795270Y159730D02*
X795270Y153600D01*
X795270Y159730D02*
X775000Y180000D01*
D16*
X245000Y190000D03*
D17*
X308940Y126060D01*
X688415Y126060D01*
X695955Y133600D01*
X743200Y133600D01*
D16*
X55000Y140000D03*
D17*
X62500Y132500D01*
X92500Y132500D01*
D16*
X185000Y130000D03*
D17*
X160000Y130000D01*
X157500Y132500D01*
D16*
X55000Y230000D03*
D17*
X57500Y227500D01*
X92500Y227500D01*
D16*
X185000Y230000D03*
D17*
X182500Y227500D02*
X157500Y227500D01*
X182500Y227500D02*
X185000Y230000D01*
D16*
X55000Y330000D03*
D17*
X62500Y322500D01*
X92500Y322500D01*
D16*
X185000Y320000D03*
D17*
X160000Y320000D01*
X157500Y322500D01*
D16*
X185000Y420000D03*
D17*
X160000Y420000D01*
X157500Y417500D01*
D16*
X55000Y420000D03*
D17*
X57500Y417500D01*
X92500Y417500D01*
D16*
X185000Y510000D03*
D17*
X182500Y512500D01*
X157500Y512500D01*
D16*
X55000Y510000D03*
D17*
X57500Y512500D01*
X92500Y512500D01*
D16*
X395000Y245000D03*
D17*
X450000Y185000D02*
X675000Y185000D01*
X450000Y185000D02*
X395000Y240000D01*
X395000Y245000D01*
X695000Y210000D02*
X695000Y205000D01*
X675000Y185000D01*
D16*
X315000Y340000D03*
D17*
X315000Y515000D01*
X340400Y540400D02*
X340400Y590400D01*
X340400Y540400D02*
X315000Y515000D01*
X289600Y579600D02*
X289600Y590400D01*
X289600Y579600D02*
X270000Y560000D01*
D16*
X270000Y560000D03*
M02*
