G04 EAGLE Gerber RS-274X export*
G75*
%MOMM*%
%FSLAX34Y34*%
%LPD*%
%INBottom Solder Mask*%
%IPPOS*%
%AMOC8*
5,1,8,0,0,1.08239X$1,22.5*%
G01*
%ADD10C,1.803200*%
%ADD11C,1.981200*%
%ADD12C,2.082800*%
%ADD13C,1.727200*%
%ADD14C,1.711200*%
%ADD15C,3.419200*%
%ADD16C,3.203200*%
%ADD17C,2.303200*%


D10*
X92500Y512500D03*
X92500Y467500D03*
X157500Y512500D03*
X157500Y467500D03*
X92500Y417500D03*
X92500Y372500D03*
X157500Y417500D03*
X157500Y372500D03*
X92500Y322500D03*
X92500Y277500D03*
X157500Y322500D03*
X157500Y277500D03*
X92500Y227500D03*
X92500Y182500D03*
X157500Y227500D03*
X157500Y182500D03*
X92500Y132500D03*
X92500Y87500D03*
X157500Y132500D03*
X157500Y87500D03*
D11*
X631500Y441900D03*
X656900Y441900D03*
X682300Y441900D03*
X707700Y441900D03*
X733100Y441900D03*
X758500Y441900D03*
X707700Y518100D03*
X631500Y518100D03*
X682300Y518100D03*
X656900Y518100D03*
X758500Y518100D03*
X733100Y518100D03*
D12*
X795270Y102800D03*
X820670Y102800D03*
X792730Y128200D03*
X818130Y128200D03*
X795270Y153600D03*
X820670Y153600D03*
D13*
X750820Y133600D02*
X735580Y133600D01*
X735580Y108200D02*
X750820Y108200D01*
X750820Y82800D02*
X735580Y82800D01*
D14*
X670000Y210000D03*
X695000Y210000D03*
X720000Y210000D03*
D15*
X638000Y280000D03*
X752000Y280000D03*
D16*
X40000Y40000D03*
X815000Y40000D03*
X815000Y590000D03*
X40000Y590000D03*
D13*
X190500Y591820D02*
X190500Y576580D01*
X165100Y576580D02*
X165100Y591820D01*
X139700Y591820D02*
X139700Y576580D01*
X114300Y576580D02*
X114300Y591820D01*
X340400Y598020D02*
X340400Y582780D01*
X315000Y582780D02*
X315000Y598020D01*
X289600Y598020D02*
X289600Y582780D01*
X241300Y576580D02*
X241300Y591820D01*
X215900Y591820D02*
X215900Y576580D01*
D17*
X55000Y450000D03*
X225000Y460000D03*
X340000Y495000D03*
X615000Y50000D03*
X355000Y180000D03*
X585000Y540000D03*
X430000Y260000D03*
X185000Y280000D03*
X511420Y372440D03*
X395000Y285200D03*
X755000Y213360D03*
X690000Y100660D03*
X135000Y540000D03*
X585000Y500000D03*
X800000Y480000D03*
X655000Y410000D03*
X655000Y460000D03*
X615000Y410000D03*
X745000Y480000D03*
X705000Y410000D03*
X460000Y230000D03*
X545000Y310000D03*
X345000Y230000D03*
X415000Y365000D03*
X630000Y550000D03*
X395000Y575000D03*
X730000Y570000D03*
X785000Y545000D03*
X375000Y355000D03*
X245000Y190000D03*
X55000Y140000D03*
X185000Y130000D03*
X55000Y230000D03*
X185000Y230000D03*
X55000Y330000D03*
X185000Y320000D03*
X185000Y420000D03*
X55000Y420000D03*
X185000Y510000D03*
X55000Y510000D03*
X395000Y245000D03*
X315000Y340000D03*
X270000Y560000D03*
M02*
