G04 EAGLE Gerber RS-274X export*
G75*
%MOMM*%
%FSLAX34Y34*%
%LPD*%
%INTop Copper Layer*%
%IPPOS*%
%AMOC8*
5,1,8,0,0,1.08239X$1,22.5*%
G01*
%ADD10R,1.270000X0.558800*%
%ADD11R,0.558800X1.270000*%
%ADD12C,1.600000*%
%ADD13R,1.100000X1.000000*%
%ADD14R,0.589200X2.052400*%
%ADD15R,1.000000X1.100000*%
%ADD16C,1.778000*%
%ADD17C,1.879600*%
%ADD18C,1.524000*%
%ADD19C,1.508000*%
%ADD20C,3.216000*%
%ADD21R,0.800000X0.800000*%
%ADD22C,0.508000*%
%ADD23C,2.100000*%


D10*
X247274Y303600D03*
X247274Y295600D03*
X247274Y287600D03*
X247274Y279600D03*
X247274Y271600D03*
X247274Y263600D03*
X247274Y255600D03*
X247274Y247600D03*
D11*
X262200Y232674D03*
X270200Y232674D03*
X278200Y232674D03*
X286200Y232674D03*
X294200Y232674D03*
X302200Y232674D03*
X310200Y232674D03*
X318200Y232674D03*
D10*
X333126Y247600D03*
X333126Y255600D03*
X333126Y263600D03*
X333126Y271600D03*
X333126Y279600D03*
X333126Y287600D03*
X333126Y295600D03*
X333126Y303600D03*
D11*
X318200Y318526D03*
X310200Y318526D03*
X302200Y318526D03*
X294200Y318526D03*
X286200Y318526D03*
X278200Y318526D03*
X270200Y318526D03*
X262200Y318526D03*
D12*
X92500Y512500D03*
X92500Y467500D03*
X157500Y512500D03*
X157500Y467500D03*
X92500Y417500D03*
X92500Y372500D03*
X157500Y417500D03*
X157500Y372500D03*
X92500Y322500D03*
X92500Y277500D03*
X157500Y322500D03*
X157500Y277500D03*
X92500Y227500D03*
X92500Y182500D03*
X157500Y227500D03*
X157500Y182500D03*
X92500Y132500D03*
X92500Y87500D03*
X157500Y132500D03*
X157500Y87500D03*
D13*
X55000Y471500D03*
X55000Y488500D03*
X55000Y376500D03*
X55000Y393500D03*
X55000Y281500D03*
X55000Y298500D03*
X55000Y186500D03*
X55000Y203500D03*
X55000Y91500D03*
X55000Y108500D03*
D14*
X504850Y526536D03*
X492150Y526536D03*
X479450Y526536D03*
X466750Y526536D03*
X454050Y526536D03*
X441350Y526536D03*
X428650Y526536D03*
X415950Y526536D03*
X403250Y526536D03*
X390550Y526536D03*
X377850Y526536D03*
X365150Y526536D03*
X365150Y433464D03*
X377850Y433464D03*
X390550Y433464D03*
X403250Y433464D03*
X415950Y433464D03*
X428650Y433464D03*
X441350Y433464D03*
X454050Y433464D03*
X466750Y433464D03*
X479450Y433464D03*
X492150Y433464D03*
X504850Y433464D03*
D13*
X265000Y408500D03*
X265000Y391500D03*
D15*
X246500Y430000D03*
X263500Y430000D03*
X426500Y410000D03*
X443500Y410000D03*
D16*
X631500Y441900D03*
X656900Y441900D03*
X682300Y441900D03*
X707700Y441900D03*
X733100Y441900D03*
X758500Y441900D03*
X707700Y518100D03*
X631500Y518100D03*
X682300Y518100D03*
X656900Y518100D03*
X758500Y518100D03*
X733100Y518100D03*
D17*
X795270Y102800D03*
X820670Y102800D03*
X792730Y128200D03*
X818130Y128200D03*
X795270Y153600D03*
X820670Y153600D03*
D18*
X750820Y133600D02*
X735580Y133600D01*
X735580Y108200D02*
X750820Y108200D01*
X750820Y82800D02*
X735580Y82800D01*
D19*
X670000Y210000D03*
X695000Y210000D03*
X720000Y210000D03*
D20*
X638000Y280000D03*
X752000Y280000D03*
D15*
X583500Y170000D03*
X566500Y170000D03*
X583500Y210000D03*
X566500Y210000D03*
X583500Y250000D03*
X566500Y250000D03*
X583500Y290000D03*
X566500Y290000D03*
X583500Y90000D03*
X566500Y90000D03*
X583500Y130000D03*
X566500Y130000D03*
D21*
X542500Y170000D03*
X527500Y170000D03*
X542500Y210000D03*
X527500Y210000D03*
X542500Y250000D03*
X527500Y250000D03*
X542500Y290000D03*
X527500Y290000D03*
X542500Y90000D03*
X527500Y90000D03*
X542500Y130000D03*
X527500Y130000D03*
D18*
X190500Y576580D02*
X190500Y591820D01*
X165100Y591820D02*
X165100Y576580D01*
X139700Y576580D02*
X139700Y591820D01*
X114300Y591820D02*
X114300Y576580D01*
D15*
X583500Y50000D03*
X566500Y50000D03*
D21*
X542500Y50000D03*
X527500Y50000D03*
D18*
X340400Y582780D02*
X340400Y598020D01*
X315000Y598020D02*
X315000Y582780D01*
X289600Y582780D02*
X289600Y598020D01*
X241300Y591820D02*
X241300Y576580D01*
X215900Y576580D02*
X215900Y591820D01*
D22*
X247274Y287600D02*
X314900Y287600D01*
X322900Y279600D02*
X333126Y279600D01*
X322900Y279600D02*
X314900Y287600D01*
X55000Y450000D02*
X55000Y471500D01*
D23*
X55000Y450000D03*
D22*
X205000Y300000D02*
X217400Y287600D01*
X66500Y281500D02*
X55000Y281500D01*
X85000Y300000D02*
X205000Y300000D01*
X85000Y300000D02*
X75000Y290000D01*
X66500Y281500D01*
X216600Y271600D02*
X247274Y271600D01*
X216600Y271600D02*
X205000Y260000D01*
X88000Y260000D01*
X76500Y271500D01*
X75000Y273000D02*
X66500Y281500D01*
D23*
X225000Y460000D03*
D22*
X460000Y495000D02*
X466750Y501750D01*
D23*
X340000Y495000D03*
D22*
X405000Y495000D02*
X460000Y495000D01*
X405000Y495000D02*
X340000Y495000D01*
X63500Y471500D02*
X55000Y471500D01*
X63500Y471500D02*
X75000Y460000D01*
X75000Y380000D01*
X75000Y370000D01*
X75000Y290000D01*
X76500Y271500D02*
X75000Y270000D01*
X75000Y100000D02*
X66500Y91500D01*
X55000Y91500D01*
X75000Y190000D02*
X75000Y270000D01*
X75000Y190000D02*
X75000Y183000D01*
X75000Y100000D01*
X71500Y186500D02*
X55000Y186500D01*
X71500Y186500D02*
X75000Y190000D01*
X71500Y186500D02*
X75000Y183000D01*
X76500Y271500D02*
X75000Y273000D01*
X75000Y280000D01*
X75000Y290000D01*
X73500Y281500D02*
X66500Y281500D01*
X73500Y281500D02*
X75000Y280000D01*
X75000Y273000D02*
X75000Y270000D01*
X71500Y376500D02*
X55000Y376500D01*
X71500Y376500D02*
X75000Y380000D01*
X68500Y376500D02*
X55000Y376500D01*
X68500Y376500D02*
X75000Y370000D01*
X217400Y287600D02*
X247274Y287600D01*
X246500Y430000D02*
X246500Y438500D01*
X225000Y460000D01*
X583500Y290000D02*
X583500Y250000D01*
X583500Y130000D02*
X583500Y90000D01*
X583500Y130000D02*
X583500Y170000D01*
X583500Y210000D01*
X583500Y250000D01*
X466750Y501750D02*
X466750Y526536D01*
X403250Y526536D02*
X403250Y496750D01*
X405000Y495000D01*
X583500Y50000D02*
X615000Y50000D01*
D23*
X615000Y50000D03*
D22*
X583500Y50000D02*
X583500Y90000D01*
X55000Y450000D02*
X35000Y450000D01*
X25000Y460000D01*
X25000Y515000D02*
X45000Y535000D01*
X114300Y564300D02*
X114300Y584200D01*
X25000Y515000D02*
X25000Y460000D01*
X45000Y535000D02*
X85000Y535000D01*
X114300Y564300D01*
X114300Y584200D02*
X114300Y604300D01*
X215900Y604100D02*
X215900Y584200D01*
X125000Y615000D02*
X114300Y604300D01*
X125000Y615000D02*
X205000Y615000D01*
X215900Y604100D01*
X318200Y232674D02*
X355000Y195874D01*
X355000Y180000D01*
D23*
X355000Y180000D03*
X585000Y540000D03*
D22*
X571536Y526536D01*
X504850Y526536D01*
X330200Y174800D02*
X345000Y160000D01*
X420000Y160000D01*
X430000Y170000D02*
X430000Y260000D01*
X310200Y232674D02*
X310200Y222674D01*
X330200Y202674D01*
X330200Y174800D01*
X420000Y160000D02*
X430000Y170000D01*
D23*
X430000Y260000D03*
D22*
X258600Y263600D02*
X247274Y263600D01*
X258600Y263600D02*
X266600Y271600D01*
X258600Y279600D02*
X247274Y279600D01*
X258600Y279600D02*
X266600Y271600D01*
X320650Y255600D02*
X333126Y255600D01*
X320650Y255600D02*
X312500Y263750D01*
X320350Y271600D02*
X333126Y271600D01*
X320350Y271600D02*
X312500Y263750D01*
X285900Y271600D02*
X266600Y271600D01*
X293750Y263750D02*
X312500Y263750D01*
X293750Y263750D02*
X285900Y271600D01*
D23*
X185000Y280000D03*
D22*
X443500Y395360D02*
X466420Y372440D01*
X443500Y395360D02*
X443500Y410000D01*
X466420Y372440D02*
X511420Y372440D01*
D23*
X511420Y372440D03*
D22*
X346626Y271600D02*
X333126Y271600D01*
X346626Y271600D02*
X360226Y285200D01*
X395000Y285200D01*
D23*
X395000Y285200D03*
X755000Y213360D03*
D22*
X755000Y203360D01*
X690000Y138360D01*
X690000Y100660D01*
D23*
X690000Y100660D03*
D22*
X247274Y279600D02*
X185400Y279600D01*
X185000Y280000D01*
X441350Y412150D02*
X441350Y433464D01*
X441350Y412150D02*
X443500Y410000D01*
X690000Y100660D02*
X690000Y65000D01*
X650000Y25000D01*
X527500Y37500D02*
X527500Y50000D01*
X540000Y25000D02*
X650000Y25000D01*
X540000Y25000D02*
X527500Y37500D01*
D23*
X135000Y540000D03*
D22*
X139700Y544700D01*
X139700Y584200D01*
X278200Y353200D02*
X278200Y318526D01*
X278200Y353200D02*
X285000Y360000D01*
X285000Y470000D01*
X190500Y564500D01*
X190500Y584200D01*
X270200Y328526D02*
X270200Y318526D01*
X270200Y328526D02*
X265000Y333726D01*
X265000Y391500D01*
X265000Y408500D02*
X263500Y410000D01*
X263500Y430000D01*
X265000Y462300D02*
X165100Y562200D01*
X265000Y462300D02*
X265000Y408500D01*
X165100Y562200D02*
X165100Y584200D01*
X428650Y433464D02*
X428650Y412150D01*
X426500Y410000D01*
X399386Y475000D02*
X540000Y475000D01*
X377850Y453464D02*
X377850Y433464D01*
X377850Y453464D02*
X399386Y475000D01*
X555000Y490000D02*
X575000Y490000D01*
X585000Y500000D01*
D23*
X585000Y500000D03*
D22*
X555000Y490000D02*
X540000Y475000D01*
X470000Y340000D02*
X700000Y340000D01*
X800000Y440000D02*
X800000Y480000D01*
D23*
X800000Y480000D03*
D22*
X800000Y440000D02*
X700000Y340000D01*
X415030Y383880D02*
X403250Y395660D01*
X426120Y383880D02*
X470000Y340000D01*
X426120Y383880D02*
X415030Y383880D01*
X403250Y395660D02*
X403250Y433464D01*
D23*
X655000Y410000D03*
D22*
X539199Y372960D02*
X518695Y393464D01*
X655000Y380000D02*
X655000Y410000D01*
X454050Y419199D02*
X454050Y433464D01*
X454050Y419199D02*
X455040Y418209D01*
X455040Y404960D01*
X466536Y393464D01*
X518695Y393464D01*
X647960Y372960D02*
X655000Y380000D01*
X647960Y372960D02*
X539199Y372960D01*
X492150Y443464D02*
X502150Y453464D01*
X492150Y443464D02*
X492150Y433464D01*
X502150Y453464D02*
X558464Y453464D01*
X565000Y460000D01*
X655000Y460000D01*
D23*
X655000Y460000D03*
X615000Y410000D03*
D22*
X466750Y413250D02*
X466750Y433464D01*
X466750Y413250D02*
X470000Y410000D01*
X615000Y410000D01*
D23*
X745000Y480000D03*
D22*
X635000Y480000D01*
X390550Y445550D02*
X390550Y433464D01*
X390550Y445550D02*
X410000Y465000D01*
X625000Y470000D02*
X635000Y480000D01*
X625000Y470000D02*
X555000Y470000D01*
X550000Y465000D01*
X410000Y465000D01*
D23*
X705000Y410000D03*
D22*
X690000Y353880D02*
X471120Y353880D01*
X432040Y392960D01*
X423791Y392960D01*
X414960Y401791D02*
X414960Y418209D01*
X415950Y419199D01*
X415950Y433464D01*
X414960Y401791D02*
X423791Y392960D01*
X690000Y353880D02*
X705000Y368880D01*
X705000Y410000D01*
X370000Y375000D02*
X315000Y430000D01*
X302200Y232674D02*
X302200Y212674D01*
X317200Y197674D01*
X317200Y157800D01*
X335000Y140000D01*
X430000Y140000D01*
X315000Y430000D02*
X315000Y510000D01*
X331536Y526536D02*
X365150Y526536D01*
X331536Y526536D02*
X315000Y510000D01*
X370000Y375000D02*
X385000Y375000D01*
X460000Y230000D02*
X460000Y170000D01*
D23*
X460000Y230000D03*
X545000Y310000D03*
D22*
X485000Y310000D01*
X460000Y170000D02*
X430000Y140000D01*
X485000Y310000D02*
X450000Y345000D01*
X395000Y365000D02*
X385000Y375000D01*
X395000Y365000D02*
X395000Y355000D01*
X405000Y345000D01*
X450000Y345000D01*
X345000Y235726D02*
X333126Y247600D01*
X345000Y235726D02*
X345000Y230000D01*
D23*
X345000Y230000D03*
D22*
X415000Y365000D02*
X365150Y414850D01*
X365150Y433464D01*
D23*
X415000Y365000D03*
D22*
X492150Y526536D02*
X492150Y542150D01*
X510000Y560000D01*
D23*
X630000Y550000D03*
D22*
X620000Y560000D01*
X510000Y560000D01*
D23*
X395000Y575000D03*
D22*
X377850Y557850D02*
X377850Y526536D01*
X377850Y557850D02*
X395000Y575000D01*
X441350Y541350D02*
X441350Y526536D01*
X441350Y541350D02*
X470000Y570000D01*
D23*
X730000Y570000D03*
D22*
X470000Y570000D01*
X785000Y550000D02*
X785000Y545000D01*
X785000Y550000D02*
X745000Y590000D01*
X428650Y548650D02*
X428650Y526536D01*
X428650Y548650D02*
X470000Y590000D01*
X745000Y590000D01*
D23*
X785000Y545000D03*
D22*
X286200Y341200D02*
X286200Y318526D01*
D23*
X375000Y355000D03*
D22*
X370000Y360000D01*
X305000Y360000D01*
X286200Y341200D01*
X278200Y232674D02*
X278200Y213200D01*
X255000Y190000D01*
X245000Y190000D01*
D23*
X245000Y190000D03*
D22*
X55000Y140000D02*
X55000Y108500D01*
D23*
X55000Y140000D03*
D22*
X270200Y222674D02*
X270200Y232674D01*
X270200Y222674D02*
X256263Y208737D01*
D23*
X185000Y130000D03*
D22*
X233737Y208737D02*
X256263Y208737D01*
X233737Y208737D02*
X185000Y160000D01*
X185000Y130000D01*
X55000Y203500D02*
X55000Y230000D01*
D23*
X55000Y230000D03*
D22*
X187674Y232674D02*
X262200Y232674D01*
X187674Y232674D02*
X185000Y230000D01*
D23*
X185000Y230000D03*
D22*
X55000Y298500D02*
X55000Y330000D01*
D23*
X55000Y330000D03*
D22*
X205000Y320000D02*
X229400Y295600D01*
X205000Y320000D02*
X185000Y320000D01*
D23*
X185000Y320000D03*
D22*
X229400Y295600D02*
X247274Y295600D01*
D23*
X185000Y420000D03*
D22*
X237274Y387726D02*
X237274Y313600D01*
X247274Y303600D01*
X237274Y387726D02*
X205000Y420000D01*
X185000Y420000D01*
X55000Y420000D02*
X55000Y393500D01*
D23*
X55000Y420000D03*
D22*
X252200Y398526D02*
X252200Y328526D01*
X262200Y318526D01*
X185000Y465726D02*
X185000Y510000D01*
X185000Y465726D02*
X252200Y398526D01*
D23*
X185000Y510000D03*
D22*
X55000Y510000D02*
X55000Y488500D01*
D23*
X55000Y510000D03*
X395000Y245000D03*
D22*
X346400Y263600D02*
X333126Y263600D01*
X346400Y263600D02*
X365000Y245000D01*
X395000Y245000D01*
X310200Y318526D02*
X310200Y335200D01*
X315000Y340000D01*
D23*
X315000Y340000D03*
D22*
X365902Y340000D01*
X369982Y335920D01*
X439080Y335920D01*
X485000Y290000D01*
X527500Y290000D01*
X324674Y325000D02*
X318200Y318526D01*
X505000Y250000D02*
X527500Y250000D01*
X430000Y325000D02*
X324674Y325000D01*
X430000Y325000D02*
X505000Y250000D01*
X344526Y315000D02*
X333126Y303600D01*
X517500Y210000D02*
X527500Y210000D01*
X517500Y210000D02*
X505000Y222500D01*
X420000Y315000D02*
X344526Y315000D01*
X420000Y315000D02*
X505000Y230000D01*
X505000Y222500D01*
X360600Y295600D02*
X333126Y295600D01*
X495000Y190000D02*
X515000Y170000D01*
X527500Y170000D01*
X370000Y305000D02*
X360600Y295600D01*
X370000Y305000D02*
X410000Y305000D01*
X495000Y220000D01*
X495000Y190000D01*
X294200Y200000D02*
X294200Y232674D01*
X305000Y140000D02*
X315000Y130000D01*
X527500Y130000D01*
X305000Y189200D02*
X294200Y200000D01*
X305000Y189200D02*
X305000Y140000D01*
X286200Y200000D02*
X286200Y232674D01*
X315000Y90000D02*
X527500Y90000D01*
X286200Y200000D02*
X275000Y188800D01*
X275000Y130000D01*
X315000Y90000D01*
X542500Y170000D02*
X566500Y170000D01*
X566500Y210000D02*
X542500Y210000D01*
X542500Y250000D02*
X566500Y250000D01*
X566500Y290000D02*
X542500Y290000D01*
X542500Y90000D02*
X566500Y90000D01*
X566500Y130000D02*
X542500Y130000D01*
X542500Y50000D02*
X566500Y50000D01*
D23*
X270000Y560000D03*
D22*
X245800Y584200D01*
X241300Y584200D01*
M02*
