<?xml version="1.0" encoding="UTF-8" standalone="no"?>
<svg
   xmlns:dc="http://purl.org/dc/elements/1.1/"
   xmlns:cc="http://creativecommons.org/ns#"
   xmlns:rdf="http://www.w3.org/1999/02/22-rdf-syntax-ns#"
   xmlns:svg="http://www.w3.org/2000/svg"
   xmlns="http://www.w3.org/2000/svg"
   xmlns:sodipodi="http://sodipodi.sourceforge.net/DTD/sodipodi-0.dtd"
   xmlns:inkscape="http://www.inkscape.org/namespaces/inkscape"
   viewBox="0 0 40.003387 44"
   x="0px"
   y="0px"
   version="1.1"
   id="svg10"
   sodipodi:docname="king_black.svg"
   width="40.003387"
   height="44"
   inkscape:version="0.92.5 (2060ec1f9f, 2020-04-08)">
  <metadata
     id="metadata16">
    <rdf:RDF>
      <cc:Work
         rdf:about="">
        <dc:format>image/svg+xml</dc:format>
        <dc:type
           rdf:resource="http://purl.org/dc/dcmitype/StillImage" />
        <dc:title>Chess-board-piece-game-sport-queen-king_1</dc:title>
      </cc:Work>
    </rdf:RDF>
  </metadata>
  <defs
     id="defs14" />
  <sodipodi:namedview
     pagecolor="#ffffff"
     bordercolor="#666666"
     borderopacity="1"
     objecttolerance="10"
     gridtolerance="10"
     guidetolerance="10"
     inkscape:pageopacity="0"
     inkscape:pageshadow="2"
     inkscape:window-width="947"
     inkscape:window-height="1051"
     id="namedview12"
     showgrid="false"
     fit-margin-top="0"
     fit-margin-left="0"
     fit-margin-right="0"
     fit-margin-bottom="0"
     inkscape:zoom="11.125147"
     inkscape:cx="19.047211"
     inkscape:cy="16.657017"
     inkscape:window-x="973"
     inkscape:window-y="0"
     inkscape:window-maximized="0"
     inkscape:current-layer="svg10" />
  <title
     id="title2">Chess-board-piece-game-sport-queen-king_1</title>
  <path
     d="m 36.001693,37 h -3 v -4 a 1,1 0 0 0 -1,-1 h -0.14 c 3.07,-2.68 8.14,-8 8.14,-14 a 10.72,10.72 0 0 0 -4.61,-9 c -3.49,-2.25 -8.33,-2.08 -14.39,0.47 V 5 h 3 a 1,1 0 0 0 0,-2 h -3 V 1 a 1,1 0 0 0 -2,0 v 2 h -3 a 1,1 0 0 0 0,2 h 3 V 9.47 C 12.941693,6.92 8.1016931,6.75 4.6116931,9 a 10.72,10.72 0 0 0 -4.61000002,9 c 0,6 5.07000002,11.32 8.14000002,14 h -0.14 a 1,1 0 0 0 -1,1 v 4 h -3 a 1,1 0 0 0 -1,1 v 5 a 1,1 0 0 0 1,1 H 36.001693 a 1,1 0 0 0 1,-1 v -5 a 1,1 0 0 0 -1,-1 z M 2.0016931,18 a 8.84,8.84 0 0 1 3.68,-7.34 c 3.11,-2 7.9099999,-1.55 13.8899999,1.24 a 1,1 0 0 0 0.85,0 c 6,-2.79 10.79,-3.22 13.89,-1.24 a 8.84,8.84 0 0 1 3.69,7.34 c 0,6.74 -7.88,12.92 -9.33,14 h -17.34 C 9.8816931,30.93 2.0016931,24.75 2.0016931,18 Z m 7,16 H 31.001693 v 3 H 9.0016931 Z M 35.001693,42 H 5.0016931 V 39 H 35.001693 Z"
     id="path4"
     inkscape:connector-curvature="0" />
  <path
     style="fill:#4d4d4d;fill-opacity:1;fill-rule:nonzero;stroke:none;stroke-width:0.08988646;stroke-opacity:1"
     d="M 29.442404,9.4000313 C 26.221245,9.438352 23.157479,10.654136 20.246246,11.876298 19.462152,12.009513 18.782289,11.41156 18.065417,11.187228 15.310429,10.076159 12.362845,9.1835587 9.3575209,9.4339143 6.5927319,9.552735 4.0598745,11.369913 2.9039543,13.860471 c -1.3316635,2.557553 -1.1869751,5.675551 -0.035858,8.269952 1.6748941,3.850694 4.7236314,6.905019 7.9290127,9.52739 0.383502,0.476931 0.937616,0.487237 1.499629,0.4412 5.461426,-0.01473 10.933094,0.02992 16.388126,-0.02214 3.236006,-2.582922 6.325831,-5.551443 8.154453,-9.325586 1.435691,-2.733009 1.676947,-6.159655 0.233882,-8.941065 C 36.372969,12.394505 35.201375,11.236989 33.90337,10.360868 32.543798,9.6282514 30.972355,9.3782983 29.442404,9.4000313 Z"
     id="path18"
     inkscape:connector-curvature="0" />
  <path
     style="fill:#4d4d4d;fill-opacity:1;fill-rule:nonzero;stroke:none;stroke-width:0.08988646;stroke-opacity:1"
     d="m 8.9363537,34.005922 c -0.02178,0.995656 -0.059281,2.030595 0.018961,3.016463 7.3241773,0.04793 14.6630373,0.0068 21.9928623,0.02054 0.231904,-0.436754 0.03459,-1.103369 0.100069,-1.628138 -0.130221,-0.437172 0.293524,-1.386154 -0.279841,-1.448366 -7.250841,0 -14.501681,0 -21.7525223,0 z"
     id="path20"
     inkscape:connector-curvature="0" />
  <path
     style="fill:#4d4d4d;fill-opacity:1;fill-rule:nonzero;stroke:none;stroke-width:0.08988646;stroke-opacity:1"
     d="m 4.9813497,38.949677 c -0.020599,1.0254 -0.060259,2.090763 0.01896,3.106349 8.4477593,0.04793 16.9102013,0.0068 25.3636053,0.02054 1.566389,-0.02669 3.157772,0.05314 4.708682,-0.0395 0.0206,-1.0254 0.06026,-2.090763 -0.01896,-3.10635 -8.447758,-0.04793 -16.910201,-0.0068 -25.3636058,-0.02054 -1.565983,0.02663 -3.1583487,-0.05306 -4.7086809,0.0395 z"
     id="path22"
     inkscape:connector-curvature="0" />
</svg>
