<?xml version="1.0" encoding="UTF-8" standalone="no"?>
<svg
   xmlns:dc="http://purl.org/dc/elements/1.1/"
   xmlns:cc="http://creativecommons.org/ns#"
   xmlns:rdf="http://www.w3.org/1999/02/22-rdf-syntax-ns#"
   xmlns:svg="http://www.w3.org/2000/svg"
   xmlns="http://www.w3.org/2000/svg"
   xmlns:sodipodi="http://sodipodi.sourceforge.net/DTD/sodipodi-0.dtd"
   xmlns:inkscape="http://www.inkscape.org/namespaces/inkscape"
   viewBox="0 0 40.003387 44"
   x="0px"
   y="0px"
   version="1.1"
   id="svg10"
   sodipodi:docname="king_white.svg"
   width="40.003387"
   height="44"
   inkscape:version="0.92.5 (2060ec1f9f, 2020-04-08)">
  <metadata
     id="metadata16">
    <rdf:RDF>
      <cc:Work
         rdf:about="">
        <dc:format>image/svg+xml</dc:format>
        <dc:type
           rdf:resource="http://purl.org/dc/dcmitype/StillImage" />
        <dc:title>Chess-board-piece-game-sport-queen-king_1</dc:title>
      </cc:Work>
    </rdf:RDF>
  </metadata>
  <defs
     id="defs14" />
  <sodipodi:namedview
     pagecolor="#ffffff"
     bordercolor="#666666"
     borderopacity="1"
     objecttolerance="10"
     gridtolerance="10"
     guidetolerance="10"
     inkscape:pageopacity="0"
     inkscape:pageshadow="2"
     inkscape:window-width="1894"
     inkscape:window-height="1051"
     id="namedview12"
     showgrid="false"
     fit-margin-top="0"
     fit-margin-left="0"
     fit-margin-right="0"
     fit-margin-bottom="0"
     inkscape:zoom="5.5625733"
     inkscape:cx="11.384297"
     inkscape:cy="17.990437"
     inkscape:window-x="26"
     inkscape:window-y="0"
     inkscape:window-maximized="1"
     inkscape:current-layer="svg10" />
  <title
     id="title2">Chess-board-piece-game-sport-queen-king_1</title>
  <path
     d="m 36.001693,37 h -3 v -4 a 1,1 0 0 0 -1,-1 h -0.14 c 3.07,-2.68 8.14,-8 8.14,-14 a 10.72,10.72 0 0 0 -4.61,-9 c -3.49,-2.25 -8.33,-2.08 -14.39,0.47 V 5 h 3 a 1,1 0 0 0 0,-2 h -3 V 1 a 1,1 0 0 0 -2,0 v 2 h -3 a 1,1 0 0 0 0,2 h 3 V 9.47 C 12.941693,6.92 8.1016931,6.75 4.6116931,9 a 10.72,10.72 0 0 0 -4.61000002,9 c 0,6 5.07000002,11.32 8.14000002,14 h -0.14 a 1,1 0 0 0 -1,1 v 4 h -3 a 1,1 0 0 0 -1,1 v 5 a 1,1 0 0 0 1,1 H 36.001693 a 1,1 0 0 0 1,-1 v -5 a 1,1 0 0 0 -1,-1 z M 2.0016931,18 a 8.84,8.84 0 0 1 3.68,-7.34 c 3.11,-2 7.9099999,-1.55 13.8899999,1.24 a 1,1 0 0 0 0.85,0 c 6,-2.79 10.79,-3.22 13.89,-1.24 a 8.84,8.84 0 0 1 3.69,7.34 c 0,6.74 -7.88,12.92 -9.33,14 h -17.34 C 9.8816931,30.93 2.0016931,24.75 2.0016931,18 Z m 7,16 H 31.001693 v 3 H 9.0016931 Z M 35.001693,42 H 5.0016931 V 39 H 35.001693 Z"
     id="path4"
     inkscape:connector-curvature="0" />
  <path
     style="fill:#ffffff;fill-opacity:1;fill-rule:nonzero;stroke:none;stroke-width:0.17977291;stroke-opacity:1"
     d="M 10.176308,9.3298671 C 7.4204022,9.2527385 4.7653073,10.719112 3.3207099,13.061559 c -2.2515615,3.326046 -1.5263021,7.815936 0.5122825,11.059546 1.8765074,3.144781 4.5700581,5.741799 7.4254636,7.976721 5.838908,-0.02765 11.698854,0.06627 17.524699,-0.03687 3.870635,-3.165576 7.752318,-6.946134 9.068349,-11.93348 1.192226,-4.403 -1.568802,-9.75286 -6.207783,-10.6009823 C 27.603782,8.906596 23.663496,10.350917 20.013257,11.915507 16.878819,10.62718 13.623524,9.3074619 10.176308,9.3298671 Z"
     id="path18"
     inkscape:connector-curvature="0" />
  <path
     style="fill:#ffffff;fill-opacity:1;fill-rule:nonzero;stroke:none;stroke-width:0.17977291;stroke-opacity:1"
     d="m 8.8522381,33.942253 c 0.029353,1.018932 -0.269449,2.342421 0.1590569,3.197641 7.310765,0 14.62153,0 21.932295,0 0.412753,-0.860811 0.172719,-2.229575 0.121136,-3.235562 -7.33759,-0.09586 -14.704546,-0.01369 -22.053431,-0.04108 z"
     id="path20"
     inkscape:connector-curvature="0" />
  <path
     style="fill:#ffffff;fill-opacity:1;fill-rule:nonzero;stroke:none;stroke-width:0.17977291;stroke-opacity:1"
     d="m 4.8972341,38.975895 c 0.029353,1.018931 -0.2694491,2.34242 0.1590569,3.19764 9.947434,0 19.894869,0 29.842303,0 0.412753,-0.860811 0.172719,-2.229574 0.121137,-3.235561 -9.97426,-0.09586 -19.977886,-0.01369 -29.96344,-0.04108 z"
     id="path22"
     inkscape:connector-curvature="0" />
</svg>
