<?xml version="1.0" encoding="UTF-8" standalone="no"?>
<svg
   xmlns:dc="http://purl.org/dc/elements/1.1/"
   xmlns:cc="http://creativecommons.org/ns#"
   xmlns:rdf="http://www.w3.org/1999/02/22-rdf-syntax-ns#"
   xmlns:svg="http://www.w3.org/2000/svg"
   xmlns="http://www.w3.org/2000/svg"
   xmlns:sodipodi="http://sodipodi.sourceforge.net/DTD/sodipodi-0.dtd"
   xmlns:inkscape="http://www.inkscape.org/namespaces/inkscape"
   viewBox="0 0 42.990017 44"
   x="0px"
   y="0px"
   version="1.1"
   id="svg10"
   sodipodi:docname="queen_white.svg"
   width="42.990017"
   height="44"
   inkscape:version="0.92.5 (2060ec1f9f, 2020-04-08)">
  <metadata
     id="metadata16">
    <rdf:RDF>
      <cc:Work
         rdf:about="">
        <dc:format>image/svg+xml</dc:format>
        <dc:type
           rdf:resource="http://purl.org/dc/dcmitype/StillImage" />
        <dc:title>Chess-board-piece-game-sport-queen-king</dc:title>
      </cc:Work>
    </rdf:RDF>
  </metadata>
  <defs
     id="defs14" />
  <sodipodi:namedview
     pagecolor="#ffffff"
     bordercolor="#666666"
     borderopacity="1"
     objecttolerance="10"
     gridtolerance="10"
     guidetolerance="10"
     inkscape:pageopacity="0"
     inkscape:pageshadow="2"
     inkscape:window-width="1894"
     inkscape:window-height="1051"
     id="namedview12"
     showgrid="false"
     fit-margin-top="0"
     fit-margin-left="0"
     fit-margin-right="0"
     fit-margin-bottom="0"
     inkscape:zoom="15.733333"
     inkscape:cx="18.184728"
     inkscape:cy="20.851014"
     inkscape:window-x="26"
     inkscape:window-y="0"
     inkscape:window-maximized="1"
     inkscape:current-layer="svg10" />
  <title
     id="title2">Chess-board-piece-game-sport-queen-king</title>
  <path
     style="fill:#ffffff;stroke:none;stroke-width:1px;stroke-linecap:butt;stroke-linejoin:miter;stroke-opacity:1;fill-opacity:1"
     d="m 11.567797,32.877119 20.084745,-0.06356 6.419492,-18.050847 -7.881356,7.5 0.190678,-11.694915 -5.529661,9.851695 -3.368644,-13.2203395 -3.050848,13.0932205 -5.720339,-9.470339 0.444916,11.504237 -7.8177969,-7.5 z"
     id="path34"
     inkscape:connector-curvature="0" />
  <path
     d="M 39.5,8 A 3.5,3.5 0 0 0 36,11.5 3.47,3.47 0 0 0 36.35,13 v 0 a 3.54,3.54 0 0 0 0.35,0.53 L 30.88,20 32.14,9.93 A 3.5,3.5 0 0 0 34.64,8 V 8 8 A 3.47,3.47 0 0 0 35,6.5 3.5,3.5 0 0 0 28,6.5 3.47,3.47 0 0 0 28.35,8 v 0 0 a 3.49,3.49 0 0 0 0.92,1.14 l -4.33,8.65 -2,-11.2 A 3.48,3.48 0 0 0 24.64,5 V 5 5 A 3.47,3.47 0 0 0 25,3.5 3.5,3.5 0 0 0 18,3.5 3.47,3.47 0 0 0 18.35,5 V 5 5 A 3.5,3.5 0 0 0 20,6.6 l -2,11.19 -4.29,-8.6 a 3.46,3.46 0 0 0 0.92,-1.14 v 0 V 8 A 3.47,3.47 0 0 0 15,6.5 3.5,3.5 0 0 0 8,6.5 3.47,3.47 0 0 0 8.35,8 v 0 0 a 3.5,3.5 0 0 0 2.5,1.88 L 12.12,20 6.28,13.58 a 3.52,3.52 0 0 0 0.35,-0.52 v 0 0 A 3.47,3.47 0 0 0 7,11.5 3.5,3.5 0 0 0 0,11.5 3.47,3.47 0 0 0 0.35,13 v 0 0 a 3.51,3.51 0 0 0 3.15,2 h 0.07 l 6.48,17 H 9.5 a 1,1 0 0 0 -1,1 v 4 h -3 a 1,1 0 0 0 -1,1 v 5 a 1,1 0 0 0 1,1 h 32 a 1,1 0 0 0 1,-1 v -5 a 1,1 0 0 0 -1,-1 h -3 v -4 a 1,1 0 0 0 -1,-1 h -0.55 l 6.48,-17 h 0.07 a 3.51,3.51 0 0 0 3.14,-2 v 0 0 A 3.47,3.47 0 0 0 42.99,11.47 3.5,3.5 0 0 0 39.5,8 Z m -8,-3 A 1.5056228,1.5056228 0 1 1 31.24,8 1.53,1.53 0 0 1 30.15,7.17 1.5,1.5 0 0 1 31.5,5 Z m -10,-3 a 1.5,1.5 0 0 1 1.35,2.15 v 0 A 1.5,1.5 0 0 1 21.67,5 0.89,0.89 0 0 1 21.29,5 1.48,1.48 0 0 1 20.17,4.19 v 0 A 1.5,1.5 0 0 1 21.5,2 Z M 10.16,7.17 v 0 a 1.5,1.5 0 1 1 2.7,0 v 0 A 1.52,1.52 0 0 1 12.02,7.91 1.08,1.08 0 0 1 11.68,7.99 L 11.5,8 A 1.5,1.5 0 0 1 10.16,7.17 Z m -8,5 A 1.5,1.5 0 1 1 5,11.5 1.53,1.53 0 0 1 3.5,13 1.51,1.51 0 0 1 2.15,12.15 Z M 36.5,42 h -30 v -3 h 30 z m -26,-5 v -3 h 22 v 3 z m 1.69,-5 -5.87,-15.41 6.45,7.08 a 1,1 0 0 0 1.73,-0.8 l -1.27,-10.2 4.39,8.77 A 1,1 0 0 0 18.5,22 h 0.14 a 1,1 0 0 0 0.84,-0.82 l 2.02,-11.44 2,11.43 a 1,1 0 0 0 0.84,0.82 h 0.16 a 1,1 0 0 0 0.89,-0.55 l 4.39,-8.77 -1.28,10.21 a 1,1 0 0 0 1.73,0.8 L 36.68,16.6 30.81,32 Z M 40.84,12.17 A 1.5,1.5 0 0 1 39.5,13 1.14,1.14 0 0 1 38.82,12.85 1.49,1.49 0 0 1 38.24,12.2 1.67,1.67 0 0 1 38.16,11 1.49,1.49 0 0 1 38.71,10.24 1.44,1.44 0 0 1 39.5,10 a 1.48,1.48 0 0 1 1.48,1.5 1.55,1.55 0 0 1 -0.14,0.67 z"
     id="path4"
     inkscape:connector-curvature="0" />
  <path
     style="fill:#ffffff;fill-opacity:1;fill-rule:nonzero;stroke:none;stroke-width:0.06355932;stroke-opacity:1"
     d="m 10.404123,33.862779 c -0.141001,0.563088 -0.01816,1.179582 -0.05921,1.762902 0.0361,0.499112 -0.07391,1.027076 0.05785,1.507299 0.552418,0.141385 1.158512,0.01759 1.731122,0.05921 6.779662,0 13.559322,0 20.338983,0 0.376303,-0.137899 0.129141,-0.656688 0.199989,-0.9627 -0.03195,-0.777591 0.06439,-1.580512 -0.04832,-2.342155 -0.375506,-0.191313 -0.873805,-0.02869 -1.295739,-0.08241 -6.927966,0 -13.855933,0 -20.783899,0 -0.04692,0.01928 -0.09385,0.03857 -0.140774,0.05785 z"
     id="path18"
     inkscape:connector-curvature="0" />
  <path
     style="fill:#ffffff;fill-opacity:1;fill-rule:nonzero;stroke:none;stroke-width:0.06355932;stroke-opacity:1"
     d="m 6.3998861,38.883965 c -0.1413843,0.552418 -0.017587,1.158512 -0.059214,1.731123 0.033853,0.488963 -0.070657,1.005246 0.057849,1.475519 0.552418,0.141385 1.1585123,0.01759 1.7311226,0.05922 9.4491533,0 18.8983053,0 28.3474583,0 0.376303,-0.137899 0.12914,-0.656688 0.199988,-0.9627 -0.03101,-0.756589 0.0628,-1.537823 -0.04832,-2.278595 -0.375506,-0.191314 -0.873805,-0.02869 -1.295739,-0.08241 -9.597458,0 -19.194915,0 -28.7923734,0 -0.046925,0.01928 -0.093849,0.03857 -0.1407739,0.05785 z"
     id="path20"
     inkscape:connector-curvature="0" />
  <path
     style="fill:#ffffff;fill-opacity:1;fill-rule:nonzero;stroke:none;stroke-width:0.06355932;stroke-opacity:1"
     d="M 3.4307222,9.8440585 C 2.2746126,9.8321235 1.4532766,11.240638 2.0207481,12.243795 c 0.4150384,0.868069 1.6204698,1.197869 2.4045783,0.623304 0.8935888,-0.577948 0.9701281,-2.039224 0.09658,-2.673961 C 4.2152182,9.9504474 3.8204406,9.8292931 3.4307222,9.8440585 Z"
     id="path24"
     inkscape:connector-curvature="0" />
  <path
     style="fill:#ffffff;fill-opacity:1;fill-rule:nonzero;stroke:none;stroke-width:0.06355932;stroke-opacity:1"
     d="m 11.432245,4.8581276 c -1.117476,0.019274 -1.9936606,1.3809144 -1.402898,2.3763987 0.370089,0.822136 1.436644,1.1526353 2.221969,0.7347805 C 13.24281,7.5361402 13.45449,6.0813596 12.680962,5.3474848 12.359491,5.0149653 11.892538,4.8392278 11.432245,4.8581276 Z"
     id="path26"
     inkscape:connector-curvature="0" />
  <path
     style="fill:#ffffff;fill-opacity:1;fill-rule:nonzero;stroke:none;stroke-width:0.06355932;stroke-opacity:1"
     d="m 21.473004,1.844522 c -1.039078,-0.015969 -1.90545,1.0970179 -1.563534,2.0965886 0.209527,0.8647987 1.177046,1.4401493 2.032284,1.1537507 1.111694,-0.2511974 1.587628,-1.793593 0.82863,-2.6322498 -0.32097,-0.3909331 -0.779162,-0.6513636 -1.29738,-0.6180895 z"
     id="path28"
     inkscape:connector-curvature="0" />
  <path
     style="fill:#ffffff;fill-opacity:1;fill-rule:nonzero;stroke:none;stroke-width:0.06355932;stroke-opacity:1"
     d="m 31.38441,4.8597414 c -1.082412,-0.00206 -1.838885,1.2383958 -1.444237,2.2184935 0.285937,0.8845548 1.412044,1.3721242 2.226439,0.8811408 C 33.117338,7.482503 33.325261,6.0702624 32.564975,5.3315949 32.263617,5.0124276 31.823404,4.833683 31.38441,4.8597414 Z"
     id="path30"
     inkscape:connector-curvature="0" />
  <path
     style="fill:#ffffff;fill-opacity:1;fill-rule:nonzero;stroke:none;stroke-width:0.06355932;stroke-opacity:1"
     d="m 39.447754,9.8495206 c -0.891376,-0.010321 -1.598688,0.8443254 -1.517106,1.7129984 0.0014,0.890505 0.813974,1.773616 1.744654,1.586004 0.877193,-0.06534 1.544741,-0.919155 1.449202,-1.783634 -0.02688,-0.842284 -0.837777,-1.5638649 -1.67675,-1.5153684 z"
     id="path32"
     inkscape:connector-curvature="0" />
</svg>
