<?xml version="1.0" encoding="UTF-8" standalone="no"?>
<svg
   xmlns:dc="http://purl.org/dc/elements/1.1/"
   xmlns:cc="http://creativecommons.org/ns#"
   xmlns:rdf="http://www.w3.org/1999/02/22-rdf-syntax-ns#"
   xmlns:svg="http://www.w3.org/2000/svg"
   xmlns="http://www.w3.org/2000/svg"
   xmlns:sodipodi="http://sodipodi.sourceforge.net/DTD/sodipodi-0.dtd"
   xmlns:inkscape="http://www.inkscape.org/namespaces/inkscape"
   viewBox="0 0 42.990017 44"
   x="0px"
   y="0px"
   version="1.1"
   id="svg10"
   sodipodi:docname="queen_black.svg"
   width="42.990017"
   height="44"
   inkscape:version="0.92.5 (2060ec1f9f, 2020-04-08)">
  <metadata
     id="metadata16">
    <rdf:RDF>
      <cc:Work
         rdf:about="">
        <dc:format>image/svg+xml</dc:format>
        <dc:type
           rdf:resource="http://purl.org/dc/dcmitype/StillImage" />
        <dc:title>Chess-board-piece-game-sport-queen-king</dc:title>
      </cc:Work>
    </rdf:RDF>
  </metadata>
  <defs
     id="defs14" />
  <sodipodi:namedview
     pagecolor="#ffffff"
     bordercolor="#666666"
     borderopacity="1"
     objecttolerance="10"
     gridtolerance="10"
     guidetolerance="10"
     inkscape:pageopacity="0"
     inkscape:pageshadow="2"
     inkscape:window-width="947"
     inkscape:window-height="1051"
     id="namedview12"
     showgrid="false"
     fit-margin-top="0"
     fit-margin-left="0"
     fit-margin-right="0"
     fit-margin-bottom="0"
     inkscape:zoom="16"
     inkscape:cx="22.455982"
     inkscape:cy="21.075553"
     inkscape:window-x="855"
     inkscape:window-y="0"
     inkscape:window-maximized="0"
     inkscape:current-layer="svg10" />
  <title
     id="title2">Chess-board-piece-game-sport-queen-king</title>
  <path
     style="fill:#4d4d4d;stroke:#000000;stroke-width:1px;stroke-linecap:butt;stroke-linejoin:miter;stroke-opacity:1"
     d="m 11.75,33 19.875,0.0625 6.4375,-17.75 -7.875,5.8125 0.1875,-10.8125 -5.625,9.75 L 21.5625,7.9375001 18.25,19.5625 12.6875,10.6875 13.125,21.9375 5.1875,14.75 Z"
     id="path87"
     inkscape:connector-curvature="0" />
  <path
     d="M 39.5,8 A 3.5,3.5 0 0 0 36,11.5 3.47,3.47 0 0 0 36.35,13 v 0 a 3.54,3.54 0 0 0 0.35,0.53 L 30.88,20 32.14,9.93 A 3.5,3.5 0 0 0 34.64,8 V 8 8 A 3.47,3.47 0 0 0 35,6.5 3.5,3.5 0 0 0 28,6.5 3.47,3.47 0 0 0 28.35,8 v 0 0 a 3.49,3.49 0 0 0 0.92,1.14 l -4.33,8.65 -2,-11.2 A 3.48,3.48 0 0 0 24.64,5 V 5 5 A 3.47,3.47 0 0 0 25,3.5 3.5,3.5 0 0 0 18,3.5 3.47,3.47 0 0 0 18.35,5 V 5 5 A 3.5,3.5 0 0 0 20,6.6 l -2,11.19 -4.29,-8.6 a 3.46,3.46 0 0 0 0.92,-1.14 v 0 V 8 A 3.47,3.47 0 0 0 15,6.5 3.5,3.5 0 0 0 8,6.5 3.47,3.47 0 0 0 8.35,8 v 0 0 a 3.5,3.5 0 0 0 2.5,1.88 L 12.12,20 6.28,13.58 a 3.52,3.52 0 0 0 0.35,-0.52 v 0 0 A 3.47,3.47 0 0 0 7,11.5 3.5,3.5 0 0 0 0,11.5 3.47,3.47 0 0 0 0.35,13 v 0 0 a 3.51,3.51 0 0 0 3.15,2 h 0.07 l 6.48,17 H 9.5 a 1,1 0 0 0 -1,1 v 4 h -3 a 1,1 0 0 0 -1,1 v 5 a 1,1 0 0 0 1,1 h 32 a 1,1 0 0 0 1,-1 v -5 a 1,1 0 0 0 -1,-1 h -3 v -4 a 1,1 0 0 0 -1,-1 h -0.55 l 6.48,-17 h 0.07 a 3.51,3.51 0 0 0 3.14,-2 v 0 0 A 3.47,3.47 0 0 0 42.99,11.47 3.5,3.5 0 0 0 39.5,8 Z m -8,-3 A 1.5056228,1.5056228 0 1 1 31.24,8 1.53,1.53 0 0 1 30.15,7.17 1.5,1.5 0 0 1 31.5,5 Z m -10,-3 a 1.5,1.5 0 0 1 1.35,2.15 v 0 A 1.5,1.5 0 0 1 21.67,5 0.89,0.89 0 0 1 21.29,5 1.48,1.48 0 0 1 20.17,4.19 v 0 A 1.5,1.5 0 0 1 21.5,2 Z M 10.16,7.17 v 0 a 1.5,1.5 0 1 1 2.7,0 v 0 A 1.52,1.52 0 0 1 12.02,7.91 1.08,1.08 0 0 1 11.68,7.99 L 11.5,8 A 1.5,1.5 0 0 1 10.16,7.17 Z m -8,5 A 1.5,1.5 0 1 1 5,11.5 1.53,1.53 0 0 1 3.5,13 1.51,1.51 0 0 1 2.15,12.15 Z M 36.5,42 h -30 v -3 h 30 z m -26,-5 v -3 h 22 v 3 z m 1.69,-5 -5.87,-15.41 6.45,7.08 a 1,1 0 0 0 1.73,-0.8 l -1.27,-10.2 4.39,8.77 A 1,1 0 0 0 18.5,22 h 0.14 a 1,1 0 0 0 0.84,-0.82 l 2.02,-11.44 2,11.43 a 1,1 0 0 0 0.84,0.82 h 0.16 a 1,1 0 0 0 0.89,-0.55 l 4.39,-8.77 -1.28,10.21 a 1,1 0 0 0 1.73,0.8 L 36.68,16.6 30.81,32 Z M 40.84,12.17 A 1.5,1.5 0 0 1 39.5,13 1.14,1.14 0 0 1 38.82,12.85 1.49,1.49 0 0 1 38.24,12.2 1.67,1.67 0 0 1 38.16,11 1.49,1.49 0 0 1 38.71,10.24 1.44,1.44 0 0 1 39.5,10 a 1.48,1.48 0 0 1 1.48,1.5 1.55,1.55 0 0 1 -0.14,0.67 z"
     id="path4"
     inkscape:connector-curvature="0" />
  <path
     style="fill:#4d4d4d;fill-opacity:1;fill-rule:nonzero;stroke:none;stroke-width:0.08988646;stroke-opacity:1"
     d="m 11.531651,4.9727695 c -0.950675,0.013763 -1.8057007,0.9742108 -1.488569,1.9288721 0.234585,1.2217145 2.060412,1.507881 2.717486,0.4915665 0.566183,-0.7142809 0.250261,-1.8025759 -0.53177,-2.2115228 -0.20884,-0.1285279 -0.448688,-0.218727 -0.697147,-0.2089158 z"
     id="path34"
     inkscape:connector-curvature="0" />
  <path
     style="fill:#4d4d4d;fill-opacity:1;fill-rule:nonzero;stroke:none;stroke-width:0.08988646;stroke-opacity:1"
     d="M 3.4889202,9.9739325 C 2.4163327,9.9308143 1.5612137,11.219141 2.1462412,12.161579 2.5192393,13.043881 3.7378832,13.308644 4.4495817,12.669824 5.2980916,12.078027 5.1867646,10.71114 4.3091341,10.205144 4.0678332,10.046739 3.7784319,9.9589573 3.4889202,9.9739325 Z"
     id="path36"
     inkscape:connector-curvature="0" />
  <path
     style="fill:#4d4d4d;fill-opacity:1;fill-rule:nonzero;stroke:none;stroke-width:0.08988646;stroke-opacity:1"
     d="m 21.453395,1.96368 c -1.103108,0.017175 -1.916854,1.4269688 -1.236289,2.3510926 0.360353,0.5940715 1.104798,0.9104394 1.76841,0.6314875 1.047321,-0.2811494 1.396058,-1.7396975 0.63061,-2.4846934 C 22.319825,2.145213 21.88874,1.951864 21.453395,1.96368 Z"
     id="path38"
     inkscape:connector-curvature="0" />
  <path
     style="fill:#4d4d4d;fill-opacity:1;fill-rule:nonzero;stroke:none;stroke-width:0.08988646;stroke-opacity:1"
     d="m 31.39726,4.9604804 c -1.001287,0.062126 -1.747324,1.197511 -1.306514,2.1262009 0.283183,0.821576 1.345866,1.2495094 2.07406,0.7219006 C 33.08826,7.3182501 33.158779,5.9070796 32.320527,5.2965012 32.060616,5.0932465 31.728761,4.9616936 31.39726,4.9604804 Z"
     id="path40"
     inkscape:connector-curvature="0" />
  <path
     style="fill:#4d4d4d;fill-opacity:1;fill-rule:nonzero;stroke:none;stroke-width:0.08988646;stroke-opacity:1"
     d="m 39.530229,9.9700702 c -1.058282,-0.019205 -1.844147,1.2297358 -1.332483,2.1698068 0.216574,0.673287 0.946075,1.033531 1.618645,0.859472 0.822782,-0.129613 1.332739,-1.014264 1.147105,-1.806331 -0.07328,-0.669001 -0.777049,-1.2259474 -1.433267,-1.2229478 z"
     id="path42"
     inkscape:connector-curvature="0" />
  <path
     style="fill:#4d4d4d;fill-opacity:1;fill-rule:nonzero;stroke:none;stroke-width:0.08988646;stroke-opacity:1"
     d="m 10.466883,34.011888 c -0.02178,0.995657 -0.05928,2.030596 0.01896,3.016463 7.324178,0.04793 14.663038,0.0068 21.992863,0.02054 0.231904,-0.436755 0.03459,-1.10337 0.100069,-1.628139 -0.130222,-0.437171 0.293524,-1.386154 -0.279841,-1.448366 -7.250841,0 -14.501682,0 -21.752523,0 z"
     id="path44"
     inkscape:connector-curvature="0" />
  <path
     style="fill:#4d4d4d;fill-opacity:1;fill-rule:nonzero;stroke:none;stroke-width:0.08988646;stroke-opacity:1"
     d="m 6.4219925,38.955643 c -0.020599,1.0254 -0.060259,2.090763 0.01896,3.10635 8.4477585,0.04793 16.9102015,0.0068 25.3636055,0.02054 1.566388,-0.02668 3.157771,0.05314 4.708681,-0.0395 0.0206,-1.0254 0.06026,-2.090763 -0.01896,-3.106349 -8.447759,-0.04793 -16.910202,-0.0068 -25.363606,-0.02054 -1.5659831,0.02663 -3.1583488,-0.05306 -4.7086809,0.0395 z"
     id="path46"
     inkscape:connector-curvature="0" />
  <g
     inkscape:groupmode="layer"
     id="layer1"
     inkscape:label="Layer 1" />
</svg>
