G04 EAGLE Gerber RS-274X export*
G75*
%MOMM*%
%FSLAX34Y34*%
%LPD*%
%INBottom Silk screen*%
%IPPOS*%
%AMOC8*
5,1,8,0,0,1.08239X$1,22.5*%
G01*
%ADD10C,0.203200*%
%ADD11R,0.508000X0.508000*%
%ADD12C,0.127000*%
%ADD13C,0.248919*%
%ADD14C,0.152400*%
%ADD15C,0.457200*%


D10*
X787650Y90100D02*
X781300Y96450D01*
X781300Y109150D02*
X787650Y115500D01*
X781300Y121850D01*
X781300Y134550D02*
X787650Y140900D01*
X781300Y147250D01*
X781300Y159950D02*
X787650Y166300D01*
X787650Y90100D02*
X825750Y90100D01*
X832100Y96450D01*
X832100Y109150D01*
X825750Y115500D01*
X832100Y121850D01*
X832100Y134550D01*
X825750Y140900D01*
X832100Y147250D01*
X832100Y159950D01*
X825750Y166300D01*
X825750Y115500D02*
X787650Y115500D01*
X787650Y140900D02*
X825750Y140900D01*
X825750Y166300D02*
X787650Y166300D01*
X781300Y159950D02*
X781300Y147250D01*
X781300Y134550D02*
X781300Y121850D01*
X781300Y109150D02*
X781300Y96450D01*
X777950Y96450D02*
X777950Y109150D01*
D11*
X794000Y102800D03*
X819400Y102800D03*
X819400Y128200D03*
X794000Y128200D03*
X819400Y153600D03*
X794000Y153600D03*
D12*
X835077Y92344D02*
X838831Y92344D01*
X835077Y92343D02*
X835012Y92341D01*
X834948Y92335D01*
X834884Y92325D01*
X834820Y92312D01*
X834758Y92294D01*
X834697Y92273D01*
X834637Y92249D01*
X834579Y92220D01*
X834522Y92188D01*
X834468Y92153D01*
X834416Y92115D01*
X834366Y92073D01*
X834319Y92029D01*
X834275Y91982D01*
X834233Y91932D01*
X834195Y91880D01*
X834160Y91826D01*
X834128Y91769D01*
X834099Y91711D01*
X834075Y91651D01*
X834054Y91590D01*
X834036Y91528D01*
X834023Y91464D01*
X834013Y91400D01*
X834007Y91336D01*
X834005Y91271D01*
X834005Y90735D01*
X838831Y96766D02*
X838829Y96834D01*
X838823Y96901D01*
X838814Y96968D01*
X838801Y97035D01*
X838784Y97100D01*
X838763Y97165D01*
X838739Y97228D01*
X838711Y97290D01*
X838680Y97350D01*
X838646Y97408D01*
X838608Y97464D01*
X838568Y97519D01*
X838524Y97570D01*
X838477Y97619D01*
X838428Y97666D01*
X838377Y97710D01*
X838322Y97750D01*
X838266Y97788D01*
X838208Y97822D01*
X838148Y97853D01*
X838086Y97881D01*
X838023Y97905D01*
X837958Y97926D01*
X837893Y97943D01*
X837826Y97956D01*
X837759Y97965D01*
X837692Y97971D01*
X837624Y97973D01*
X838831Y96766D02*
X838829Y96688D01*
X838823Y96610D01*
X838813Y96533D01*
X838800Y96456D01*
X838782Y96380D01*
X838761Y96305D01*
X838736Y96231D01*
X838707Y96159D01*
X838675Y96088D01*
X838639Y96019D01*
X838600Y95951D01*
X838557Y95886D01*
X838511Y95823D01*
X838462Y95762D01*
X838410Y95704D01*
X838355Y95649D01*
X838298Y95596D01*
X838238Y95547D01*
X838175Y95500D01*
X838110Y95457D01*
X838044Y95417D01*
X837975Y95380D01*
X837904Y95347D01*
X837832Y95317D01*
X837759Y95291D01*
X836686Y97571D02*
X836735Y97620D01*
X836787Y97667D01*
X836842Y97710D01*
X836899Y97751D01*
X836958Y97789D01*
X837019Y97823D01*
X837082Y97854D01*
X837146Y97882D01*
X837212Y97906D01*
X837278Y97926D01*
X837346Y97943D01*
X837415Y97956D01*
X837484Y97965D01*
X837554Y97971D01*
X837624Y97973D01*
X836686Y97571D02*
X834005Y95292D01*
X834005Y97973D01*
X772791Y92344D02*
X767965Y90735D01*
X767965Y93952D02*
X772791Y92344D01*
X769172Y93550D02*
X769172Y91137D01*
X772791Y96221D02*
X767965Y97830D01*
X772791Y99439D01*
X772791Y102222D02*
X767965Y102222D01*
X772791Y102222D02*
X772791Y103563D01*
X772789Y103634D01*
X772783Y103706D01*
X772774Y103776D01*
X772761Y103846D01*
X772744Y103916D01*
X772723Y103984D01*
X772699Y104051D01*
X772671Y104117D01*
X772640Y104181D01*
X772605Y104244D01*
X772567Y104304D01*
X772526Y104363D01*
X772482Y104419D01*
X772435Y104473D01*
X772386Y104524D01*
X772333Y104572D01*
X772278Y104618D01*
X772221Y104660D01*
X772161Y104700D01*
X772100Y104736D01*
X772036Y104769D01*
X771971Y104798D01*
X771905Y104824D01*
X771837Y104847D01*
X771768Y104866D01*
X771698Y104881D01*
X771628Y104892D01*
X771557Y104900D01*
X771486Y104904D01*
X771414Y104904D01*
X771343Y104900D01*
X771272Y104892D01*
X771202Y104881D01*
X771132Y104866D01*
X771063Y104847D01*
X770995Y104824D01*
X770929Y104798D01*
X770864Y104769D01*
X770800Y104736D01*
X770739Y104700D01*
X770679Y104660D01*
X770622Y104618D01*
X770567Y104572D01*
X770514Y104524D01*
X770465Y104473D01*
X770418Y104419D01*
X770374Y104363D01*
X770333Y104304D01*
X770295Y104244D01*
X770260Y104181D01*
X770229Y104117D01*
X770201Y104051D01*
X770177Y103984D01*
X770156Y103916D01*
X770139Y103846D01*
X770126Y103776D01*
X770117Y103706D01*
X770111Y103634D01*
X770109Y103563D01*
X770110Y103563D02*
X770110Y102222D01*
X770110Y103831D02*
X767965Y104904D01*
X767429Y107365D02*
X767429Y109509D01*
X767965Y113460D02*
X767967Y113525D01*
X767973Y113589D01*
X767983Y113653D01*
X767996Y113717D01*
X768014Y113779D01*
X768035Y113840D01*
X768059Y113900D01*
X768088Y113958D01*
X768120Y114015D01*
X768155Y114069D01*
X768193Y114121D01*
X768235Y114171D01*
X768279Y114218D01*
X768326Y114262D01*
X768376Y114304D01*
X768428Y114342D01*
X768482Y114377D01*
X768539Y114409D01*
X768597Y114438D01*
X768657Y114462D01*
X768718Y114483D01*
X768780Y114501D01*
X768844Y114514D01*
X768908Y114524D01*
X768972Y114530D01*
X769037Y114532D01*
X767965Y113460D02*
X767967Y113366D01*
X767973Y113272D01*
X767983Y113178D01*
X767996Y113085D01*
X768014Y112993D01*
X768035Y112901D01*
X768060Y112810D01*
X768089Y112720D01*
X768122Y112632D01*
X768158Y112545D01*
X768198Y112460D01*
X768241Y112376D01*
X768288Y112295D01*
X768338Y112215D01*
X768391Y112137D01*
X768448Y112062D01*
X768507Y111989D01*
X768570Y111919D01*
X768635Y111851D01*
X771719Y111986D02*
X771784Y111988D01*
X771848Y111994D01*
X771912Y112004D01*
X771976Y112017D01*
X772038Y112035D01*
X772099Y112056D01*
X772159Y112080D01*
X772217Y112109D01*
X772274Y112141D01*
X772328Y112176D01*
X772380Y112214D01*
X772430Y112256D01*
X772477Y112300D01*
X772521Y112347D01*
X772563Y112397D01*
X772601Y112449D01*
X772636Y112503D01*
X772668Y112560D01*
X772697Y112618D01*
X772721Y112678D01*
X772742Y112739D01*
X772760Y112801D01*
X772773Y112865D01*
X772783Y112929D01*
X772789Y112993D01*
X772791Y113058D01*
X772789Y113144D01*
X772784Y113230D01*
X772774Y113316D01*
X772761Y113401D01*
X772745Y113486D01*
X772725Y113570D01*
X772701Y113653D01*
X772674Y113735D01*
X772643Y113815D01*
X772609Y113895D01*
X772571Y113972D01*
X772530Y114048D01*
X772486Y114122D01*
X772439Y114194D01*
X772389Y114265D01*
X770781Y112521D02*
X770814Y112468D01*
X770851Y112417D01*
X770890Y112368D01*
X770932Y112321D01*
X770977Y112277D01*
X771024Y112236D01*
X771073Y112197D01*
X771125Y112161D01*
X771179Y112128D01*
X771234Y112099D01*
X771291Y112073D01*
X771350Y112050D01*
X771409Y112030D01*
X771470Y112014D01*
X771531Y112001D01*
X771594Y111992D01*
X771656Y111987D01*
X771719Y111985D01*
X769975Y113996D02*
X769942Y114049D01*
X769905Y114100D01*
X769866Y114149D01*
X769824Y114196D01*
X769779Y114240D01*
X769732Y114281D01*
X769683Y114320D01*
X769631Y114356D01*
X769577Y114389D01*
X769522Y114418D01*
X769465Y114444D01*
X769406Y114467D01*
X769347Y114487D01*
X769286Y114503D01*
X769225Y114516D01*
X769162Y114525D01*
X769100Y114530D01*
X769037Y114532D01*
X769976Y113996D02*
X770780Y112522D01*
X772791Y117484D02*
X767965Y117484D01*
X772791Y117484D02*
X772791Y118825D01*
X772789Y118896D01*
X772783Y118968D01*
X772774Y119038D01*
X772761Y119108D01*
X772744Y119178D01*
X772723Y119246D01*
X772699Y119313D01*
X772671Y119379D01*
X772640Y119443D01*
X772605Y119506D01*
X772567Y119566D01*
X772526Y119625D01*
X772482Y119681D01*
X772435Y119735D01*
X772386Y119786D01*
X772333Y119834D01*
X772278Y119880D01*
X772221Y119922D01*
X772161Y119962D01*
X772100Y119998D01*
X772036Y120031D01*
X771971Y120060D01*
X771905Y120086D01*
X771837Y120109D01*
X771768Y120128D01*
X771698Y120143D01*
X771628Y120154D01*
X771557Y120162D01*
X771486Y120166D01*
X771414Y120166D01*
X771343Y120162D01*
X771272Y120154D01*
X771202Y120143D01*
X771132Y120128D01*
X771063Y120109D01*
X770995Y120086D01*
X770929Y120060D01*
X770864Y120031D01*
X770800Y119998D01*
X770739Y119962D01*
X770679Y119922D01*
X770622Y119880D01*
X770567Y119834D01*
X770514Y119786D01*
X770465Y119735D01*
X770418Y119681D01*
X770374Y119625D01*
X770333Y119566D01*
X770295Y119506D01*
X770260Y119443D01*
X770229Y119379D01*
X770201Y119313D01*
X770177Y119246D01*
X770156Y119178D01*
X770139Y119108D01*
X770126Y119038D01*
X770117Y118968D01*
X770111Y118896D01*
X770109Y118825D01*
X770110Y118825D02*
X770110Y117484D01*
X767965Y122884D02*
X772791Y122884D01*
X767965Y122348D02*
X767965Y123421D01*
X772791Y123421D02*
X772791Y122348D01*
X767429Y125652D02*
X767429Y127797D01*
X767965Y130651D02*
X772791Y130651D01*
X772791Y131992D01*
X772789Y132063D01*
X772783Y132135D01*
X772774Y132205D01*
X772761Y132275D01*
X772744Y132345D01*
X772723Y132413D01*
X772699Y132480D01*
X772671Y132546D01*
X772640Y132610D01*
X772605Y132673D01*
X772567Y132733D01*
X772526Y132792D01*
X772482Y132848D01*
X772435Y132902D01*
X772386Y132953D01*
X772333Y133001D01*
X772278Y133047D01*
X772221Y133089D01*
X772161Y133129D01*
X772100Y133165D01*
X772036Y133198D01*
X771971Y133227D01*
X771905Y133253D01*
X771837Y133276D01*
X771768Y133295D01*
X771698Y133310D01*
X771628Y133321D01*
X771557Y133329D01*
X771486Y133333D01*
X771414Y133333D01*
X771343Y133329D01*
X771272Y133321D01*
X771202Y133310D01*
X771132Y133295D01*
X771063Y133276D01*
X770995Y133253D01*
X770929Y133227D01*
X770864Y133198D01*
X770800Y133165D01*
X770739Y133129D01*
X770679Y133089D01*
X770622Y133047D01*
X770567Y133001D01*
X770514Y132953D01*
X770465Y132902D01*
X770418Y132848D01*
X770374Y132792D01*
X770333Y132733D01*
X770295Y132673D01*
X770260Y132610D01*
X770229Y132546D01*
X770201Y132480D01*
X770177Y132413D01*
X770156Y132345D01*
X770139Y132275D01*
X770126Y132205D01*
X770117Y132135D01*
X770111Y132063D01*
X770109Y131992D01*
X770110Y131992D02*
X770110Y130651D01*
X767965Y136055D02*
X772791Y136055D01*
X772791Y137396D01*
X772789Y137467D01*
X772783Y137539D01*
X772774Y137609D01*
X772761Y137679D01*
X772744Y137749D01*
X772723Y137817D01*
X772699Y137884D01*
X772671Y137950D01*
X772640Y138014D01*
X772605Y138077D01*
X772567Y138137D01*
X772526Y138196D01*
X772482Y138252D01*
X772435Y138306D01*
X772386Y138357D01*
X772333Y138405D01*
X772278Y138451D01*
X772221Y138493D01*
X772161Y138533D01*
X772100Y138569D01*
X772036Y138602D01*
X771971Y138631D01*
X771905Y138657D01*
X771837Y138680D01*
X771768Y138699D01*
X771698Y138714D01*
X771628Y138725D01*
X771557Y138733D01*
X771486Y138737D01*
X771414Y138737D01*
X771343Y138733D01*
X771272Y138725D01*
X771202Y138714D01*
X771132Y138699D01*
X771063Y138680D01*
X770995Y138657D01*
X770929Y138631D01*
X770864Y138602D01*
X770800Y138569D01*
X770739Y138533D01*
X770679Y138493D01*
X770622Y138451D01*
X770567Y138405D01*
X770514Y138357D01*
X770465Y138306D01*
X770418Y138252D01*
X770374Y138196D01*
X770333Y138137D01*
X770295Y138077D01*
X770260Y138014D01*
X770229Y137950D01*
X770201Y137884D01*
X770177Y137817D01*
X770156Y137749D01*
X770139Y137679D01*
X770126Y137609D01*
X770117Y137539D01*
X770111Y137467D01*
X770109Y137396D01*
X770110Y137396D02*
X770110Y136055D01*
X770110Y137664D02*
X767965Y138736D01*
X769306Y141478D02*
X771450Y141478D01*
X771450Y141477D02*
X771521Y141479D01*
X771593Y141485D01*
X771663Y141494D01*
X771733Y141507D01*
X771803Y141524D01*
X771871Y141545D01*
X771938Y141569D01*
X772004Y141597D01*
X772068Y141628D01*
X772131Y141663D01*
X772191Y141701D01*
X772250Y141742D01*
X772306Y141786D01*
X772360Y141833D01*
X772411Y141882D01*
X772459Y141935D01*
X772505Y141990D01*
X772547Y142047D01*
X772587Y142107D01*
X772623Y142168D01*
X772656Y142232D01*
X772685Y142297D01*
X772711Y142363D01*
X772734Y142431D01*
X772753Y142500D01*
X772768Y142570D01*
X772779Y142640D01*
X772787Y142711D01*
X772791Y142782D01*
X772791Y142854D01*
X772787Y142925D01*
X772779Y142996D01*
X772768Y143066D01*
X772753Y143136D01*
X772734Y143205D01*
X772711Y143273D01*
X772685Y143339D01*
X772656Y143404D01*
X772623Y143468D01*
X772587Y143529D01*
X772547Y143589D01*
X772505Y143646D01*
X772459Y143701D01*
X772411Y143754D01*
X772360Y143803D01*
X772306Y143850D01*
X772250Y143894D01*
X772191Y143935D01*
X772131Y143973D01*
X772068Y144008D01*
X772004Y144039D01*
X771938Y144067D01*
X771871Y144091D01*
X771803Y144112D01*
X771733Y144129D01*
X771663Y144142D01*
X771593Y144151D01*
X771521Y144157D01*
X771450Y144159D01*
X769306Y144159D01*
X769235Y144157D01*
X769163Y144151D01*
X769093Y144142D01*
X769023Y144129D01*
X768953Y144112D01*
X768885Y144091D01*
X768818Y144067D01*
X768752Y144039D01*
X768688Y144008D01*
X768625Y143973D01*
X768565Y143935D01*
X768506Y143894D01*
X768450Y143850D01*
X768396Y143803D01*
X768345Y143754D01*
X768297Y143701D01*
X768251Y143646D01*
X768209Y143589D01*
X768169Y143529D01*
X768133Y143468D01*
X768100Y143404D01*
X768071Y143339D01*
X768045Y143273D01*
X768022Y143205D01*
X768003Y143136D01*
X767988Y143066D01*
X767977Y142996D01*
X767969Y142925D01*
X767965Y142854D01*
X767965Y142782D01*
X767969Y142711D01*
X767977Y142640D01*
X767988Y142570D01*
X768003Y142500D01*
X768022Y142431D01*
X768045Y142363D01*
X768071Y142297D01*
X768100Y142232D01*
X768133Y142168D01*
X768169Y142107D01*
X768209Y142047D01*
X768251Y141990D01*
X768297Y141935D01*
X768345Y141882D01*
X768396Y141833D01*
X768450Y141786D01*
X768506Y141742D01*
X768565Y141701D01*
X768625Y141663D01*
X768688Y141628D01*
X768752Y141597D01*
X768818Y141569D01*
X768885Y141545D01*
X768953Y141524D01*
X769023Y141507D01*
X769093Y141494D01*
X769163Y141485D01*
X769235Y141479D01*
X769306Y141477D01*
X770646Y149024D02*
X770646Y149828D01*
X767965Y149828D01*
X767965Y148219D01*
X767967Y148154D01*
X767973Y148090D01*
X767983Y148026D01*
X767996Y147962D01*
X768014Y147900D01*
X768035Y147839D01*
X768059Y147779D01*
X768088Y147721D01*
X768120Y147664D01*
X768155Y147610D01*
X768193Y147558D01*
X768235Y147508D01*
X768279Y147461D01*
X768326Y147417D01*
X768376Y147375D01*
X768428Y147337D01*
X768482Y147302D01*
X768539Y147270D01*
X768597Y147241D01*
X768657Y147217D01*
X768718Y147196D01*
X768780Y147178D01*
X768844Y147165D01*
X768908Y147155D01*
X768972Y147149D01*
X769037Y147147D01*
X771719Y147147D01*
X771784Y147149D01*
X771848Y147155D01*
X771912Y147165D01*
X771976Y147178D01*
X772038Y147196D01*
X772099Y147217D01*
X772159Y147241D01*
X772217Y147270D01*
X772274Y147302D01*
X772328Y147337D01*
X772380Y147375D01*
X772430Y147417D01*
X772477Y147461D01*
X772521Y147508D01*
X772563Y147558D01*
X772601Y147610D01*
X772636Y147664D01*
X772668Y147721D01*
X772697Y147779D01*
X772721Y147839D01*
X772742Y147900D01*
X772760Y147962D01*
X772773Y148026D01*
X772783Y148090D01*
X772789Y148154D01*
X772791Y148219D01*
X772791Y149828D01*
X767429Y152536D02*
X767429Y154680D01*
X767965Y157205D02*
X767965Y158546D01*
X767967Y158617D01*
X767973Y158689D01*
X767982Y158759D01*
X767995Y158829D01*
X768012Y158899D01*
X768033Y158967D01*
X768057Y159034D01*
X768085Y159100D01*
X768116Y159164D01*
X768151Y159227D01*
X768189Y159287D01*
X768230Y159346D01*
X768274Y159402D01*
X768321Y159456D01*
X768370Y159507D01*
X768423Y159555D01*
X768478Y159601D01*
X768535Y159643D01*
X768595Y159683D01*
X768656Y159719D01*
X768720Y159752D01*
X768785Y159781D01*
X768851Y159807D01*
X768919Y159830D01*
X768988Y159849D01*
X769058Y159864D01*
X769128Y159875D01*
X769199Y159883D01*
X769270Y159887D01*
X769342Y159887D01*
X769413Y159883D01*
X769484Y159875D01*
X769554Y159864D01*
X769624Y159849D01*
X769693Y159830D01*
X769761Y159807D01*
X769827Y159781D01*
X769892Y159752D01*
X769956Y159719D01*
X770017Y159683D01*
X770077Y159643D01*
X770134Y159601D01*
X770189Y159555D01*
X770242Y159507D01*
X770291Y159456D01*
X770338Y159402D01*
X770382Y159346D01*
X770423Y159287D01*
X770461Y159227D01*
X770496Y159164D01*
X770527Y159100D01*
X770555Y159034D01*
X770579Y158967D01*
X770600Y158899D01*
X770617Y158829D01*
X770630Y158759D01*
X770639Y158689D01*
X770645Y158617D01*
X770647Y158546D01*
X772791Y158814D02*
X772791Y157205D01*
X772791Y158814D02*
X772789Y158879D01*
X772783Y158943D01*
X772773Y159007D01*
X772760Y159071D01*
X772742Y159133D01*
X772721Y159194D01*
X772697Y159254D01*
X772668Y159312D01*
X772636Y159369D01*
X772601Y159423D01*
X772563Y159475D01*
X772521Y159525D01*
X772477Y159572D01*
X772430Y159616D01*
X772380Y159658D01*
X772328Y159696D01*
X772274Y159731D01*
X772217Y159763D01*
X772159Y159792D01*
X772099Y159816D01*
X772038Y159837D01*
X771976Y159855D01*
X771912Y159868D01*
X771848Y159878D01*
X771784Y159884D01*
X771719Y159886D01*
X771654Y159884D01*
X771590Y159878D01*
X771526Y159868D01*
X771462Y159855D01*
X771400Y159837D01*
X771339Y159816D01*
X771279Y159792D01*
X771221Y159763D01*
X771164Y159731D01*
X771110Y159696D01*
X771058Y159658D01*
X771008Y159616D01*
X770961Y159572D01*
X770917Y159525D01*
X770875Y159475D01*
X770837Y159423D01*
X770802Y159369D01*
X770770Y159312D01*
X770741Y159254D01*
X770717Y159194D01*
X770696Y159133D01*
X770678Y159071D01*
X770665Y159007D01*
X770655Y158943D01*
X770649Y158879D01*
X770647Y158814D01*
X770646Y158814D02*
X770646Y157741D01*
X767965Y162423D02*
X772791Y165641D01*
X772791Y162423D02*
X767965Y165641D01*
X772791Y169652D02*
X772789Y169720D01*
X772783Y169787D01*
X772774Y169854D01*
X772761Y169921D01*
X772744Y169986D01*
X772723Y170051D01*
X772699Y170114D01*
X772671Y170176D01*
X772640Y170236D01*
X772606Y170294D01*
X772568Y170350D01*
X772528Y170405D01*
X772484Y170456D01*
X772437Y170505D01*
X772388Y170552D01*
X772337Y170596D01*
X772282Y170636D01*
X772226Y170674D01*
X772168Y170708D01*
X772108Y170739D01*
X772046Y170767D01*
X771983Y170791D01*
X771918Y170812D01*
X771853Y170829D01*
X771786Y170842D01*
X771719Y170851D01*
X771652Y170857D01*
X771584Y170859D01*
X772791Y169652D02*
X772789Y169574D01*
X772783Y169496D01*
X772773Y169419D01*
X772760Y169342D01*
X772742Y169266D01*
X772721Y169191D01*
X772696Y169117D01*
X772667Y169045D01*
X772635Y168974D01*
X772599Y168905D01*
X772560Y168837D01*
X772517Y168772D01*
X772471Y168709D01*
X772422Y168648D01*
X772370Y168590D01*
X772315Y168535D01*
X772258Y168482D01*
X772198Y168433D01*
X772135Y168386D01*
X772070Y168343D01*
X772004Y168303D01*
X771935Y168266D01*
X771864Y168233D01*
X771792Y168203D01*
X771719Y168177D01*
X770646Y170457D02*
X770695Y170506D01*
X770747Y170553D01*
X770802Y170596D01*
X770859Y170637D01*
X770918Y170675D01*
X770979Y170709D01*
X771042Y170740D01*
X771106Y170768D01*
X771172Y170792D01*
X771238Y170812D01*
X771306Y170829D01*
X771375Y170842D01*
X771444Y170851D01*
X771514Y170857D01*
X771584Y170859D01*
X770646Y170457D02*
X767965Y168178D01*
X767965Y170859D01*
X772791Y175139D02*
X772789Y175207D01*
X772783Y175274D01*
X772774Y175341D01*
X772761Y175408D01*
X772744Y175473D01*
X772723Y175538D01*
X772699Y175601D01*
X772671Y175663D01*
X772640Y175723D01*
X772606Y175781D01*
X772568Y175837D01*
X772528Y175892D01*
X772484Y175943D01*
X772437Y175992D01*
X772388Y176039D01*
X772337Y176083D01*
X772282Y176123D01*
X772226Y176161D01*
X772168Y176195D01*
X772108Y176226D01*
X772046Y176254D01*
X771983Y176278D01*
X771918Y176299D01*
X771853Y176316D01*
X771786Y176329D01*
X771719Y176338D01*
X771652Y176344D01*
X771584Y176346D01*
X772791Y175139D02*
X772789Y175061D01*
X772783Y174983D01*
X772773Y174906D01*
X772760Y174829D01*
X772742Y174753D01*
X772721Y174678D01*
X772696Y174604D01*
X772667Y174532D01*
X772635Y174461D01*
X772599Y174392D01*
X772560Y174324D01*
X772517Y174259D01*
X772471Y174196D01*
X772422Y174135D01*
X772370Y174077D01*
X772315Y174022D01*
X772258Y173969D01*
X772198Y173920D01*
X772135Y173873D01*
X772070Y173830D01*
X772004Y173790D01*
X771935Y173753D01*
X771864Y173720D01*
X771792Y173690D01*
X771719Y173664D01*
X770646Y175943D02*
X770695Y175992D01*
X770747Y176039D01*
X770802Y176082D01*
X770859Y176123D01*
X770918Y176161D01*
X770979Y176195D01*
X771042Y176226D01*
X771106Y176254D01*
X771172Y176278D01*
X771238Y176298D01*
X771306Y176315D01*
X771375Y176328D01*
X771444Y176337D01*
X771514Y176343D01*
X771584Y176345D01*
X770646Y175943D02*
X767965Y173664D01*
X767965Y176345D01*
X767965Y178883D02*
X772791Y182100D01*
X772791Y178883D02*
X767965Y182100D01*
X767965Y184637D02*
X767965Y185978D01*
X767967Y186049D01*
X767973Y186121D01*
X767982Y186191D01*
X767995Y186261D01*
X768012Y186331D01*
X768033Y186399D01*
X768057Y186466D01*
X768085Y186532D01*
X768116Y186596D01*
X768151Y186659D01*
X768189Y186719D01*
X768230Y186778D01*
X768274Y186834D01*
X768321Y186888D01*
X768370Y186939D01*
X768423Y186987D01*
X768478Y187033D01*
X768535Y187075D01*
X768595Y187115D01*
X768656Y187151D01*
X768720Y187184D01*
X768785Y187213D01*
X768851Y187239D01*
X768919Y187262D01*
X768988Y187281D01*
X769058Y187296D01*
X769128Y187307D01*
X769199Y187315D01*
X769270Y187319D01*
X769342Y187319D01*
X769413Y187315D01*
X769484Y187307D01*
X769554Y187296D01*
X769624Y187281D01*
X769693Y187262D01*
X769761Y187239D01*
X769827Y187213D01*
X769892Y187184D01*
X769956Y187151D01*
X770017Y187115D01*
X770077Y187075D01*
X770134Y187033D01*
X770189Y186987D01*
X770242Y186939D01*
X770291Y186888D01*
X770338Y186834D01*
X770382Y186778D01*
X770423Y186719D01*
X770461Y186659D01*
X770496Y186596D01*
X770527Y186532D01*
X770555Y186466D01*
X770579Y186399D01*
X770600Y186331D01*
X770617Y186261D01*
X770630Y186191D01*
X770639Y186121D01*
X770645Y186049D01*
X770647Y185978D01*
X772791Y186246D02*
X772791Y184637D01*
X772791Y186246D02*
X772789Y186311D01*
X772783Y186375D01*
X772773Y186439D01*
X772760Y186503D01*
X772742Y186565D01*
X772721Y186626D01*
X772697Y186686D01*
X772668Y186744D01*
X772636Y186801D01*
X772601Y186855D01*
X772563Y186907D01*
X772521Y186957D01*
X772477Y187004D01*
X772430Y187048D01*
X772380Y187090D01*
X772328Y187128D01*
X772274Y187163D01*
X772217Y187195D01*
X772159Y187224D01*
X772099Y187248D01*
X772038Y187269D01*
X771976Y187287D01*
X771912Y187300D01*
X771848Y187310D01*
X771784Y187316D01*
X771719Y187318D01*
X771654Y187316D01*
X771590Y187310D01*
X771526Y187300D01*
X771462Y187287D01*
X771400Y187269D01*
X771339Y187248D01*
X771279Y187224D01*
X771221Y187195D01*
X771164Y187163D01*
X771110Y187128D01*
X771058Y187090D01*
X771008Y187048D01*
X770961Y187004D01*
X770917Y186957D01*
X770875Y186907D01*
X770837Y186855D01*
X770802Y186801D01*
X770770Y186744D01*
X770741Y186686D01*
X770717Y186626D01*
X770696Y186565D01*
X770678Y186503D01*
X770665Y186439D01*
X770655Y186375D01*
X770649Y186311D01*
X770647Y186246D01*
X770646Y186246D02*
X770646Y185173D01*
X767429Y189843D02*
X767429Y191988D01*
X767965Y194715D02*
X772791Y194715D01*
X767965Y194715D02*
X767965Y196860D01*
X769306Y199267D02*
X771450Y199267D01*
X771521Y199269D01*
X771593Y199275D01*
X771663Y199284D01*
X771733Y199297D01*
X771803Y199314D01*
X771871Y199335D01*
X771938Y199359D01*
X772004Y199387D01*
X772068Y199418D01*
X772131Y199453D01*
X772191Y199491D01*
X772250Y199532D01*
X772306Y199576D01*
X772360Y199623D01*
X772411Y199672D01*
X772459Y199725D01*
X772505Y199780D01*
X772547Y199837D01*
X772587Y199897D01*
X772623Y199958D01*
X772656Y200022D01*
X772685Y200087D01*
X772711Y200153D01*
X772734Y200221D01*
X772753Y200290D01*
X772768Y200360D01*
X772779Y200430D01*
X772787Y200501D01*
X772791Y200572D01*
X772791Y200644D01*
X772787Y200715D01*
X772779Y200786D01*
X772768Y200856D01*
X772753Y200926D01*
X772734Y200995D01*
X772711Y201063D01*
X772685Y201129D01*
X772656Y201194D01*
X772623Y201258D01*
X772587Y201319D01*
X772547Y201379D01*
X772505Y201436D01*
X772459Y201491D01*
X772411Y201544D01*
X772360Y201593D01*
X772306Y201640D01*
X772250Y201684D01*
X772191Y201725D01*
X772131Y201763D01*
X772068Y201798D01*
X772004Y201829D01*
X771938Y201857D01*
X771871Y201881D01*
X771803Y201902D01*
X771733Y201919D01*
X771663Y201932D01*
X771593Y201941D01*
X771521Y201947D01*
X771450Y201949D01*
X771450Y201948D02*
X769306Y201948D01*
X769306Y201949D02*
X769235Y201947D01*
X769163Y201941D01*
X769093Y201932D01*
X769023Y201919D01*
X768953Y201902D01*
X768885Y201881D01*
X768818Y201857D01*
X768752Y201829D01*
X768688Y201798D01*
X768625Y201763D01*
X768565Y201725D01*
X768506Y201684D01*
X768450Y201640D01*
X768396Y201593D01*
X768345Y201544D01*
X768297Y201491D01*
X768251Y201436D01*
X768209Y201379D01*
X768169Y201319D01*
X768133Y201258D01*
X768100Y201194D01*
X768071Y201129D01*
X768045Y201063D01*
X768022Y200995D01*
X768003Y200926D01*
X767988Y200856D01*
X767977Y200786D01*
X767969Y200715D01*
X767965Y200644D01*
X767965Y200572D01*
X767969Y200501D01*
X767977Y200430D01*
X767988Y200360D01*
X768003Y200290D01*
X768022Y200221D01*
X768045Y200153D01*
X768071Y200087D01*
X768100Y200022D01*
X768133Y199958D01*
X768169Y199897D01*
X768209Y199837D01*
X768251Y199780D01*
X768297Y199725D01*
X768345Y199672D01*
X768396Y199623D01*
X768450Y199576D01*
X768506Y199532D01*
X768565Y199491D01*
X768625Y199453D01*
X768688Y199418D01*
X768752Y199387D01*
X768818Y199359D01*
X768885Y199335D01*
X768953Y199314D01*
X769023Y199297D01*
X769093Y199284D01*
X769163Y199275D01*
X769235Y199269D01*
X769306Y199267D01*
X767965Y205797D02*
X767965Y206870D01*
X767965Y205797D02*
X767967Y205732D01*
X767973Y205668D01*
X767983Y205604D01*
X767996Y205540D01*
X768014Y205478D01*
X768035Y205417D01*
X768059Y205357D01*
X768088Y205299D01*
X768120Y205242D01*
X768155Y205188D01*
X768193Y205136D01*
X768235Y205086D01*
X768279Y205039D01*
X768326Y204995D01*
X768376Y204953D01*
X768428Y204915D01*
X768482Y204880D01*
X768539Y204848D01*
X768597Y204819D01*
X768657Y204795D01*
X768718Y204774D01*
X768780Y204756D01*
X768844Y204743D01*
X768908Y204733D01*
X768972Y204727D01*
X769037Y204725D01*
X771719Y204725D01*
X771784Y204727D01*
X771848Y204733D01*
X771912Y204743D01*
X771976Y204756D01*
X772038Y204774D01*
X772099Y204795D01*
X772159Y204819D01*
X772217Y204848D01*
X772274Y204880D01*
X772328Y204915D01*
X772380Y204953D01*
X772430Y204995D01*
X772477Y205039D01*
X772521Y205086D01*
X772563Y205136D01*
X772601Y205188D01*
X772636Y205242D01*
X772668Y205299D01*
X772697Y205357D01*
X772721Y205417D01*
X772742Y205478D01*
X772760Y205540D01*
X772773Y205604D01*
X772783Y205668D01*
X772789Y205732D01*
X772791Y205797D01*
X772791Y206870D01*
X772791Y209655D02*
X767965Y209655D01*
X769842Y209655D02*
X772791Y212336D01*
X770914Y210727D02*
X767965Y212336D01*
D13*
X816244Y7232D02*
X816241Y29686D01*
X816242Y29685D02*
X816491Y29719D01*
X816739Y29758D01*
X816987Y29803D01*
X817233Y29854D01*
X817478Y29911D01*
X817721Y29974D01*
X817963Y30042D01*
X818203Y30117D01*
X818441Y30198D01*
X818678Y30284D01*
X818912Y30376D01*
X819143Y30473D01*
X819373Y30576D01*
X819600Y30685D01*
X819824Y30799D01*
X820045Y30918D01*
X820263Y31043D01*
X820478Y31173D01*
X820691Y31308D01*
X820899Y31448D01*
X821104Y31594D01*
X821306Y31744D01*
X821504Y31899D01*
X821698Y32059D01*
X821888Y32223D01*
X822075Y32392D01*
X822257Y32566D01*
X822434Y32743D01*
X822608Y32925D01*
X822777Y33112D01*
X822941Y33302D01*
X823101Y33496D01*
X823256Y33694D01*
X823406Y33896D01*
X823552Y34101D01*
X823692Y34309D01*
X823827Y34522D01*
X823957Y34737D01*
X824082Y34955D01*
X824201Y35176D01*
X824315Y35400D01*
X824424Y35627D01*
X824527Y35857D01*
X824624Y36088D01*
X824716Y36322D01*
X824802Y36559D01*
X824883Y36797D01*
X824958Y37037D01*
X825026Y37279D01*
X825089Y37522D01*
X825146Y37767D01*
X825197Y38013D01*
X825242Y38261D01*
X825281Y38509D01*
X825315Y38758D01*
X847768Y38756D01*
X847728Y37953D01*
X847668Y37152D01*
X847588Y36352D01*
X847489Y35555D01*
X847371Y34760D01*
X847233Y33968D01*
X847075Y33180D01*
X846898Y32396D01*
X846702Y31617D01*
X846487Y30843D01*
X846254Y30074D01*
X846001Y29311D01*
X845730Y28555D01*
X845440Y27805D01*
X845132Y27063D01*
X844806Y26328D01*
X844462Y25602D01*
X844100Y24884D01*
X843721Y24176D01*
X843325Y23477D01*
X842912Y22788D01*
X842481Y22109D01*
X842035Y21441D01*
X841572Y20784D01*
X841093Y20139D01*
X840599Y19505D01*
X840089Y18884D01*
X839564Y18276D01*
X839024Y17680D01*
X838470Y17098D01*
X837902Y16530D01*
X837320Y15976D01*
X836724Y15436D01*
X836116Y14911D01*
X835495Y14401D01*
X834861Y13907D01*
X834216Y13428D01*
X833559Y12965D01*
X832891Y12519D01*
X832212Y12088D01*
X831523Y11675D01*
X830824Y11279D01*
X830116Y10900D01*
X829398Y10538D01*
X828672Y10194D01*
X827937Y9868D01*
X827195Y9560D01*
X826445Y9270D01*
X825689Y8999D01*
X824926Y8746D01*
X824157Y8513D01*
X823383Y8298D01*
X822604Y8102D01*
X821820Y7925D01*
X821032Y7767D01*
X820240Y7629D01*
X819445Y7511D01*
X818648Y7412D01*
X817848Y7332D01*
X817047Y7272D01*
X816244Y7232D01*
X816244Y9597D01*
X816986Y9637D01*
X817726Y9694D01*
X818465Y9770D01*
X819202Y9864D01*
X819936Y9975D01*
X820668Y10104D01*
X821396Y10252D01*
X822120Y10417D01*
X822840Y10599D01*
X823555Y10799D01*
X824265Y11017D01*
X824970Y11252D01*
X825668Y11504D01*
X826361Y11772D01*
X827046Y12058D01*
X827725Y12360D01*
X828396Y12679D01*
X829058Y13014D01*
X829713Y13366D01*
X830359Y13733D01*
X830995Y14115D01*
X831622Y14513D01*
X832239Y14927D01*
X832846Y15355D01*
X833442Y15798D01*
X834028Y16255D01*
X834601Y16727D01*
X835164Y17212D01*
X835714Y17711D01*
X836252Y18223D01*
X836777Y18748D01*
X837289Y19286D01*
X837788Y19836D01*
X838273Y20399D01*
X838745Y20972D01*
X839202Y21558D01*
X839645Y22154D01*
X840073Y22761D01*
X840487Y23378D01*
X840885Y24005D01*
X841267Y24641D01*
X841634Y25287D01*
X841986Y25942D01*
X842321Y26604D01*
X842640Y27275D01*
X842942Y27954D01*
X843228Y28639D01*
X843496Y29332D01*
X843748Y30030D01*
X843983Y30735D01*
X844201Y31445D01*
X844401Y32160D01*
X844583Y32880D01*
X844748Y33604D01*
X844896Y34332D01*
X845025Y35064D01*
X845136Y35798D01*
X845230Y36535D01*
X845306Y37274D01*
X845363Y38014D01*
X845403Y38756D01*
X843036Y38756D01*
X842998Y38075D01*
X842943Y37396D01*
X842871Y36717D01*
X842783Y36041D01*
X842679Y35367D01*
X842558Y34696D01*
X842421Y34028D01*
X842268Y33364D01*
X842099Y32704D01*
X841914Y32047D01*
X841712Y31396D01*
X841496Y30749D01*
X841263Y30108D01*
X841015Y29473D01*
X840752Y28844D01*
X840473Y28222D01*
X840179Y27607D01*
X839871Y26999D01*
X839548Y26398D01*
X839210Y25806D01*
X838858Y25222D01*
X838492Y24647D01*
X838112Y24080D01*
X837718Y23524D01*
X837311Y22977D01*
X836891Y22440D01*
X836458Y21913D01*
X836012Y21397D01*
X835554Y20892D01*
X835084Y20398D01*
X834602Y19916D01*
X834108Y19446D01*
X833603Y18988D01*
X833087Y18542D01*
X832560Y18109D01*
X832023Y17689D01*
X831476Y17282D01*
X830920Y16888D01*
X830353Y16508D01*
X829778Y16142D01*
X829194Y15790D01*
X828602Y15452D01*
X828001Y15129D01*
X827393Y14821D01*
X826778Y14527D01*
X826156Y14248D01*
X825527Y13985D01*
X824892Y13737D01*
X824251Y13504D01*
X823604Y13288D01*
X822953Y13086D01*
X822296Y12901D01*
X821636Y12732D01*
X820972Y12579D01*
X820304Y12442D01*
X819633Y12321D01*
X818959Y12217D01*
X818283Y12129D01*
X817604Y12057D01*
X816925Y12002D01*
X816244Y11964D01*
X816244Y14330D01*
X816864Y14368D01*
X817483Y14420D01*
X818100Y14488D01*
X818715Y14570D01*
X819329Y14667D01*
X819940Y14779D01*
X820547Y14906D01*
X821152Y15047D01*
X821753Y15203D01*
X822350Y15374D01*
X822943Y15558D01*
X823531Y15757D01*
X824115Y15971D01*
X824693Y16198D01*
X825265Y16439D01*
X825831Y16694D01*
X826391Y16962D01*
X826944Y17244D01*
X827491Y17539D01*
X828030Y17848D01*
X828561Y18169D01*
X829084Y18503D01*
X829600Y18850D01*
X830106Y19209D01*
X830604Y19580D01*
X831093Y19963D01*
X831573Y20357D01*
X832042Y20763D01*
X832502Y21181D01*
X832952Y21609D01*
X833391Y22048D01*
X833819Y22498D01*
X834237Y22958D01*
X834643Y23427D01*
X835037Y23907D01*
X835420Y24396D01*
X835791Y24894D01*
X836150Y25400D01*
X836497Y25916D01*
X836831Y26439D01*
X837152Y26970D01*
X837461Y27509D01*
X837756Y28056D01*
X838038Y28609D01*
X838306Y29169D01*
X838561Y29735D01*
X838802Y30307D01*
X839029Y30885D01*
X839243Y31469D01*
X839442Y32057D01*
X839626Y32650D01*
X839797Y33247D01*
X839953Y33848D01*
X840094Y34453D01*
X840221Y35060D01*
X840333Y35671D01*
X840430Y36285D01*
X840512Y36900D01*
X840580Y37517D01*
X840632Y38136D01*
X840670Y38756D01*
X838303Y38756D01*
X838266Y38188D01*
X838214Y37621D01*
X838149Y37055D01*
X838071Y36491D01*
X837978Y35929D01*
X837872Y35370D01*
X837752Y34813D01*
X837619Y34259D01*
X837472Y33709D01*
X837312Y33163D01*
X837138Y32620D01*
X836952Y32082D01*
X836752Y31549D01*
X836539Y31021D01*
X836314Y30498D01*
X836076Y29981D01*
X835825Y29470D01*
X835562Y28965D01*
X835286Y28466D01*
X834999Y27975D01*
X834700Y27490D01*
X834388Y27013D01*
X834066Y26544D01*
X833732Y26083D01*
X833387Y25630D01*
X833031Y25186D01*
X832664Y24750D01*
X832286Y24324D01*
X831899Y23906D01*
X831501Y23499D01*
X831094Y23101D01*
X830676Y22714D01*
X830250Y22336D01*
X829814Y21969D01*
X829370Y21613D01*
X828917Y21268D01*
X828456Y20934D01*
X827987Y20612D01*
X827510Y20300D01*
X827025Y20001D01*
X826534Y19714D01*
X826035Y19438D01*
X825530Y19175D01*
X825019Y18924D01*
X824502Y18686D01*
X823979Y18461D01*
X823451Y18248D01*
X822918Y18048D01*
X822380Y17862D01*
X821837Y17688D01*
X821291Y17528D01*
X820741Y17381D01*
X820187Y17248D01*
X819630Y17128D01*
X819071Y17022D01*
X818509Y16929D01*
X817945Y16851D01*
X817379Y16786D01*
X816812Y16734D01*
X816244Y16697D01*
X816244Y19065D01*
X816750Y19101D01*
X817255Y19150D01*
X817759Y19210D01*
X818261Y19283D01*
X818762Y19368D01*
X819260Y19465D01*
X819756Y19574D01*
X820249Y19695D01*
X820738Y19828D01*
X821225Y19973D01*
X821708Y20130D01*
X822187Y20298D01*
X822661Y20477D01*
X823131Y20669D01*
X823597Y20871D01*
X824057Y21085D01*
X824512Y21309D01*
X824962Y21545D01*
X825406Y21792D01*
X825843Y22049D01*
X826274Y22316D01*
X826699Y22594D01*
X827117Y22883D01*
X827528Y23181D01*
X827931Y23489D01*
X828327Y23807D01*
X828715Y24134D01*
X829095Y24470D01*
X829466Y24816D01*
X829829Y25171D01*
X830184Y25534D01*
X830530Y25905D01*
X830866Y26285D01*
X831193Y26673D01*
X831511Y27069D01*
X831819Y27472D01*
X832117Y27883D01*
X832406Y28301D01*
X832684Y28726D01*
X832951Y29157D01*
X833208Y29594D01*
X833455Y30038D01*
X833691Y30488D01*
X833915Y30943D01*
X834129Y31403D01*
X834331Y31869D01*
X834523Y32339D01*
X834702Y32813D01*
X834870Y33292D01*
X835027Y33775D01*
X835172Y34262D01*
X835305Y34751D01*
X835426Y35244D01*
X835535Y35740D01*
X835632Y36238D01*
X835717Y36739D01*
X835790Y37241D01*
X835850Y37745D01*
X835899Y38250D01*
X835935Y38756D01*
X833566Y38756D01*
X833531Y38305D01*
X833484Y37854D01*
X833426Y37404D01*
X833357Y36956D01*
X833278Y36510D01*
X833187Y36066D01*
X833086Y35624D01*
X832974Y35185D01*
X832852Y34749D01*
X832718Y34316D01*
X832575Y33886D01*
X832421Y33460D01*
X832256Y33037D01*
X832082Y32619D01*
X831897Y32205D01*
X831702Y31796D01*
X831497Y31392D01*
X831283Y30992D01*
X831058Y30599D01*
X830825Y30210D01*
X830582Y29828D01*
X830329Y29451D01*
X830068Y29081D01*
X829797Y28717D01*
X829518Y28360D01*
X829230Y28010D01*
X828934Y27667D01*
X828630Y27332D01*
X828317Y27003D01*
X827997Y26683D01*
X827668Y26370D01*
X827333Y26066D01*
X826990Y25770D01*
X826640Y25482D01*
X826283Y25203D01*
X825919Y24932D01*
X825549Y24671D01*
X825172Y24418D01*
X824790Y24175D01*
X824401Y23942D01*
X824008Y23717D01*
X823608Y23503D01*
X823204Y23298D01*
X822795Y23103D01*
X822381Y22918D01*
X821963Y22744D01*
X821540Y22579D01*
X821114Y22425D01*
X820684Y22282D01*
X820251Y22148D01*
X819815Y22026D01*
X819376Y21914D01*
X818934Y21813D01*
X818490Y21722D01*
X818044Y21643D01*
X817596Y21574D01*
X817146Y21516D01*
X816695Y21469D01*
X816244Y21434D01*
X816243Y23804D01*
X816639Y23839D01*
X817033Y23884D01*
X817426Y23938D01*
X817818Y24002D01*
X818208Y24076D01*
X818597Y24159D01*
X818983Y24252D01*
X819366Y24354D01*
X819747Y24465D01*
X820126Y24586D01*
X820501Y24716D01*
X820873Y24855D01*
X821241Y25003D01*
X821606Y25160D01*
X821966Y25326D01*
X822323Y25500D01*
X822675Y25684D01*
X823023Y25875D01*
X823365Y26076D01*
X823703Y26284D01*
X824036Y26501D01*
X824363Y26726D01*
X824685Y26959D01*
X825000Y27199D01*
X825310Y27447D01*
X825614Y27703D01*
X825911Y27966D01*
X826202Y28236D01*
X826486Y28514D01*
X826764Y28798D01*
X827034Y29089D01*
X827297Y29386D01*
X827553Y29690D01*
X827801Y30000D01*
X828041Y30315D01*
X828274Y30637D01*
X828499Y30964D01*
X828716Y31297D01*
X828924Y31635D01*
X829125Y31977D01*
X829316Y32325D01*
X829500Y32677D01*
X829674Y33034D01*
X829840Y33394D01*
X829997Y33759D01*
X830145Y34127D01*
X830284Y34499D01*
X830414Y34874D01*
X830535Y35253D01*
X830646Y35634D01*
X830748Y36017D01*
X830841Y36403D01*
X830924Y36792D01*
X830998Y37182D01*
X831062Y37574D01*
X831116Y37967D01*
X831161Y38361D01*
X831196Y38757D01*
X828824Y38757D01*
X828790Y38420D01*
X828747Y38084D01*
X828696Y37749D01*
X828637Y37415D01*
X828570Y37083D01*
X828495Y36753D01*
X828412Y36424D01*
X828320Y36098D01*
X828221Y35774D01*
X828114Y35453D01*
X827999Y35134D01*
X827876Y34818D01*
X827746Y34505D01*
X827608Y34196D01*
X827463Y33890D01*
X827310Y33587D01*
X827150Y33289D01*
X826982Y32994D01*
X826808Y32704D01*
X826626Y32418D01*
X826438Y32136D01*
X826242Y31859D01*
X826040Y31587D01*
X825831Y31321D01*
X825616Y31059D01*
X825395Y30802D01*
X825167Y30551D01*
X824934Y30306D01*
X824694Y30066D01*
X824449Y29833D01*
X824198Y29605D01*
X823941Y29384D01*
X823679Y29169D01*
X823413Y28960D01*
X823141Y28758D01*
X822864Y28562D01*
X822582Y28374D01*
X822296Y28192D01*
X822006Y28018D01*
X821711Y27850D01*
X821413Y27690D01*
X821110Y27537D01*
X820804Y27392D01*
X820495Y27254D01*
X820182Y27124D01*
X819866Y27001D01*
X819547Y26886D01*
X819226Y26779D01*
X818902Y26680D01*
X818576Y26588D01*
X818247Y26505D01*
X817917Y26430D01*
X817585Y26363D01*
X817251Y26304D01*
X816916Y26253D01*
X816580Y26210D01*
X816243Y26176D01*
X816242Y28551D01*
X816519Y28585D01*
X816794Y28625D01*
X817069Y28671D01*
X817342Y28725D01*
X817614Y28785D01*
X817885Y28851D01*
X818154Y28924D01*
X818421Y29004D01*
X818686Y29090D01*
X818948Y29182D01*
X819209Y29281D01*
X819467Y29386D01*
X819722Y29497D01*
X819975Y29614D01*
X820225Y29738D01*
X820472Y29867D01*
X820715Y30002D01*
X820955Y30143D01*
X821192Y30290D01*
X821425Y30443D01*
X821654Y30601D01*
X821880Y30765D01*
X822101Y30934D01*
X822318Y31108D01*
X822531Y31288D01*
X822740Y31473D01*
X822944Y31662D01*
X823143Y31857D01*
X823338Y32056D01*
X823527Y32260D01*
X823712Y32469D01*
X823892Y32682D01*
X824066Y32899D01*
X824235Y33120D01*
X824399Y33346D01*
X824557Y33575D01*
X824710Y33808D01*
X824857Y34045D01*
X824998Y34285D01*
X825133Y34528D01*
X825262Y34775D01*
X825386Y35025D01*
X825503Y35278D01*
X825614Y35533D01*
X825719Y35791D01*
X825818Y36052D01*
X825910Y36314D01*
X825996Y36579D01*
X826076Y36846D01*
X826149Y37115D01*
X826215Y37386D01*
X826275Y37658D01*
X826329Y37931D01*
X826375Y38206D01*
X826415Y38481D01*
X826449Y38758D01*
X813756Y72768D02*
X813759Y50314D01*
X813758Y50315D02*
X813509Y50281D01*
X813261Y50242D01*
X813013Y50197D01*
X812767Y50146D01*
X812522Y50089D01*
X812279Y50026D01*
X812037Y49958D01*
X811797Y49883D01*
X811559Y49802D01*
X811322Y49716D01*
X811088Y49624D01*
X810857Y49527D01*
X810627Y49424D01*
X810400Y49315D01*
X810176Y49201D01*
X809955Y49082D01*
X809737Y48957D01*
X809522Y48827D01*
X809309Y48692D01*
X809101Y48552D01*
X808896Y48406D01*
X808694Y48256D01*
X808496Y48101D01*
X808302Y47941D01*
X808112Y47777D01*
X807925Y47608D01*
X807743Y47434D01*
X807566Y47257D01*
X807392Y47075D01*
X807223Y46888D01*
X807059Y46698D01*
X806899Y46504D01*
X806744Y46306D01*
X806594Y46104D01*
X806448Y45899D01*
X806308Y45691D01*
X806173Y45478D01*
X806043Y45263D01*
X805918Y45045D01*
X805799Y44824D01*
X805685Y44600D01*
X805576Y44373D01*
X805473Y44143D01*
X805376Y43912D01*
X805284Y43678D01*
X805198Y43441D01*
X805117Y43203D01*
X805042Y42963D01*
X804974Y42721D01*
X804911Y42478D01*
X804854Y42233D01*
X804803Y41987D01*
X804758Y41739D01*
X804719Y41491D01*
X804685Y41242D01*
X782232Y41244D01*
X782272Y42047D01*
X782332Y42848D01*
X782412Y43648D01*
X782511Y44445D01*
X782629Y45240D01*
X782767Y46032D01*
X782925Y46820D01*
X783102Y47604D01*
X783298Y48383D01*
X783513Y49157D01*
X783746Y49926D01*
X783999Y50689D01*
X784270Y51445D01*
X784560Y52195D01*
X784868Y52937D01*
X785194Y53672D01*
X785538Y54398D01*
X785900Y55116D01*
X786279Y55824D01*
X786675Y56523D01*
X787088Y57212D01*
X787519Y57891D01*
X787965Y58559D01*
X788428Y59216D01*
X788907Y59861D01*
X789401Y60495D01*
X789911Y61116D01*
X790436Y61724D01*
X790976Y62320D01*
X791530Y62902D01*
X792098Y63470D01*
X792680Y64024D01*
X793276Y64564D01*
X793884Y65089D01*
X794505Y65599D01*
X795139Y66093D01*
X795784Y66572D01*
X796441Y67035D01*
X797109Y67481D01*
X797788Y67912D01*
X798477Y68325D01*
X799176Y68721D01*
X799884Y69100D01*
X800602Y69462D01*
X801328Y69806D01*
X802063Y70132D01*
X802805Y70440D01*
X803555Y70730D01*
X804311Y71001D01*
X805074Y71254D01*
X805843Y71487D01*
X806617Y71702D01*
X807396Y71898D01*
X808180Y72075D01*
X808968Y72233D01*
X809760Y72371D01*
X810555Y72489D01*
X811352Y72588D01*
X812152Y72668D01*
X812953Y72728D01*
X813756Y72768D01*
X813756Y70403D01*
X813014Y70363D01*
X812274Y70306D01*
X811535Y70230D01*
X810798Y70136D01*
X810064Y70025D01*
X809332Y69896D01*
X808604Y69748D01*
X807880Y69583D01*
X807160Y69401D01*
X806445Y69201D01*
X805735Y68983D01*
X805030Y68748D01*
X804332Y68496D01*
X803639Y68228D01*
X802954Y67942D01*
X802275Y67640D01*
X801604Y67321D01*
X800942Y66986D01*
X800287Y66634D01*
X799641Y66267D01*
X799005Y65885D01*
X798378Y65487D01*
X797761Y65073D01*
X797154Y64645D01*
X796558Y64202D01*
X795972Y63745D01*
X795399Y63273D01*
X794836Y62788D01*
X794286Y62289D01*
X793748Y61777D01*
X793223Y61252D01*
X792711Y60714D01*
X792212Y60164D01*
X791727Y59601D01*
X791255Y59028D01*
X790798Y58442D01*
X790355Y57846D01*
X789927Y57239D01*
X789513Y56622D01*
X789115Y55995D01*
X788733Y55359D01*
X788366Y54713D01*
X788014Y54058D01*
X787679Y53396D01*
X787360Y52725D01*
X787058Y52046D01*
X786772Y51361D01*
X786504Y50668D01*
X786252Y49970D01*
X786017Y49265D01*
X785799Y48555D01*
X785599Y47840D01*
X785417Y47120D01*
X785252Y46396D01*
X785104Y45668D01*
X784975Y44936D01*
X784864Y44202D01*
X784770Y43465D01*
X784694Y42726D01*
X784637Y41986D01*
X784597Y41244D01*
X786964Y41244D01*
X787002Y41925D01*
X787057Y42604D01*
X787129Y43283D01*
X787217Y43959D01*
X787321Y44633D01*
X787442Y45304D01*
X787579Y45972D01*
X787732Y46636D01*
X787901Y47296D01*
X788086Y47953D01*
X788288Y48604D01*
X788504Y49251D01*
X788737Y49892D01*
X788985Y50527D01*
X789248Y51156D01*
X789527Y51778D01*
X789821Y52393D01*
X790129Y53001D01*
X790452Y53602D01*
X790790Y54194D01*
X791142Y54778D01*
X791508Y55353D01*
X791888Y55920D01*
X792282Y56476D01*
X792689Y57023D01*
X793109Y57560D01*
X793542Y58087D01*
X793988Y58603D01*
X794446Y59108D01*
X794916Y59602D01*
X795398Y60084D01*
X795892Y60554D01*
X796397Y61012D01*
X796913Y61458D01*
X797440Y61891D01*
X797977Y62311D01*
X798524Y62718D01*
X799080Y63112D01*
X799647Y63492D01*
X800222Y63858D01*
X800806Y64210D01*
X801398Y64548D01*
X801999Y64871D01*
X802607Y65179D01*
X803222Y65473D01*
X803844Y65752D01*
X804473Y66015D01*
X805108Y66263D01*
X805749Y66496D01*
X806396Y66712D01*
X807047Y66914D01*
X807704Y67099D01*
X808364Y67268D01*
X809028Y67421D01*
X809696Y67558D01*
X810367Y67679D01*
X811041Y67783D01*
X811717Y67871D01*
X812396Y67943D01*
X813075Y67998D01*
X813756Y68036D01*
X813756Y65670D01*
X813136Y65632D01*
X812517Y65580D01*
X811900Y65512D01*
X811285Y65430D01*
X810671Y65333D01*
X810060Y65221D01*
X809453Y65094D01*
X808848Y64953D01*
X808247Y64797D01*
X807650Y64626D01*
X807057Y64442D01*
X806469Y64243D01*
X805885Y64029D01*
X805307Y63802D01*
X804735Y63561D01*
X804169Y63306D01*
X803609Y63038D01*
X803056Y62756D01*
X802509Y62461D01*
X801970Y62152D01*
X801439Y61831D01*
X800916Y61497D01*
X800400Y61150D01*
X799894Y60791D01*
X799396Y60420D01*
X798907Y60037D01*
X798427Y59643D01*
X797958Y59237D01*
X797498Y58819D01*
X797048Y58391D01*
X796609Y57952D01*
X796181Y57502D01*
X795763Y57042D01*
X795357Y56573D01*
X794963Y56093D01*
X794580Y55604D01*
X794209Y55106D01*
X793850Y54600D01*
X793503Y54084D01*
X793169Y53561D01*
X792848Y53030D01*
X792539Y52491D01*
X792244Y51944D01*
X791962Y51391D01*
X791694Y50831D01*
X791439Y50265D01*
X791198Y49693D01*
X790971Y49115D01*
X790757Y48531D01*
X790558Y47943D01*
X790374Y47350D01*
X790203Y46753D01*
X790047Y46152D01*
X789906Y45547D01*
X789779Y44940D01*
X789667Y44329D01*
X789570Y43715D01*
X789488Y43100D01*
X789420Y42483D01*
X789368Y41864D01*
X789330Y41244D01*
X791697Y41244D01*
X791734Y41812D01*
X791786Y42379D01*
X791851Y42945D01*
X791929Y43509D01*
X792022Y44071D01*
X792128Y44630D01*
X792248Y45187D01*
X792381Y45741D01*
X792528Y46291D01*
X792688Y46837D01*
X792862Y47380D01*
X793048Y47918D01*
X793248Y48451D01*
X793461Y48979D01*
X793686Y49502D01*
X793924Y50019D01*
X794175Y50530D01*
X794438Y51035D01*
X794714Y51534D01*
X795001Y52025D01*
X795300Y52510D01*
X795612Y52987D01*
X795934Y53456D01*
X796268Y53917D01*
X796613Y54370D01*
X796969Y54814D01*
X797336Y55250D01*
X797714Y55676D01*
X798101Y56094D01*
X798499Y56501D01*
X798906Y56899D01*
X799324Y57286D01*
X799750Y57664D01*
X800186Y58031D01*
X800630Y58387D01*
X801083Y58732D01*
X801544Y59066D01*
X802013Y59388D01*
X802490Y59700D01*
X802975Y59999D01*
X803466Y60286D01*
X803965Y60562D01*
X804470Y60825D01*
X804981Y61076D01*
X805498Y61314D01*
X806021Y61539D01*
X806549Y61752D01*
X807082Y61952D01*
X807620Y62138D01*
X808163Y62312D01*
X808709Y62472D01*
X809259Y62619D01*
X809813Y62752D01*
X810370Y62872D01*
X810929Y62978D01*
X811491Y63071D01*
X812055Y63149D01*
X812621Y63214D01*
X813188Y63266D01*
X813756Y63303D01*
X813756Y60935D01*
X813250Y60899D01*
X812745Y60850D01*
X812241Y60790D01*
X811739Y60717D01*
X811238Y60632D01*
X810740Y60535D01*
X810244Y60426D01*
X809751Y60305D01*
X809262Y60172D01*
X808775Y60027D01*
X808292Y59870D01*
X807813Y59702D01*
X807339Y59523D01*
X806869Y59331D01*
X806403Y59129D01*
X805943Y58915D01*
X805488Y58691D01*
X805038Y58455D01*
X804594Y58208D01*
X804157Y57951D01*
X803726Y57684D01*
X803301Y57406D01*
X802883Y57117D01*
X802472Y56819D01*
X802069Y56511D01*
X801673Y56193D01*
X801285Y55866D01*
X800905Y55530D01*
X800534Y55184D01*
X800171Y54829D01*
X799816Y54466D01*
X799470Y54095D01*
X799134Y53715D01*
X798807Y53327D01*
X798489Y52931D01*
X798181Y52528D01*
X797883Y52117D01*
X797594Y51699D01*
X797316Y51274D01*
X797049Y50843D01*
X796792Y50406D01*
X796545Y49962D01*
X796309Y49512D01*
X796085Y49057D01*
X795871Y48597D01*
X795669Y48131D01*
X795477Y47661D01*
X795298Y47187D01*
X795130Y46708D01*
X794973Y46225D01*
X794828Y45738D01*
X794695Y45249D01*
X794574Y44756D01*
X794465Y44260D01*
X794368Y43762D01*
X794283Y43261D01*
X794210Y42759D01*
X794150Y42255D01*
X794101Y41750D01*
X794065Y41244D01*
X796434Y41244D01*
X796469Y41695D01*
X796516Y42146D01*
X796574Y42596D01*
X796643Y43044D01*
X796722Y43490D01*
X796813Y43934D01*
X796914Y44376D01*
X797026Y44815D01*
X797148Y45251D01*
X797282Y45684D01*
X797425Y46114D01*
X797579Y46540D01*
X797744Y46963D01*
X797918Y47381D01*
X798103Y47795D01*
X798298Y48204D01*
X798503Y48608D01*
X798717Y49008D01*
X798942Y49401D01*
X799175Y49790D01*
X799418Y50172D01*
X799671Y50549D01*
X799932Y50919D01*
X800203Y51283D01*
X800482Y51640D01*
X800770Y51990D01*
X801066Y52333D01*
X801370Y52668D01*
X801683Y52997D01*
X802003Y53317D01*
X802332Y53630D01*
X802667Y53934D01*
X803010Y54230D01*
X803360Y54518D01*
X803717Y54797D01*
X804081Y55068D01*
X804451Y55329D01*
X804828Y55582D01*
X805210Y55825D01*
X805599Y56058D01*
X805992Y56283D01*
X806392Y56497D01*
X806796Y56702D01*
X807205Y56897D01*
X807619Y57082D01*
X808037Y57256D01*
X808460Y57421D01*
X808886Y57575D01*
X809316Y57718D01*
X809749Y57852D01*
X810185Y57974D01*
X810624Y58086D01*
X811066Y58187D01*
X811510Y58278D01*
X811956Y58357D01*
X812404Y58426D01*
X812854Y58484D01*
X813305Y58531D01*
X813756Y58566D01*
X813757Y56196D01*
X813361Y56161D01*
X812967Y56116D01*
X812574Y56062D01*
X812182Y55998D01*
X811792Y55924D01*
X811403Y55841D01*
X811017Y55748D01*
X810634Y55646D01*
X810253Y55535D01*
X809874Y55414D01*
X809499Y55284D01*
X809127Y55145D01*
X808759Y54997D01*
X808394Y54840D01*
X808034Y54674D01*
X807677Y54500D01*
X807325Y54316D01*
X806977Y54125D01*
X806635Y53924D01*
X806297Y53716D01*
X805964Y53499D01*
X805637Y53274D01*
X805315Y53041D01*
X805000Y52801D01*
X804690Y52553D01*
X804386Y52297D01*
X804089Y52034D01*
X803798Y51764D01*
X803514Y51486D01*
X803236Y51202D01*
X802966Y50911D01*
X802703Y50614D01*
X802447Y50310D01*
X802199Y50000D01*
X801959Y49685D01*
X801726Y49363D01*
X801501Y49036D01*
X801284Y48703D01*
X801076Y48365D01*
X800875Y48023D01*
X800684Y47675D01*
X800500Y47323D01*
X800326Y46966D01*
X800160Y46606D01*
X800003Y46241D01*
X799855Y45873D01*
X799716Y45501D01*
X799586Y45126D01*
X799465Y44747D01*
X799354Y44366D01*
X799252Y43983D01*
X799159Y43597D01*
X799076Y43208D01*
X799002Y42818D01*
X798938Y42426D01*
X798884Y42033D01*
X798839Y41639D01*
X798804Y41243D01*
X801176Y41243D01*
X801210Y41580D01*
X801253Y41916D01*
X801304Y42251D01*
X801363Y42585D01*
X801430Y42917D01*
X801505Y43247D01*
X801588Y43576D01*
X801680Y43902D01*
X801779Y44226D01*
X801886Y44547D01*
X802001Y44866D01*
X802124Y45182D01*
X802254Y45495D01*
X802392Y45804D01*
X802537Y46110D01*
X802690Y46413D01*
X802850Y46711D01*
X803018Y47006D01*
X803192Y47296D01*
X803374Y47582D01*
X803562Y47864D01*
X803758Y48141D01*
X803960Y48413D01*
X804169Y48679D01*
X804384Y48941D01*
X804605Y49198D01*
X804833Y49449D01*
X805066Y49694D01*
X805306Y49934D01*
X805551Y50167D01*
X805802Y50395D01*
X806059Y50616D01*
X806321Y50831D01*
X806587Y51040D01*
X806859Y51242D01*
X807136Y51438D01*
X807418Y51626D01*
X807704Y51808D01*
X807994Y51982D01*
X808289Y52150D01*
X808587Y52310D01*
X808890Y52463D01*
X809196Y52608D01*
X809505Y52746D01*
X809818Y52876D01*
X810134Y52999D01*
X810453Y53114D01*
X810774Y53221D01*
X811098Y53320D01*
X811424Y53412D01*
X811753Y53495D01*
X812083Y53570D01*
X812415Y53637D01*
X812749Y53696D01*
X813084Y53747D01*
X813420Y53790D01*
X813757Y53824D01*
X813758Y51449D01*
X813481Y51415D01*
X813206Y51375D01*
X812931Y51329D01*
X812658Y51275D01*
X812386Y51215D01*
X812115Y51149D01*
X811846Y51076D01*
X811579Y50996D01*
X811314Y50910D01*
X811052Y50818D01*
X810791Y50719D01*
X810533Y50614D01*
X810278Y50503D01*
X810025Y50386D01*
X809775Y50262D01*
X809528Y50133D01*
X809285Y49998D01*
X809045Y49857D01*
X808808Y49710D01*
X808575Y49557D01*
X808346Y49399D01*
X808120Y49235D01*
X807899Y49066D01*
X807682Y48892D01*
X807469Y48712D01*
X807260Y48527D01*
X807056Y48338D01*
X806857Y48143D01*
X806662Y47944D01*
X806473Y47740D01*
X806288Y47531D01*
X806108Y47318D01*
X805934Y47101D01*
X805765Y46880D01*
X805601Y46654D01*
X805443Y46425D01*
X805290Y46192D01*
X805143Y45955D01*
X805002Y45715D01*
X804867Y45472D01*
X804738Y45225D01*
X804614Y44975D01*
X804497Y44722D01*
X804386Y44467D01*
X804281Y44209D01*
X804182Y43948D01*
X804090Y43686D01*
X804004Y43421D01*
X803924Y43154D01*
X803851Y42885D01*
X803785Y42614D01*
X803725Y42342D01*
X803671Y42069D01*
X803625Y41794D01*
X803585Y41519D01*
X803551Y41242D01*
D14*
X780710Y40000D02*
X780720Y40842D01*
X780751Y41683D01*
X780803Y42523D01*
X780875Y43361D01*
X780968Y44197D01*
X781081Y45031D01*
X781215Y45862D01*
X781369Y46690D01*
X781543Y47513D01*
X781738Y48332D01*
X781952Y49146D01*
X782187Y49954D01*
X782441Y50756D01*
X782714Y51552D01*
X783008Y52341D01*
X783320Y53122D01*
X783652Y53896D01*
X784002Y54661D01*
X784371Y55417D01*
X784759Y56164D01*
X785165Y56901D01*
X785588Y57629D01*
X786030Y58345D01*
X786489Y59051D01*
X786965Y59744D01*
X787458Y60427D01*
X787968Y61096D01*
X788493Y61753D01*
X789035Y62397D01*
X789593Y63028D01*
X790166Y63644D01*
X790753Y64247D01*
X791356Y64834D01*
X791972Y65407D01*
X792603Y65965D01*
X793247Y66507D01*
X793904Y67032D01*
X794573Y67542D01*
X795256Y68035D01*
X795949Y68511D01*
X796655Y68970D01*
X797371Y69412D01*
X798099Y69835D01*
X798836Y70241D01*
X799583Y70629D01*
X800339Y70998D01*
X801104Y71348D01*
X801878Y71680D01*
X802659Y71992D01*
X803448Y72286D01*
X804244Y72559D01*
X805046Y72813D01*
X805854Y73048D01*
X806668Y73262D01*
X807487Y73457D01*
X808310Y73631D01*
X809138Y73785D01*
X809969Y73919D01*
X810803Y74032D01*
X811639Y74125D01*
X812477Y74197D01*
X813317Y74249D01*
X814158Y74280D01*
X815000Y74290D01*
X815842Y74280D01*
X816683Y74249D01*
X817523Y74197D01*
X818361Y74125D01*
X819197Y74032D01*
X820031Y73919D01*
X820862Y73785D01*
X821690Y73631D01*
X822513Y73457D01*
X823332Y73262D01*
X824146Y73048D01*
X824954Y72813D01*
X825756Y72559D01*
X826552Y72286D01*
X827341Y71992D01*
X828122Y71680D01*
X828896Y71348D01*
X829661Y70998D01*
X830417Y70629D01*
X831164Y70241D01*
X831901Y69835D01*
X832629Y69412D01*
X833345Y68970D01*
X834051Y68511D01*
X834744Y68035D01*
X835427Y67542D01*
X836096Y67032D01*
X836753Y66507D01*
X837397Y65965D01*
X838028Y65407D01*
X838644Y64834D01*
X839247Y64247D01*
X839834Y63644D01*
X840407Y63028D01*
X840965Y62397D01*
X841507Y61753D01*
X842032Y61096D01*
X842542Y60427D01*
X843035Y59744D01*
X843511Y59051D01*
X843970Y58345D01*
X844412Y57629D01*
X844835Y56901D01*
X845241Y56164D01*
X845629Y55417D01*
X845998Y54661D01*
X846348Y53896D01*
X846680Y53122D01*
X846992Y52341D01*
X847286Y51552D01*
X847559Y50756D01*
X847813Y49954D01*
X848048Y49146D01*
X848262Y48332D01*
X848457Y47513D01*
X848631Y46690D01*
X848785Y45862D01*
X848919Y45031D01*
X849032Y44197D01*
X849125Y43361D01*
X849197Y42523D01*
X849249Y41683D01*
X849280Y40842D01*
X849290Y40000D01*
X849280Y39158D01*
X849249Y38317D01*
X849197Y37477D01*
X849125Y36639D01*
X849032Y35803D01*
X848919Y34969D01*
X848785Y34138D01*
X848631Y33310D01*
X848457Y32487D01*
X848262Y31668D01*
X848048Y30854D01*
X847813Y30046D01*
X847559Y29244D01*
X847286Y28448D01*
X846992Y27659D01*
X846680Y26878D01*
X846348Y26104D01*
X845998Y25339D01*
X845629Y24583D01*
X845241Y23836D01*
X844835Y23099D01*
X844412Y22371D01*
X843970Y21655D01*
X843511Y20949D01*
X843035Y20256D01*
X842542Y19573D01*
X842032Y18904D01*
X841507Y18247D01*
X840965Y17603D01*
X840407Y16972D01*
X839834Y16356D01*
X839247Y15753D01*
X838644Y15166D01*
X838028Y14593D01*
X837397Y14035D01*
X836753Y13493D01*
X836096Y12968D01*
X835427Y12458D01*
X834744Y11965D01*
X834051Y11489D01*
X833345Y11030D01*
X832629Y10588D01*
X831901Y10165D01*
X831164Y9759D01*
X830417Y9371D01*
X829661Y9002D01*
X828896Y8652D01*
X828122Y8320D01*
X827341Y8008D01*
X826552Y7714D01*
X825756Y7441D01*
X824954Y7187D01*
X824146Y6952D01*
X823332Y6738D01*
X822513Y6543D01*
X821690Y6369D01*
X820862Y6215D01*
X820031Y6081D01*
X819197Y5968D01*
X818361Y5875D01*
X817523Y5803D01*
X816683Y5751D01*
X815842Y5720D01*
X815000Y5710D01*
X814158Y5720D01*
X813317Y5751D01*
X812477Y5803D01*
X811639Y5875D01*
X810803Y5968D01*
X809969Y6081D01*
X809138Y6215D01*
X808310Y6369D01*
X807487Y6543D01*
X806668Y6738D01*
X805854Y6952D01*
X805046Y7187D01*
X804244Y7441D01*
X803448Y7714D01*
X802659Y8008D01*
X801878Y8320D01*
X801104Y8652D01*
X800339Y9002D01*
X799583Y9371D01*
X798836Y9759D01*
X798099Y10165D01*
X797371Y10588D01*
X796655Y11030D01*
X795949Y11489D01*
X795256Y11965D01*
X794573Y12458D01*
X793904Y12968D01*
X793247Y13493D01*
X792603Y14035D01*
X791972Y14593D01*
X791356Y15166D01*
X790753Y15753D01*
X790166Y16356D01*
X789593Y16972D01*
X789035Y17603D01*
X788493Y18247D01*
X787968Y18904D01*
X787458Y19573D01*
X786965Y20256D01*
X786489Y20949D01*
X786030Y21655D01*
X785588Y22371D01*
X785165Y23099D01*
X784759Y23836D01*
X784371Y24583D01*
X784002Y25339D01*
X783652Y26104D01*
X783320Y26878D01*
X783008Y27659D01*
X782714Y28448D01*
X782441Y29244D01*
X782187Y30046D01*
X781952Y30854D01*
X781738Y31668D01*
X781543Y32487D01*
X781369Y33310D01*
X781215Y34138D01*
X781081Y34969D01*
X780968Y35803D01*
X780875Y36639D01*
X780803Y37477D01*
X780751Y38317D01*
X780720Y39158D01*
X780710Y40000D01*
D15*
X807380Y40000D02*
X807382Y40187D01*
X807389Y40374D01*
X807401Y40561D01*
X807417Y40747D01*
X807437Y40933D01*
X807462Y41118D01*
X807492Y41303D01*
X807526Y41487D01*
X807565Y41670D01*
X807608Y41852D01*
X807656Y42032D01*
X807708Y42212D01*
X807765Y42390D01*
X807825Y42567D01*
X807891Y42742D01*
X807960Y42916D01*
X808034Y43088D01*
X808112Y43258D01*
X808194Y43426D01*
X808280Y43592D01*
X808370Y43756D01*
X808464Y43917D01*
X808562Y44077D01*
X808664Y44233D01*
X808770Y44388D01*
X808880Y44539D01*
X808993Y44688D01*
X809110Y44834D01*
X809230Y44977D01*
X809354Y45117D01*
X809481Y45254D01*
X809612Y45388D01*
X809746Y45519D01*
X809883Y45646D01*
X810023Y45770D01*
X810166Y45890D01*
X810312Y46007D01*
X810461Y46120D01*
X810612Y46230D01*
X810767Y46336D01*
X810923Y46438D01*
X811083Y46536D01*
X811244Y46630D01*
X811408Y46720D01*
X811574Y46806D01*
X811742Y46888D01*
X811912Y46966D01*
X812084Y47040D01*
X812258Y47109D01*
X812433Y47175D01*
X812610Y47235D01*
X812788Y47292D01*
X812968Y47344D01*
X813148Y47392D01*
X813330Y47435D01*
X813513Y47474D01*
X813697Y47508D01*
X813882Y47538D01*
X814067Y47563D01*
X814253Y47583D01*
X814439Y47599D01*
X814626Y47611D01*
X814813Y47618D01*
X815000Y47620D01*
X815187Y47618D01*
X815374Y47611D01*
X815561Y47599D01*
X815747Y47583D01*
X815933Y47563D01*
X816118Y47538D01*
X816303Y47508D01*
X816487Y47474D01*
X816670Y47435D01*
X816852Y47392D01*
X817032Y47344D01*
X817212Y47292D01*
X817390Y47235D01*
X817567Y47175D01*
X817742Y47109D01*
X817916Y47040D01*
X818088Y46966D01*
X818258Y46888D01*
X818426Y46806D01*
X818592Y46720D01*
X818756Y46630D01*
X818917Y46536D01*
X819077Y46438D01*
X819233Y46336D01*
X819388Y46230D01*
X819539Y46120D01*
X819688Y46007D01*
X819834Y45890D01*
X819977Y45770D01*
X820117Y45646D01*
X820254Y45519D01*
X820388Y45388D01*
X820519Y45254D01*
X820646Y45117D01*
X820770Y44977D01*
X820890Y44834D01*
X821007Y44688D01*
X821120Y44539D01*
X821230Y44388D01*
X821336Y44233D01*
X821438Y44077D01*
X821536Y43917D01*
X821630Y43756D01*
X821720Y43592D01*
X821806Y43426D01*
X821888Y43258D01*
X821966Y43088D01*
X822040Y42916D01*
X822109Y42742D01*
X822175Y42567D01*
X822235Y42390D01*
X822292Y42212D01*
X822344Y42032D01*
X822392Y41852D01*
X822435Y41670D01*
X822474Y41487D01*
X822508Y41303D01*
X822538Y41118D01*
X822563Y40933D01*
X822583Y40747D01*
X822599Y40561D01*
X822611Y40374D01*
X822618Y40187D01*
X822620Y40000D01*
X822618Y39813D01*
X822611Y39626D01*
X822599Y39439D01*
X822583Y39253D01*
X822563Y39067D01*
X822538Y38882D01*
X822508Y38697D01*
X822474Y38513D01*
X822435Y38330D01*
X822392Y38148D01*
X822344Y37968D01*
X822292Y37788D01*
X822235Y37610D01*
X822175Y37433D01*
X822109Y37258D01*
X822040Y37084D01*
X821966Y36912D01*
X821888Y36742D01*
X821806Y36574D01*
X821720Y36408D01*
X821630Y36244D01*
X821536Y36083D01*
X821438Y35923D01*
X821336Y35767D01*
X821230Y35612D01*
X821120Y35461D01*
X821007Y35312D01*
X820890Y35166D01*
X820770Y35023D01*
X820646Y34883D01*
X820519Y34746D01*
X820388Y34612D01*
X820254Y34481D01*
X820117Y34354D01*
X819977Y34230D01*
X819834Y34110D01*
X819688Y33993D01*
X819539Y33880D01*
X819388Y33770D01*
X819233Y33664D01*
X819077Y33562D01*
X818917Y33464D01*
X818756Y33370D01*
X818592Y33280D01*
X818426Y33194D01*
X818258Y33112D01*
X818088Y33034D01*
X817916Y32960D01*
X817742Y32891D01*
X817567Y32825D01*
X817390Y32765D01*
X817212Y32708D01*
X817032Y32656D01*
X816852Y32608D01*
X816670Y32565D01*
X816487Y32526D01*
X816303Y32492D01*
X816118Y32462D01*
X815933Y32437D01*
X815747Y32417D01*
X815561Y32401D01*
X815374Y32389D01*
X815187Y32382D01*
X815000Y32380D01*
X814813Y32382D01*
X814626Y32389D01*
X814439Y32401D01*
X814253Y32417D01*
X814067Y32437D01*
X813882Y32462D01*
X813697Y32492D01*
X813513Y32526D01*
X813330Y32565D01*
X813148Y32608D01*
X812968Y32656D01*
X812788Y32708D01*
X812610Y32765D01*
X812433Y32825D01*
X812258Y32891D01*
X812084Y32960D01*
X811912Y33034D01*
X811742Y33112D01*
X811574Y33194D01*
X811408Y33280D01*
X811244Y33370D01*
X811083Y33464D01*
X810923Y33562D01*
X810767Y33664D01*
X810612Y33770D01*
X810461Y33880D01*
X810312Y33993D01*
X810166Y34110D01*
X810023Y34230D01*
X809883Y34354D01*
X809746Y34481D01*
X809612Y34612D01*
X809481Y34746D01*
X809354Y34883D01*
X809230Y35023D01*
X809110Y35166D01*
X808993Y35312D01*
X808880Y35461D01*
X808770Y35612D01*
X808664Y35767D01*
X808562Y35923D01*
X808464Y36083D01*
X808370Y36244D01*
X808280Y36408D01*
X808194Y36574D01*
X808112Y36742D01*
X808034Y36912D01*
X807960Y37084D01*
X807891Y37258D01*
X807825Y37433D01*
X807765Y37610D01*
X807708Y37788D01*
X807656Y37968D01*
X807608Y38148D01*
X807565Y38330D01*
X807526Y38513D01*
X807492Y38697D01*
X807462Y38882D01*
X807437Y39067D01*
X807417Y39253D01*
X807401Y39439D01*
X807389Y39626D01*
X807382Y39813D01*
X807380Y40000D01*
D10*
X799000Y40000D02*
X799005Y40393D01*
X799019Y40785D01*
X799043Y41177D01*
X799077Y41568D01*
X799120Y41959D01*
X799173Y42348D01*
X799236Y42735D01*
X799307Y43121D01*
X799389Y43506D01*
X799479Y43888D01*
X799580Y44267D01*
X799689Y44645D01*
X799808Y45019D01*
X799935Y45390D01*
X800072Y45758D01*
X800218Y46123D01*
X800373Y46484D01*
X800536Y46841D01*
X800708Y47194D01*
X800889Y47542D01*
X801079Y47886D01*
X801276Y48226D01*
X801482Y48560D01*
X801696Y48889D01*
X801919Y49213D01*
X802149Y49531D01*
X802386Y49844D01*
X802632Y50150D01*
X802885Y50451D01*
X803145Y50745D01*
X803412Y51033D01*
X803686Y51314D01*
X803967Y51588D01*
X804255Y51855D01*
X804549Y52115D01*
X804850Y52368D01*
X805156Y52614D01*
X805469Y52851D01*
X805787Y53081D01*
X806111Y53304D01*
X806440Y53518D01*
X806774Y53724D01*
X807114Y53921D01*
X807458Y54111D01*
X807806Y54292D01*
X808159Y54464D01*
X808516Y54627D01*
X808877Y54782D01*
X809242Y54928D01*
X809610Y55065D01*
X809981Y55192D01*
X810355Y55311D01*
X810733Y55420D01*
X811112Y55521D01*
X811494Y55611D01*
X811879Y55693D01*
X812265Y55764D01*
X812652Y55827D01*
X813041Y55880D01*
X813432Y55923D01*
X813823Y55957D01*
X814215Y55981D01*
X814607Y55995D01*
X815000Y56000D01*
X815393Y55995D01*
X815785Y55981D01*
X816177Y55957D01*
X816568Y55923D01*
X816959Y55880D01*
X817348Y55827D01*
X817735Y55764D01*
X818121Y55693D01*
X818506Y55611D01*
X818888Y55521D01*
X819267Y55420D01*
X819645Y55311D01*
X820019Y55192D01*
X820390Y55065D01*
X820758Y54928D01*
X821123Y54782D01*
X821484Y54627D01*
X821841Y54464D01*
X822194Y54292D01*
X822542Y54111D01*
X822886Y53921D01*
X823226Y53724D01*
X823560Y53518D01*
X823889Y53304D01*
X824213Y53081D01*
X824531Y52851D01*
X824844Y52614D01*
X825150Y52368D01*
X825451Y52115D01*
X825745Y51855D01*
X826033Y51588D01*
X826314Y51314D01*
X826588Y51033D01*
X826855Y50745D01*
X827115Y50451D01*
X827368Y50150D01*
X827614Y49844D01*
X827851Y49531D01*
X828081Y49213D01*
X828304Y48889D01*
X828518Y48560D01*
X828724Y48226D01*
X828921Y47886D01*
X829111Y47542D01*
X829292Y47194D01*
X829464Y46841D01*
X829627Y46484D01*
X829782Y46123D01*
X829928Y45758D01*
X830065Y45390D01*
X830192Y45019D01*
X830311Y44645D01*
X830420Y44267D01*
X830521Y43888D01*
X830611Y43506D01*
X830693Y43121D01*
X830764Y42735D01*
X830827Y42348D01*
X830880Y41959D01*
X830923Y41568D01*
X830957Y41177D01*
X830981Y40785D01*
X830995Y40393D01*
X831000Y40000D01*
X830995Y39607D01*
X830981Y39215D01*
X830957Y38823D01*
X830923Y38432D01*
X830880Y38041D01*
X830827Y37652D01*
X830764Y37265D01*
X830693Y36879D01*
X830611Y36494D01*
X830521Y36112D01*
X830420Y35733D01*
X830311Y35355D01*
X830192Y34981D01*
X830065Y34610D01*
X829928Y34242D01*
X829782Y33877D01*
X829627Y33516D01*
X829464Y33159D01*
X829292Y32806D01*
X829111Y32458D01*
X828921Y32114D01*
X828724Y31774D01*
X828518Y31440D01*
X828304Y31111D01*
X828081Y30787D01*
X827851Y30469D01*
X827614Y30156D01*
X827368Y29850D01*
X827115Y29549D01*
X826855Y29255D01*
X826588Y28967D01*
X826314Y28686D01*
X826033Y28412D01*
X825745Y28145D01*
X825451Y27885D01*
X825150Y27632D01*
X824844Y27386D01*
X824531Y27149D01*
X824213Y26919D01*
X823889Y26696D01*
X823560Y26482D01*
X823226Y26276D01*
X822886Y26079D01*
X822542Y25889D01*
X822194Y25708D01*
X821841Y25536D01*
X821484Y25373D01*
X821123Y25218D01*
X820758Y25072D01*
X820390Y24935D01*
X820019Y24808D01*
X819645Y24689D01*
X819267Y24580D01*
X818888Y24479D01*
X818506Y24389D01*
X818121Y24307D01*
X817735Y24236D01*
X817348Y24173D01*
X816959Y24120D01*
X816568Y24077D01*
X816177Y24043D01*
X815785Y24019D01*
X815393Y24005D01*
X815000Y24000D01*
X814607Y24005D01*
X814215Y24019D01*
X813823Y24043D01*
X813432Y24077D01*
X813041Y24120D01*
X812652Y24173D01*
X812265Y24236D01*
X811879Y24307D01*
X811494Y24389D01*
X811112Y24479D01*
X810733Y24580D01*
X810355Y24689D01*
X809981Y24808D01*
X809610Y24935D01*
X809242Y25072D01*
X808877Y25218D01*
X808516Y25373D01*
X808159Y25536D01*
X807806Y25708D01*
X807458Y25889D01*
X807114Y26079D01*
X806774Y26276D01*
X806440Y26482D01*
X806111Y26696D01*
X805787Y26919D01*
X805469Y27149D01*
X805156Y27386D01*
X804850Y27632D01*
X804549Y27885D01*
X804255Y28145D01*
X803967Y28412D01*
X803686Y28686D01*
X803412Y28967D01*
X803145Y29255D01*
X802885Y29549D01*
X802632Y29850D01*
X802386Y30156D01*
X802149Y30469D01*
X801919Y30787D01*
X801696Y31111D01*
X801482Y31440D01*
X801276Y31774D01*
X801079Y32114D01*
X800889Y32458D01*
X800708Y32806D01*
X800536Y33159D01*
X800373Y33516D01*
X800218Y33877D01*
X800072Y34242D01*
X799935Y34610D01*
X799808Y34981D01*
X799689Y35355D01*
X799580Y35733D01*
X799479Y36112D01*
X799389Y36494D01*
X799307Y36879D01*
X799236Y37265D01*
X799173Y37652D01*
X799120Y38041D01*
X799077Y38432D01*
X799043Y38823D01*
X799019Y39215D01*
X799005Y39607D01*
X799000Y40000D01*
M02*
