M48
;GenerationSoftware,Autodesk,EAGLE,9.6.2*%
;CreationDate,2021-04-18T16:25:47Z*%
FMAT,2
ICI,OFF
METRIC,TZ,000.000
T7C0.800
T6C1.000
T5C1.016
T4C1.100
T3C2.200
T2C3.000
%
G90
M71
T2
X4000Y59000
X81500Y59000
X81500Y4000
X4000Y4000
T3
X63800Y28000
X75200Y28000
T4
X73000Y57000
X22500Y46000
X78500Y54500
X37500Y35500
X24500Y19000
X5500Y14000
X18500Y13000
X5500Y23000
X18500Y23000
X5500Y33000
X18500Y32000
X18500Y42000
X5500Y42000
X18500Y51000
X5500Y51000
X39500Y24500
X31500Y34000
X27000Y56000
X5500Y45000
X63000Y55000
X34000Y49500
X61500Y5000
X35500Y18000
X58500Y54000
X43000Y26000
X18500Y28000
X51142Y37244
X39500Y28520
X75500Y21336
X69000Y10066
X13500Y54000
X80000Y48000
X39500Y57500
X58500Y50000
X41500Y36500
X34500Y23000
X54500Y31000
X46000Y23000
X70500Y41000
X74500Y48000
X61500Y41000
X65500Y46000
X65500Y41000
T5
X82067Y10280
X79273Y12820
X81813Y12820
X79527Y15360
X82067Y15360
X74320Y13360
X74320Y10820
X79527Y10280
X74320Y8280
X21590Y58420
X19050Y58420
X16510Y58420
X13970Y58420
X11430Y58420
X34040Y59040
X31500Y59040
X28960Y59040
X24130Y58420
T6
X9250Y32250
X9250Y18250
X9250Y22750
X15750Y27750
X67000Y21000
X69500Y21000
X72000Y21000
X15750Y32250
X9250Y27750
X15750Y22750
X15750Y37250
X15750Y41750
X9250Y37250
X9250Y41750
X15750Y46750
X15750Y51250
X9250Y46750
X9250Y51250
X15750Y18250
X9250Y13250
X9250Y8750
X15750Y13250
X15750Y8750
T7
X65690Y44190
X63150Y44190
X68230Y44190
X70770Y44190
X73310Y44190
X75850Y44190
X70770Y51810
X63150Y51810
X68230Y51810
X65690Y51810
X75850Y51810
X73310Y51810
M30