G04 EAGLE Gerber RS-274X export*
G75*
%MOMM*%
%FSLAX34Y34*%
%LPD*%
%INTop Solder Mask*%
%IPPOS*%
%AMOC8*
5,1,8,0,0,1.08239X$1,22.5*%
G01*
%ADD10R,1.473200X0.762000*%
%ADD11R,0.762000X1.473200*%
%ADD12C,1.803200*%
%ADD13R,1.303200X1.203200*%
%ADD14R,0.792400X2.255600*%
%ADD15R,1.203200X1.303200*%
%ADD16C,1.981200*%
%ADD17C,2.082800*%
%ADD18C,1.727200*%
%ADD19C,1.711200*%
%ADD20C,3.419200*%
%ADD21C,3.203200*%
%ADD22R,1.003200X1.003200*%
%ADD23C,2.303200*%


D10*
X247274Y303600D03*
X247274Y295600D03*
X247274Y287600D03*
X247274Y279600D03*
X247274Y271600D03*
X247274Y263600D03*
X247274Y255600D03*
X247274Y247600D03*
D11*
X262200Y232674D03*
X270200Y232674D03*
X278200Y232674D03*
X286200Y232674D03*
X294200Y232674D03*
X302200Y232674D03*
X310200Y232674D03*
X318200Y232674D03*
D10*
X333126Y247600D03*
X333126Y255600D03*
X333126Y263600D03*
X333126Y271600D03*
X333126Y279600D03*
X333126Y287600D03*
X333126Y295600D03*
X333126Y303600D03*
D11*
X318200Y318526D03*
X310200Y318526D03*
X302200Y318526D03*
X294200Y318526D03*
X286200Y318526D03*
X278200Y318526D03*
X270200Y318526D03*
X262200Y318526D03*
D12*
X92500Y512500D03*
X92500Y467500D03*
X157500Y512500D03*
X157500Y467500D03*
X92500Y417500D03*
X92500Y372500D03*
X157500Y417500D03*
X157500Y372500D03*
X92500Y322500D03*
X92500Y277500D03*
X157500Y322500D03*
X157500Y277500D03*
X92500Y227500D03*
X92500Y182500D03*
X157500Y227500D03*
X157500Y182500D03*
X92500Y132500D03*
X92500Y87500D03*
X157500Y132500D03*
X157500Y87500D03*
D13*
X55000Y471500D03*
X55000Y488500D03*
X55000Y376500D03*
X55000Y393500D03*
X55000Y281500D03*
X55000Y298500D03*
X55000Y186500D03*
X55000Y203500D03*
X55000Y91500D03*
X55000Y108500D03*
D14*
X504850Y526536D03*
X492150Y526536D03*
X479450Y526536D03*
X466750Y526536D03*
X454050Y526536D03*
X441350Y526536D03*
X428650Y526536D03*
X415950Y526536D03*
X403250Y526536D03*
X390550Y526536D03*
X377850Y526536D03*
X365150Y526536D03*
X365150Y433464D03*
X377850Y433464D03*
X390550Y433464D03*
X403250Y433464D03*
X415950Y433464D03*
X428650Y433464D03*
X441350Y433464D03*
X454050Y433464D03*
X466750Y433464D03*
X479450Y433464D03*
X492150Y433464D03*
X504850Y433464D03*
D13*
X265000Y408500D03*
X265000Y391500D03*
D15*
X246500Y430000D03*
X263500Y430000D03*
X426500Y410000D03*
X443500Y410000D03*
D16*
X631500Y441900D03*
X656900Y441900D03*
X682300Y441900D03*
X707700Y441900D03*
X733100Y441900D03*
X758500Y441900D03*
X707700Y518100D03*
X631500Y518100D03*
X682300Y518100D03*
X656900Y518100D03*
X758500Y518100D03*
X733100Y518100D03*
D17*
X795270Y102800D03*
X820670Y102800D03*
X792730Y128200D03*
X818130Y128200D03*
X795270Y153600D03*
X820670Y153600D03*
D18*
X750820Y133600D02*
X735580Y133600D01*
X735580Y108200D02*
X750820Y108200D01*
X750820Y82800D02*
X735580Y82800D01*
D19*
X670000Y210000D03*
X695000Y210000D03*
X720000Y210000D03*
D20*
X638000Y280000D03*
X752000Y280000D03*
D21*
X40000Y40000D03*
X815000Y40000D03*
X815000Y590000D03*
X40000Y590000D03*
D15*
X583500Y170000D03*
X566500Y170000D03*
X583500Y210000D03*
X566500Y210000D03*
X583500Y250000D03*
X566500Y250000D03*
X583500Y290000D03*
X566500Y290000D03*
X583500Y90000D03*
X566500Y90000D03*
X583500Y130000D03*
X566500Y130000D03*
D22*
X542500Y170000D03*
X527500Y170000D03*
X542500Y210000D03*
X527500Y210000D03*
X542500Y250000D03*
X527500Y250000D03*
X542500Y290000D03*
X527500Y290000D03*
X542500Y90000D03*
X527500Y90000D03*
X542500Y130000D03*
X527500Y130000D03*
D18*
X190500Y576580D02*
X190500Y591820D01*
X165100Y591820D02*
X165100Y576580D01*
X139700Y576580D02*
X139700Y591820D01*
X114300Y591820D02*
X114300Y576580D01*
D15*
X583500Y50000D03*
X566500Y50000D03*
D22*
X542500Y50000D03*
X527500Y50000D03*
D18*
X340400Y582780D02*
X340400Y598020D01*
X315000Y598020D02*
X315000Y582780D01*
X289600Y582780D02*
X289600Y598020D01*
X241300Y591820D02*
X241300Y576580D01*
X215900Y576580D02*
X215900Y591820D01*
D23*
X55000Y450000D03*
X225000Y460000D03*
X340000Y495000D03*
X615000Y50000D03*
X355000Y180000D03*
X585000Y540000D03*
X430000Y260000D03*
X185000Y280000D03*
X511420Y372440D03*
X395000Y285200D03*
X755000Y213360D03*
X690000Y100660D03*
X135000Y540000D03*
X585000Y500000D03*
X800000Y480000D03*
X655000Y410000D03*
X655000Y460000D03*
X615000Y410000D03*
X745000Y480000D03*
X705000Y410000D03*
X460000Y230000D03*
X545000Y310000D03*
X345000Y230000D03*
X415000Y365000D03*
X630000Y550000D03*
X395000Y575000D03*
X730000Y570000D03*
X785000Y545000D03*
X375000Y355000D03*
X245000Y190000D03*
X55000Y140000D03*
X185000Y130000D03*
X55000Y230000D03*
X185000Y230000D03*
X55000Y330000D03*
X185000Y320000D03*
X185000Y420000D03*
X55000Y420000D03*
X185000Y510000D03*
X55000Y510000D03*
X395000Y245000D03*
X315000Y340000D03*
X270000Y560000D03*
M02*
